%TF.GenerationSoftware,KiCad,Pcbnew,9.0.5*%
%TF.CreationDate,2025-10-20T02:53:57+08:00*%
%TF.ProjectId,scl3300-evb,73636c33-3330-4302-9d65-76622e6b6963,rev?*%
%TF.SameCoordinates,Original*%
%TF.FileFunction,Soldermask,Top*%
%TF.FilePolarity,Negative*%
%FSLAX46Y46*%
G04 Gerber Fmt 4.6, Leading zero omitted, Abs format (unit mm)*
G04 Created by KiCad (PCBNEW 9.0.5) date 2025-10-20 02:53:57*
%MOMM*%
%LPD*%
G01*
G04 APERTURE LIST*
G04 Aperture macros list*
%AMRoundRect*
0 Rectangle with rounded corners*
0 $1 Rounding radius*
0 $2 $3 $4 $5 $6 $7 $8 $9 X,Y pos of 4 corners*
0 Add a 4 corners polygon primitive as box body*
4,1,4,$2,$3,$4,$5,$6,$7,$8,$9,$2,$3,0*
0 Add four circle primitives for the rounded corners*
1,1,$1+$1,$2,$3*
1,1,$1+$1,$4,$5*
1,1,$1+$1,$6,$7*
1,1,$1+$1,$8,$9*
0 Add four rect primitives between the rounded corners*
20,1,$1+$1,$2,$3,$4,$5,0*
20,1,$1+$1,$4,$5,$6,$7,0*
20,1,$1+$1,$6,$7,$8,$9,0*
20,1,$1+$1,$8,$9,$2,$3,0*%
%AMRotRect*
0 Rectangle, with rotation*
0 The origin of the aperture is its center*
0 $1 length*
0 $2 width*
0 $3 Rotation angle, in degrees counterclockwise*
0 Add horizontal line*
21,1,$1,$2,0,0,$3*%
G04 Aperture macros list end*
%ADD10C,0.150000*%
%ADD11C,0.100000*%
%ADD12RoundRect,0.225000X-0.225000X-0.250000X0.225000X-0.250000X0.225000X0.250000X-0.225000X0.250000X0*%
%ADD13C,3.800000*%
%ADD14C,1.700000*%
%ADD15R,1.700000X1.700000*%
%ADD16RoundRect,0.218750X-0.218750X-0.256250X0.218750X-0.256250X0.218750X0.256250X-0.218750X0.256250X0*%
%ADD17RoundRect,0.200000X-0.200000X-0.275000X0.200000X-0.275000X0.200000X0.275000X-0.200000X0.275000X0*%
%ADD18RoundRect,0.225000X0.250000X-0.225000X0.250000X0.225000X-0.250000X0.225000X-0.250000X-0.225000X0*%
%ADD19RoundRect,0.225000X-0.250000X0.225000X-0.250000X-0.225000X0.250000X-0.225000X0.250000X0.225000X0*%
%ADD20RoundRect,0.200000X0.200000X0.275000X-0.200000X0.275000X-0.200000X-0.275000X0.200000X-0.275000X0*%
%ADD21C,1.000000*%
%ADD22RoundRect,0.225000X0.225000X0.250000X-0.225000X0.250000X-0.225000X-0.250000X0.225000X-0.250000X0*%
%ADD23RoundRect,0.375000X-0.625000X-0.375000X0.625000X-0.375000X0.625000X0.375000X-0.625000X0.375000X0*%
%ADD24RoundRect,0.500000X-0.500000X-1.400000X0.500000X-1.400000X0.500000X1.400000X-0.500000X1.400000X0*%
%ADD25RoundRect,0.250000X1.000000X0.650000X-1.000000X0.650000X-1.000000X-0.650000X1.000000X-0.650000X0*%
%ADD26RoundRect,0.200000X-0.275000X0.200000X-0.275000X-0.200000X0.275000X-0.200000X0.275000X0.200000X0*%
%ADD27C,2.000000*%
%ADD28RoundRect,0.150000X0.825000X0.150000X-0.825000X0.150000X-0.825000X-0.150000X0.825000X-0.150000X0*%
%ADD29RoundRect,0.250000X-0.310000X0.970000X-0.310000X-0.970000X0.310000X-0.970000X0.310000X0.970000X0*%
%ADD30RoundRect,0.218750X0.218750X0.256250X-0.218750X0.256250X-0.218750X-0.256250X0.218750X-0.256250X0*%
%ADD31RoundRect,0.200000X0.200000X-0.700000X0.200000X0.700000X-0.200000X0.700000X-0.200000X-0.700000X0*%
%ADD32RoundRect,0.250000X-0.420000X-0.945000X0.420000X-0.945000X0.420000X0.945000X-0.420000X0.945000X0*%
%ADD33RoundRect,0.218750X-0.256250X0.218750X-0.256250X-0.218750X0.256250X-0.218750X0.256250X0.218750X0*%
%ADD34R,1.500000X0.650000*%
%ADD35RoundRect,0.200000X0.275000X-0.200000X0.275000X0.200000X-0.275000X0.200000X-0.275000X-0.200000X0*%
%ADD36RoundRect,0.250000X-0.750000X0.650000X-0.750000X-0.650000X0.750000X-0.650000X0.750000X0.650000X0*%
%ADD37RoundRect,0.250000X0.945000X-0.420000X0.945000X0.420000X-0.945000X0.420000X-0.945000X-0.420000X0*%
%ADD38RotRect,2.000000X0.800000X30.000000*%
%ADD39RoundRect,0.075000X-0.075000X0.662500X-0.075000X-0.662500X0.075000X-0.662500X0.075000X0.662500X0*%
%ADD40RoundRect,0.075000X-0.662500X0.075000X-0.662500X-0.075000X0.662500X-0.075000X0.662500X0.075000X0*%
%ADD41RoundRect,0.137500X-0.137500X0.612500X-0.137500X-0.612500X0.137500X-0.612500X0.137500X0.612500X0*%
%ADD42C,2.050000*%
%ADD43C,2.250000*%
%ADD44C,0.650000*%
%ADD45RoundRect,0.150000X-0.500000X0.150000X-0.500000X-0.150000X0.500000X-0.150000X0.500000X0.150000X0*%
%ADD46RoundRect,0.075000X-0.575000X0.075000X-0.575000X-0.075000X0.575000X-0.075000X0.575000X0.075000X0*%
%ADD47O,2.100000X1.000000*%
%ADD48O,1.600000X1.000000*%
G04 APERTURE END LIST*
D10*
X97214285Y-66834819D02*
X97023809Y-66834819D01*
X97023809Y-66834819D02*
X96928571Y-66882438D01*
X96928571Y-66882438D02*
X96880952Y-66930057D01*
X96880952Y-66930057D02*
X96785714Y-67072914D01*
X96785714Y-67072914D02*
X96738095Y-67263390D01*
X96738095Y-67263390D02*
X96738095Y-67644342D01*
X96738095Y-67644342D02*
X96785714Y-67739580D01*
X96785714Y-67739580D02*
X96833333Y-67787200D01*
X96833333Y-67787200D02*
X96928571Y-67834819D01*
X96928571Y-67834819D02*
X97119047Y-67834819D01*
X97119047Y-67834819D02*
X97214285Y-67787200D01*
X97214285Y-67787200D02*
X97261904Y-67739580D01*
X97261904Y-67739580D02*
X97309523Y-67644342D01*
X97309523Y-67644342D02*
X97309523Y-67406247D01*
X97309523Y-67406247D02*
X97261904Y-67311009D01*
X97261904Y-67311009D02*
X97214285Y-67263390D01*
X97214285Y-67263390D02*
X97119047Y-67215771D01*
X97119047Y-67215771D02*
X96928571Y-67215771D01*
X96928571Y-67215771D02*
X96833333Y-67263390D01*
X96833333Y-67263390D02*
X96785714Y-67311009D01*
X96785714Y-67311009D02*
X96738095Y-67406247D01*
X98214285Y-66834819D02*
X97738095Y-66834819D01*
X97738095Y-66834819D02*
X97690476Y-67311009D01*
X97690476Y-67311009D02*
X97738095Y-67263390D01*
X97738095Y-67263390D02*
X97833333Y-67215771D01*
X97833333Y-67215771D02*
X98071428Y-67215771D01*
X98071428Y-67215771D02*
X98166666Y-67263390D01*
X98166666Y-67263390D02*
X98214285Y-67311009D01*
X98214285Y-67311009D02*
X98261904Y-67406247D01*
X98261904Y-67406247D02*
X98261904Y-67644342D01*
X98261904Y-67644342D02*
X98214285Y-67739580D01*
X98214285Y-67739580D02*
X98166666Y-67787200D01*
X98166666Y-67787200D02*
X98071428Y-67834819D01*
X98071428Y-67834819D02*
X97833333Y-67834819D01*
X97833333Y-67834819D02*
X97738095Y-67787200D01*
X97738095Y-67787200D02*
X97690476Y-67739580D01*
D11*
X130000000Y-76650000D02*
X130000000Y-67943580D01*
X65000000Y-67943580D02*
X65000000Y-76650000D01*
X130000000Y-68530000D02*
X65000000Y-68530000D01*
X130000000Y-68530000D02*
X128873496Y-69116421D01*
X130000000Y-68530000D02*
X128873496Y-67943579D01*
X65000000Y-68530000D02*
X66126504Y-67943579D01*
X65000000Y-68530000D02*
X66126504Y-69116421D01*
D10*
X138768152Y-95285714D02*
X139434819Y-95285714D01*
X138387200Y-95523809D02*
X139101485Y-95761904D01*
X139101485Y-95761904D02*
X139101485Y-95142857D01*
X138434819Y-94571428D02*
X138434819Y-94476190D01*
X138434819Y-94476190D02*
X138482438Y-94380952D01*
X138482438Y-94380952D02*
X138530057Y-94333333D01*
X138530057Y-94333333D02*
X138625295Y-94285714D01*
X138625295Y-94285714D02*
X138815771Y-94238095D01*
X138815771Y-94238095D02*
X139053866Y-94238095D01*
X139053866Y-94238095D02*
X139244342Y-94285714D01*
X139244342Y-94285714D02*
X139339580Y-94333333D01*
X139339580Y-94333333D02*
X139387200Y-94380952D01*
X139387200Y-94380952D02*
X139434819Y-94476190D01*
X139434819Y-94476190D02*
X139434819Y-94571428D01*
X139434819Y-94571428D02*
X139387200Y-94666666D01*
X139387200Y-94666666D02*
X139339580Y-94714285D01*
X139339580Y-94714285D02*
X139244342Y-94761904D01*
X139244342Y-94761904D02*
X139053866Y-94809523D01*
X139053866Y-94809523D02*
X138815771Y-94809523D01*
X138815771Y-94809523D02*
X138625295Y-94761904D01*
X138625295Y-94761904D02*
X138530057Y-94714285D01*
X138530057Y-94714285D02*
X138482438Y-94666666D01*
X138482438Y-94666666D02*
X138434819Y-94571428D01*
D11*
X128350000Y-75000000D02*
X140716420Y-75000000D01*
X140716420Y-115000000D02*
X128350000Y-115000000D01*
X140130000Y-75000000D02*
X140130000Y-115000000D01*
X140130000Y-75000000D02*
X140716421Y-76126504D01*
X140130000Y-75000000D02*
X139543579Y-76126504D01*
X140130000Y-115000000D02*
X139543579Y-113873496D01*
X140130000Y-115000000D02*
X140716421Y-113873496D01*
D12*
%TO.C,C6*%
X125710000Y-93430000D03*
X124160000Y-93430000D03*
%TD*%
D13*
%TO.C,H1*%
X67150000Y-77150000D03*
%TD*%
%TO.C,H2*%
X127850000Y-77150000D03*
%TD*%
%TO.C,H3*%
X127850000Y-112850000D03*
%TD*%
%TO.C,H4*%
X67150000Y-112850000D03*
%TD*%
D14*
%TO.C,J3*%
X100950000Y-111865000D03*
X98410000Y-111865000D03*
D15*
X95870000Y-111865000D03*
%TD*%
D14*
%TO.C,J4*%
X111370000Y-111865000D03*
X108830000Y-111865000D03*
D15*
X106290000Y-111865000D03*
%TD*%
D16*
%TO.C,L1*%
X119227500Y-99190000D03*
X117652500Y-99190000D03*
%TD*%
D17*
%TO.C,R1*%
X76615000Y-94220000D03*
X74965000Y-94220000D03*
%TD*%
%TO.C,R2*%
X76615000Y-95910000D03*
X74965000Y-95910000D03*
%TD*%
%TO.C,R12*%
X92415000Y-110840000D03*
X90765000Y-110840000D03*
%TD*%
%TO.C,R13*%
X92415000Y-112745000D03*
X90765000Y-112745000D03*
%TD*%
D18*
%TO.C,C10*%
X110190000Y-107695000D03*
X110190000Y-106145000D03*
%TD*%
D19*
%TO.C,C3*%
X80430000Y-90585000D03*
X80430000Y-92135000D03*
%TD*%
D18*
%TO.C,C4*%
X118400000Y-94205000D03*
X118400000Y-92655000D03*
%TD*%
D20*
%TO.C,R6*%
X100670000Y-93390000D03*
X99020000Y-93390000D03*
%TD*%
D12*
%TO.C,C8*%
X104925000Y-99330000D03*
X106475000Y-99330000D03*
%TD*%
D17*
%TO.C,R8*%
X90055000Y-100710000D03*
X91705000Y-100710000D03*
%TD*%
D21*
%TO.C,TP5*%
X67370000Y-103810000D03*
%TD*%
D22*
%TO.C,C17*%
X99535000Y-98860000D03*
X97985000Y-98860000D03*
%TD*%
%TO.C,C19*%
X98970000Y-89290000D03*
X97420000Y-89290000D03*
%TD*%
D23*
%TO.C,U2*%
X75290000Y-83000000D03*
X75290000Y-85300000D03*
D24*
X81590000Y-85300000D03*
D23*
X75290000Y-87600000D03*
%TD*%
D21*
%TO.C,TP4*%
X67370000Y-107240000D03*
%TD*%
D25*
%TO.C,D1*%
X117867500Y-102550000D03*
X113867500Y-102550000D03*
%TD*%
D26*
%TO.C,R4*%
X84430000Y-90535000D03*
X84430000Y-92185000D03*
%TD*%
D15*
%TO.C,U7*%
X74673375Y-78470000D03*
D14*
X77213375Y-78470000D03*
X79753375Y-78470000D03*
X82293375Y-78470000D03*
%TD*%
D25*
%TO.C,D2*%
X71152500Y-87200000D03*
X67152500Y-87200000D03*
%TD*%
D27*
%TO.C,SW1*%
X96510000Y-78550000D03*
X103010000Y-78550000D03*
X96510000Y-83050000D03*
X103010000Y-83050000D03*
%TD*%
D18*
%TO.C,C20*%
X85800000Y-100230000D03*
X85800000Y-98680000D03*
%TD*%
D26*
%TO.C,R10*%
X93800000Y-86100000D03*
X93800000Y-87750000D03*
%TD*%
D28*
%TO.C,U3*%
X108175000Y-97295000D03*
X108175000Y-96025000D03*
X108175000Y-94755000D03*
X108175000Y-93485000D03*
X103225000Y-93485000D03*
X103225000Y-94755000D03*
X103225000Y-96025000D03*
X103225000Y-97295000D03*
%TD*%
D19*
%TO.C,C14*%
X98360000Y-106145000D03*
X98360000Y-107695000D03*
%TD*%
D18*
%TO.C,C15*%
X86130000Y-79305000D03*
X86130000Y-77755000D03*
%TD*%
D17*
%TO.C,R7*%
X90055000Y-102445000D03*
X91705000Y-102445000D03*
%TD*%
D19*
%TO.C,C12*%
X76540000Y-98160000D03*
X76540000Y-99710000D03*
%TD*%
D29*
%TO.C,SW2*%
X85220000Y-103825000D03*
X82680000Y-103825000D03*
X82680000Y-112435000D03*
X85220000Y-112435000D03*
%TD*%
D21*
%TO.C,TP3*%
X103060000Y-90310000D03*
%TD*%
D19*
%TO.C,C11*%
X98360000Y-101505000D03*
X98360000Y-103055000D03*
%TD*%
D30*
%TO.C,D6*%
X91647500Y-105950000D03*
X90072500Y-105950000D03*
%TD*%
D31*
%TO.C,U1*%
X107700000Y-90200000D03*
X108800000Y-90200000D03*
X109900000Y-90200000D03*
X111000000Y-90200000D03*
X112100000Y-90200000D03*
X113200000Y-90200000D03*
X114300000Y-90200000D03*
X117300000Y-90200000D03*
X118400000Y-90200000D03*
X119500000Y-90200000D03*
X120600000Y-90200000D03*
X121700000Y-90200000D03*
X121700000Y-78200000D03*
X120600000Y-78200000D03*
X119500000Y-78200000D03*
X118400000Y-78200000D03*
X117300000Y-78200000D03*
X114300000Y-78200000D03*
X113200000Y-78200000D03*
X112100000Y-78200000D03*
X111000000Y-78200000D03*
X109900000Y-78200000D03*
X108800000Y-78200000D03*
X107700000Y-78200000D03*
%TD*%
D32*
%TO.C,C2*%
X75250000Y-91370000D03*
X78330000Y-91370000D03*
%TD*%
D33*
%TO.C,D4*%
X82430000Y-90592500D03*
X82430000Y-92167500D03*
%TD*%
D29*
%TO.C,SW3*%
X77415000Y-103825000D03*
X74875000Y-103825000D03*
X72335000Y-103825000D03*
X72335000Y-112435000D03*
X74875000Y-112435000D03*
X77415000Y-112435000D03*
%TD*%
D18*
%TO.C,C18*%
X87780000Y-100230000D03*
X87780000Y-98680000D03*
%TD*%
D34*
%TO.C,U4*%
X100560000Y-102100000D03*
X100560000Y-103100000D03*
X100560000Y-104100000D03*
X100560000Y-105100000D03*
X100560000Y-106100000D03*
X100560000Y-107100000D03*
X108060000Y-107100000D03*
X108060000Y-106100000D03*
X108060000Y-105100000D03*
X108060000Y-104100000D03*
X108060000Y-103100000D03*
X108060000Y-102100000D03*
%TD*%
D19*
%TO.C,C16*%
X89800000Y-86150000D03*
X89800000Y-87700000D03*
%TD*%
%TO.C,C1*%
X104960000Y-86455000D03*
X104960000Y-88005000D03*
%TD*%
D35*
%TO.C,R11*%
X91800000Y-87750000D03*
X91800000Y-86100000D03*
%TD*%
D12*
%TO.C,C5*%
X117665000Y-97380000D03*
X119215000Y-97380000D03*
%TD*%
D18*
%TO.C,C13*%
X110210000Y-103055000D03*
X110210000Y-101505000D03*
%TD*%
D20*
%TO.C,R3*%
X122250000Y-93430000D03*
X120600000Y-93430000D03*
%TD*%
D36*
%TO.C,Y1*%
X88740000Y-78510000D03*
X88740000Y-83590000D03*
X92940000Y-83590000D03*
X92940000Y-78510000D03*
%TD*%
D37*
%TO.C,C7*%
X85180000Y-85670000D03*
X85180000Y-82590000D03*
%TD*%
D12*
%TO.C,C9*%
X84405000Y-88170000D03*
X85955000Y-88170000D03*
%TD*%
D20*
%TO.C,R5*%
X100670000Y-95030000D03*
X99020000Y-95030000D03*
%TD*%
D17*
%TO.C,R9*%
X97370000Y-87670000D03*
X99020000Y-87670000D03*
%TD*%
D38*
%TO.C,BT1*%
X122921900Y-106336097D03*
X123671900Y-107635135D03*
%TD*%
D30*
%TO.C,D5*%
X91647500Y-107870000D03*
X90072500Y-107870000D03*
%TD*%
D25*
%TO.C,D3*%
X71152500Y-83440000D03*
X67152500Y-83440000D03*
%TD*%
D39*
%TO.C,U6*%
X95310000Y-90007500D03*
X94810000Y-90007500D03*
X94310000Y-90007500D03*
X93810000Y-90007500D03*
X93310000Y-90007500D03*
X92810000Y-90007500D03*
X92310000Y-90007500D03*
X91810000Y-90007500D03*
X91310000Y-90007500D03*
X90810000Y-90007500D03*
X90310000Y-90007500D03*
X89810000Y-90007500D03*
D40*
X88397500Y-91420000D03*
X88397500Y-91920000D03*
X88397500Y-92420000D03*
X88397500Y-92920000D03*
X88397500Y-93420000D03*
X88397500Y-93920000D03*
X88397500Y-94420000D03*
X88397500Y-94920000D03*
X88397500Y-95420000D03*
X88397500Y-95920000D03*
X88397500Y-96420000D03*
X88397500Y-96920000D03*
D39*
X89810000Y-98332500D03*
X90310000Y-98332500D03*
X90810000Y-98332500D03*
X91310000Y-98332500D03*
X91810000Y-98332500D03*
X92310000Y-98332500D03*
X92810000Y-98332500D03*
X93310000Y-98332500D03*
X93810000Y-98332500D03*
X94310000Y-98332500D03*
X94810000Y-98332500D03*
X95310000Y-98332500D03*
D40*
X96722500Y-96920000D03*
X96722500Y-96420000D03*
X96722500Y-95920000D03*
X96722500Y-95420000D03*
X96722500Y-94920000D03*
X96722500Y-94420000D03*
X96722500Y-93920000D03*
X96722500Y-93420000D03*
X96722500Y-92920000D03*
X96722500Y-92420000D03*
X96722500Y-91920000D03*
X96722500Y-91420000D03*
%TD*%
D16*
%TO.C,D7*%
X97427500Y-86080000D03*
X99002500Y-86080000D03*
%TD*%
D41*
%TO.C,U5*%
X82480000Y-94410000D03*
X81210000Y-94410000D03*
X79940000Y-94410000D03*
X78670000Y-94410000D03*
X78670000Y-99710000D03*
X79940000Y-99710000D03*
X81210000Y-99710000D03*
X82480000Y-99710000D03*
%TD*%
D15*
%TO.C,J2*%
X94580000Y-106830000D03*
D14*
X94580000Y-104290000D03*
X94580000Y-101750000D03*
%TD*%
D42*
%TO.C,J1*%
X125710000Y-99190000D03*
D43*
X123170000Y-96650000D03*
X123170000Y-101730000D03*
X128250000Y-96650000D03*
X128250000Y-101730000D03*
%TD*%
D44*
%TO.C,P1*%
X71425000Y-92110000D03*
X71425000Y-97890000D03*
D45*
X72565000Y-91800000D03*
X72565000Y-92600000D03*
D46*
X72565000Y-93750000D03*
X72565000Y-94750000D03*
X72565000Y-95250000D03*
X72565000Y-96250000D03*
D45*
X72565000Y-97400000D03*
X72565000Y-98200000D03*
X72565000Y-98200000D03*
X72565000Y-97400000D03*
D46*
X72565000Y-96750000D03*
X72565000Y-95750000D03*
X72565000Y-94250000D03*
X72565000Y-93250000D03*
D45*
X72565000Y-92600000D03*
X72565000Y-91800000D03*
D47*
X71925000Y-90680000D03*
D48*
X67745000Y-90680000D03*
D47*
X71925000Y-99320000D03*
D48*
X67745000Y-99320000D03*
%TD*%
M02*
