M48
; DRILL file {KiCad 9.0.5} date 2025-10-15T19:16:24+0800
; FORMAT={-:-/ absolute / inch / decimal}
; #@! TF.CreationDate,2025-10-15T19:16:24+08:00
; #@! TF.GenerationSoftware,Kicad,Pcbnew,9.0.5
; #@! TF.FileFunction,Plated,1,2,PTH
FMAT,2
INCH
; #@! TA.AperFunction,Plated,PTH,ViaDrill
T1C0.0079
; #@! TA.AperFunction,Plated,PTH,ViaDrill
T2C0.0118
; #@! TA.AperFunction,Plated,PTH,ComponentDrill
T3C0.0236
; #@! TA.AperFunction,Plated,PTH,ComponentDrill
T4C0.0394
; #@! TA.AperFunction,Plated,PTH,ComponentDrill
T5C0.0433
; #@! TA.AperFunction,Plated,PTH,ComponentDrill
T6C0.0591
; #@! TA.AperFunction,Plated,PTH,ComponentDrill
T7C0.0669
; #@! TA.AperFunction,Plated,PTH,ComponentDrill
T8C0.0866
%
G90
G05
T1
X2.726Y3.3516
X2.7827Y4.287
X2.8059Y4.087
X2.8236Y4.222
X2.9087Y3.7281
X2.9087Y3.7537
X3.0461Y4.0142
X3.0909Y3.1283
X3.091Y4.344
X3.1472Y3.8925
X3.193Y4.354
X3.1972Y3.8898
X3.2094Y3.7739
X3.235Y3.7739
X3.287Y3.692
X3.2945Y4.0435
X3.3059Y4.115
X3.315Y3.058
X3.3187Y4.0435
X3.374Y3.6197
X3.3752Y3.6748
X3.401Y3.83
X3.4035Y4.1264
X3.42Y4.467
X3.424Y3.845
X3.434Y3.176
X3.461Y4.326
X3.4685Y3.539
X3.469Y4.375
X3.4913Y4.4906
X3.4918Y4.0067
X3.4972Y3.95
X3.4976Y3.9232
X3.4996Y3.5209
X3.5074Y3.8714
X3.5228Y4.3043
X3.5283Y3.7654
X3.539Y3.7437
X3.548Y3.6906
X3.5607Y3.722
X3.5791Y4.1358
X3.5831Y3.4311
X3.5831Y3.487
X3.5872Y3.6128
X3.598Y3.7197
X3.6224Y3.8256
X3.6283Y3.6811
X3.6283Y3.9976
X3.6407Y3.4285
X3.6429Y3.5898
X3.6669Y4.4388
X3.6693Y4.361
X3.6803Y3.589
X3.7059Y3.6594
X3.7071Y4.0555
X3.714Y4.446
X3.736Y4.261
X3.7449Y3.9488
X3.751Y3.636
X3.7571Y3.5911
X3.7705Y3.487
X3.79Y4.116
X3.808Y3.8496
X3.808Y3.893
X3.8146Y3.1736
X3.818Y4.243
X3.8296Y3.5775
X3.8346Y4.3283
X3.8369Y3.555
X3.8528Y3.6598
X3.88Y3.859
X3.8889Y4.0963
X3.9134Y3.9768
X3.9181Y3.5559
X3.928Y3.6283
X3.9315Y3.7413
X3.9319Y3.6768
X3.9394Y3.1701
X4.0201Y3.6768
X4.0213Y3.7305
X4.0323Y4.4298
X4.0602Y3.8878
X4.0878Y3.8772
X4.0984Y3.9508
X4.1402Y3.798
X4.1402Y3.8472
X4.1854Y3.7945
X4.1854Y3.8757
X4.2374Y3.9827
X4.298Y4.2165
X4.3002Y4.1772
X4.3075Y3.9126
X4.3142Y3.6287
X4.3268Y3.1764
X4.3701Y3.2413
X4.3787Y3.9752
X4.4134Y3.3831
X4.5528Y3.0984
X4.5618Y3.2654
X4.6169Y3.9594
X4.713Y3.609
X4.713Y3.629
X4.713Y3.649
X4.713Y3.669
X4.713Y3.689
X4.7281Y3.9379
X4.7283Y3.873
X4.7483Y3.873
X4.7486Y3.9379
X4.7688Y3.9379
X4.7698Y3.873
X4.7829Y3.6086
X4.7829Y3.6289
X4.7829Y3.6488
X4.7888Y3.9379
X4.7897Y3.873
X4.8087Y3.9379
X4.8098Y3.873
X4.8287Y3.9379
X4.8297Y3.873
X4.8486Y3.9379
X4.8498Y3.873
X4.916Y3.7238
X4.916Y3.744
X4.916Y3.7639
X4.916Y3.7839
X4.916Y3.8038
X4.916Y3.8237
X4.9809Y3.7235
X4.9809Y3.745
X4.9809Y3.7649
X4.9809Y3.7849
X4.9809Y3.8049
X4.9809Y3.825
T2
X3.8268Y4.129
T4
X2.9399Y3.0894
X3.0399Y3.0894
X3.1399Y3.0894
X3.2399Y3.0894
X3.7236Y4.0059
X3.7236Y4.1059
X3.7236Y4.2059
X3.7744Y4.4041
X3.8744Y4.4041
X3.9744Y4.4041
X4.1846Y4.4041
X4.2846Y4.4041
X4.3846Y4.4041
T5
X3.7996Y3.0925
X3.7996Y3.2697
X4.0555Y3.0925
X4.0555Y3.2697
T6
X4.9492Y3.9051
T7
X4.8492Y3.8051
X4.8492Y4.0051
X5.0492Y3.8051
X5.0492Y4.0051
T8
X2.6437Y3.0374
X2.6437Y4.4429
X5.0335Y3.0374
X5.0335Y4.4429
T3
G00X2.6789Y3.5701
M15
G01X2.6553Y3.5701
M16
G05
G00X2.6789Y3.9102
M15
G01X2.6553Y3.9102
M16
G05
G00X2.8533Y3.5701
M15
G01X2.81Y3.5701
M16
G05
G00X2.8533Y3.9102
M15
G01X2.81Y3.9102
M16
G05
M30
