%TF.GenerationSoftware,KiCad,Pcbnew,9.0.5*%
%TF.CreationDate,2025-10-20T02:53:56+08:00*%
%TF.ProjectId,scl3300-evb,73636c33-3330-4302-9d65-76622e6b6963,rev?*%
%TF.SameCoordinates,Original*%
%TF.FileFunction,Legend,Top*%
%TF.FilePolarity,Positive*%
%FSLAX46Y46*%
G04 Gerber Fmt 4.6, Leading zero omitted, Abs format (unit mm)*
G04 Created by KiCad (PCBNEW 9.0.5) date 2025-10-20 02:53:56*
%MOMM*%
%LPD*%
G01*
G04 APERTURE LIST*
%ADD10C,0.200000*%
%ADD11C,0.150000*%
%ADD12C,0.250000*%
%ADD13C,0.120000*%
G04 APERTURE END LIST*
D10*
X112065000Y-94337500D02*
X112065000Y-96337500D01*
X112515000Y-94337500D02*
G75*
G02*
X111615000Y-94337500I-450000J0D01*
G01*
X111615000Y-94337500D02*
G75*
G02*
X112515000Y-94337500I450000J0D01*
G01*
X114065000Y-94337500D02*
X112065000Y-94337500D01*
X110085000Y-93207500D02*
X115535000Y-93207500D01*
X115535000Y-97837500D01*
X110085000Y-97837500D01*
X110085000Y-93207500D01*
D11*
X112064999Y-97031557D02*
X112064999Y-97317271D01*
X111864999Y-96717271D02*
X112064999Y-97031557D01*
X112064999Y-97031557D02*
X112264999Y-96717271D01*
D12*
G36*
X128025027Y-88770508D02*
G01*
X128089847Y-88802918D01*
X128108779Y-88821851D01*
X128134130Y-88872552D01*
X128134130Y-88908773D01*
X128108779Y-88959474D01*
X128089847Y-88978407D01*
X128025027Y-89010817D01*
X127862789Y-89051377D01*
X127655472Y-89051377D01*
X127493235Y-89010817D01*
X127428414Y-88978407D01*
X127409481Y-88959475D01*
X127384130Y-88908772D01*
X127384130Y-88872553D01*
X127409481Y-88821850D01*
X127428414Y-88802918D01*
X127493235Y-88770508D01*
X127655472Y-88729949D01*
X127862789Y-88729949D01*
X128025027Y-88770508D01*
G37*
G36*
X128025027Y-84960984D02*
G01*
X128089847Y-84993394D01*
X128108779Y-85012327D01*
X128134130Y-85063028D01*
X128134130Y-85099249D01*
X128108779Y-85149950D01*
X128089847Y-85168883D01*
X128025027Y-85201293D01*
X127862789Y-85241853D01*
X127655472Y-85241853D01*
X127493235Y-85201293D01*
X127428414Y-85168883D01*
X127409481Y-85149951D01*
X127384130Y-85099248D01*
X127384130Y-85063029D01*
X127409481Y-85012326D01*
X127428414Y-84993394D01*
X127493235Y-84960984D01*
X127655472Y-84920425D01*
X127862789Y-84920425D01*
X128025027Y-84960984D01*
G37*
G36*
X128134130Y-81004011D02*
G01*
X128108779Y-81054712D01*
X128089847Y-81073645D01*
X128039146Y-81098996D01*
X127955306Y-81098996D01*
X127904604Y-81073645D01*
X127885671Y-81054713D01*
X127860321Y-81004012D01*
X127860321Y-80777568D01*
X128134130Y-80777568D01*
X128134130Y-81004011D01*
G37*
G36*
X128509130Y-91331139D02*
G01*
X127009130Y-91331139D01*
X127009130Y-90652568D01*
X127134130Y-90652568D01*
X127134130Y-90890663D01*
X127136532Y-90915049D01*
X127138251Y-90919200D01*
X127138570Y-90923680D01*
X127147327Y-90946566D01*
X127194947Y-91041804D01*
X127201554Y-91052300D01*
X127202817Y-91055347D01*
X127205634Y-91058779D01*
X127208002Y-91062541D01*
X127210496Y-91064704D01*
X127218362Y-91074289D01*
X127265980Y-91121908D01*
X127275568Y-91129777D01*
X127277730Y-91132269D01*
X127281487Y-91134634D01*
X127284922Y-91137453D01*
X127287972Y-91138716D01*
X127298467Y-91145323D01*
X127393705Y-91192942D01*
X127416591Y-91201700D01*
X127421071Y-91202018D01*
X127425221Y-91203737D01*
X127449607Y-91206139D01*
X127687702Y-91206139D01*
X127712088Y-91203737D01*
X127716236Y-91202018D01*
X127720718Y-91201700D01*
X127743604Y-91192942D01*
X127838841Y-91145324D01*
X127849339Y-91138714D01*
X127852386Y-91137453D01*
X127855817Y-91134637D01*
X127859579Y-91132269D01*
X127861742Y-91129774D01*
X127871328Y-91121908D01*
X127918947Y-91074290D01*
X127926816Y-91064701D01*
X127929308Y-91062540D01*
X127931673Y-91058782D01*
X127934492Y-91055348D01*
X127935755Y-91052297D01*
X127942362Y-91041803D01*
X127989981Y-90946565D01*
X127998739Y-90923679D01*
X127999057Y-90919198D01*
X128000776Y-90915049D01*
X128003178Y-90890663D01*
X128003178Y-90657358D01*
X128134130Y-90670453D01*
X128134130Y-91033520D01*
X128136532Y-91057906D01*
X128155196Y-91102966D01*
X128189684Y-91137454D01*
X128234744Y-91156118D01*
X128283516Y-91156118D01*
X128328576Y-91137454D01*
X128363064Y-91102966D01*
X128381728Y-91057906D01*
X128384130Y-91033520D01*
X128384130Y-90557330D01*
X128383241Y-90548309D01*
X128383546Y-90545264D01*
X128382648Y-90542289D01*
X128381728Y-90532944D01*
X128374735Y-90516062D01*
X128369458Y-90498570D01*
X128365472Y-90493698D01*
X128363064Y-90487884D01*
X128350143Y-90474963D01*
X128338573Y-90460822D01*
X128333026Y-90457846D01*
X128328576Y-90453396D01*
X128311693Y-90446403D01*
X128295594Y-90437767D01*
X128286386Y-90435920D01*
X128283516Y-90434732D01*
X128280456Y-90434732D01*
X128271568Y-90432950D01*
X127795378Y-90385331D01*
X127770874Y-90385295D01*
X127764848Y-90387113D01*
X127758553Y-90387113D01*
X127741673Y-90394104D01*
X127724180Y-90399383D01*
X127719306Y-90403370D01*
X127713494Y-90405778D01*
X127700578Y-90418693D01*
X127686432Y-90430268D01*
X127683455Y-90435816D01*
X127679007Y-90440265D01*
X127672015Y-90457143D01*
X127663377Y-90473247D01*
X127662750Y-90479508D01*
X127660342Y-90485324D01*
X127660342Y-90503597D01*
X127658524Y-90521777D01*
X127660342Y-90527802D01*
X127660342Y-90534098D01*
X127667333Y-90550977D01*
X127672612Y-90568471D01*
X127676599Y-90573344D01*
X127679007Y-90579157D01*
X127694552Y-90598099D01*
X127727827Y-90631375D01*
X127753178Y-90682076D01*
X127753178Y-90861154D01*
X127727827Y-90911855D01*
X127708895Y-90930788D01*
X127658194Y-90956139D01*
X127479116Y-90956139D01*
X127428414Y-90930788D01*
X127409481Y-90911856D01*
X127384130Y-90861153D01*
X127384130Y-90682077D01*
X127409481Y-90631374D01*
X127442757Y-90598100D01*
X127458302Y-90579158D01*
X127476967Y-90534098D01*
X127476967Y-90485325D01*
X127458302Y-90440265D01*
X127423815Y-90405778D01*
X127378755Y-90387113D01*
X127329982Y-90387113D01*
X127284922Y-90405778D01*
X127265980Y-90421323D01*
X127218362Y-90468942D01*
X127210496Y-90478526D01*
X127208002Y-90480690D01*
X127205634Y-90484451D01*
X127202817Y-90487884D01*
X127201554Y-90490930D01*
X127194947Y-90501427D01*
X127147327Y-90596665D01*
X127138570Y-90619551D01*
X127138251Y-90624030D01*
X127136532Y-90628182D01*
X127134130Y-90652568D01*
X127009130Y-90652568D01*
X127009130Y-89557330D01*
X127134130Y-89557330D01*
X127134130Y-90128758D01*
X127136532Y-90153144D01*
X127155196Y-90198204D01*
X127189684Y-90232692D01*
X127234744Y-90251356D01*
X127283516Y-90251356D01*
X127328576Y-90232692D01*
X127363064Y-90198204D01*
X127381728Y-90153144D01*
X127384130Y-90128758D01*
X127384130Y-89968044D01*
X128259130Y-89968044D01*
X128259217Y-89968035D01*
X128259261Y-89968044D01*
X128259388Y-89968018D01*
X128283516Y-89965642D01*
X128294948Y-89960906D01*
X128307087Y-89958479D01*
X128317263Y-89951663D01*
X128328576Y-89946978D01*
X128337326Y-89938227D01*
X128347611Y-89931340D01*
X128354405Y-89921149D01*
X128363064Y-89912490D01*
X128367799Y-89901057D01*
X128374665Y-89890759D01*
X128377042Y-89878743D01*
X128381728Y-89867430D01*
X128381728Y-89855055D01*
X128384130Y-89842914D01*
X128381728Y-89830903D01*
X128381728Y-89818658D01*
X128376992Y-89807224D01*
X128374565Y-89795088D01*
X128367750Y-89784912D01*
X128363064Y-89773598D01*
X128354313Y-89764847D01*
X128347426Y-89754563D01*
X128328666Y-89739200D01*
X128328576Y-89739110D01*
X128328535Y-89739093D01*
X128328468Y-89739038D01*
X128195907Y-89650664D01*
X128123767Y-89578524D01*
X128085219Y-89501428D01*
X128072165Y-89480691D01*
X128035320Y-89448735D01*
X127989050Y-89433311D01*
X127940400Y-89436769D01*
X127896777Y-89458581D01*
X127864821Y-89495426D01*
X127849397Y-89541696D01*
X127852855Y-89590346D01*
X127861613Y-89613232D01*
X127909231Y-89708469D01*
X127915259Y-89718044D01*
X127384130Y-89718044D01*
X127384130Y-89557330D01*
X127381728Y-89532944D01*
X127363064Y-89487884D01*
X127328576Y-89453396D01*
X127283516Y-89434732D01*
X127234744Y-89434732D01*
X127189684Y-89453396D01*
X127155196Y-89487884D01*
X127136532Y-89532944D01*
X127134130Y-89557330D01*
X127009130Y-89557330D01*
X127009130Y-88843044D01*
X127134130Y-88843044D01*
X127134130Y-88938282D01*
X127136532Y-88962668D01*
X127138251Y-88966819D01*
X127138570Y-88971299D01*
X127147327Y-88994185D01*
X127194947Y-89089423D01*
X127201554Y-89099919D01*
X127202817Y-89102966D01*
X127205634Y-89106398D01*
X127208002Y-89110160D01*
X127210496Y-89112323D01*
X127218362Y-89121908D01*
X127265980Y-89169527D01*
X127275568Y-89177396D01*
X127277730Y-89179888D01*
X127281487Y-89182253D01*
X127284922Y-89185072D01*
X127287972Y-89186335D01*
X127298467Y-89192942D01*
X127393705Y-89240561D01*
X127395490Y-89241244D01*
X127396215Y-89241781D01*
X127406444Y-89245436D01*
X127416591Y-89249319D01*
X127417490Y-89249382D01*
X127419290Y-89250026D01*
X127609766Y-89297645D01*
X127613995Y-89298270D01*
X127615697Y-89298975D01*
X127624876Y-89299879D01*
X127634006Y-89301229D01*
X127635828Y-89300957D01*
X127640083Y-89301377D01*
X127878178Y-89301377D01*
X127882432Y-89300957D01*
X127884254Y-89301229D01*
X127893382Y-89299879D01*
X127902564Y-89298975D01*
X127904265Y-89298270D01*
X127908495Y-89297645D01*
X128098971Y-89250026D01*
X128100770Y-89249382D01*
X128101670Y-89249319D01*
X128111816Y-89245436D01*
X128122046Y-89241781D01*
X128122770Y-89241244D01*
X128124556Y-89240561D01*
X128219793Y-89192943D01*
X128230291Y-89186333D01*
X128233338Y-89185072D01*
X128236769Y-89182256D01*
X128240531Y-89179888D01*
X128242694Y-89177393D01*
X128252280Y-89169527D01*
X128299899Y-89121909D01*
X128307768Y-89112320D01*
X128310260Y-89110159D01*
X128312625Y-89106401D01*
X128315444Y-89102967D01*
X128316707Y-89099916D01*
X128323314Y-89089422D01*
X128370933Y-88994184D01*
X128379691Y-88971298D01*
X128380009Y-88966817D01*
X128381728Y-88962668D01*
X128384130Y-88938282D01*
X128384130Y-88843044D01*
X128381728Y-88818658D01*
X128380009Y-88814508D01*
X128379691Y-88810028D01*
X128370933Y-88787142D01*
X128323314Y-88691904D01*
X128316707Y-88681409D01*
X128315444Y-88678359D01*
X128312625Y-88674924D01*
X128310260Y-88671167D01*
X128307768Y-88669005D01*
X128299899Y-88659417D01*
X128252280Y-88611799D01*
X128242694Y-88603932D01*
X128240531Y-88601438D01*
X128236769Y-88599069D01*
X128233338Y-88596254D01*
X128230291Y-88594992D01*
X128219793Y-88588383D01*
X128124556Y-88540765D01*
X128122770Y-88540081D01*
X128122046Y-88539545D01*
X128111816Y-88535889D01*
X128101670Y-88532007D01*
X128100770Y-88531943D01*
X128098971Y-88531300D01*
X127908495Y-88483681D01*
X127904265Y-88483055D01*
X127902564Y-88482351D01*
X127893382Y-88481446D01*
X127884254Y-88480097D01*
X127882432Y-88480368D01*
X127878178Y-88479949D01*
X127640083Y-88479949D01*
X127635828Y-88480368D01*
X127634006Y-88480097D01*
X127624876Y-88481446D01*
X127615697Y-88482351D01*
X127613995Y-88483055D01*
X127609766Y-88483681D01*
X127419290Y-88531300D01*
X127417490Y-88531943D01*
X127416591Y-88532007D01*
X127406444Y-88535889D01*
X127396215Y-88539545D01*
X127395490Y-88540081D01*
X127393705Y-88540765D01*
X127298467Y-88588384D01*
X127287972Y-88594990D01*
X127284922Y-88596254D01*
X127281487Y-88599072D01*
X127277730Y-88601438D01*
X127275568Y-88603929D01*
X127265980Y-88611799D01*
X127218362Y-88659418D01*
X127210496Y-88669002D01*
X127208002Y-88671166D01*
X127205634Y-88674927D01*
X127202817Y-88678360D01*
X127201554Y-88681406D01*
X127194947Y-88691903D01*
X127147327Y-88787141D01*
X127138570Y-88810027D01*
X127138251Y-88814506D01*
X127136532Y-88818658D01*
X127134130Y-88843044D01*
X127009130Y-88843044D01*
X127009130Y-87652568D01*
X127134130Y-87652568D01*
X127134130Y-88223996D01*
X127136532Y-88248382D01*
X127155196Y-88293442D01*
X127189684Y-88327930D01*
X127234744Y-88346594D01*
X127283516Y-88346594D01*
X127328576Y-88327930D01*
X127363064Y-88293442D01*
X127381728Y-88248382D01*
X127384130Y-88223996D01*
X127384130Y-88063282D01*
X128259130Y-88063282D01*
X128259217Y-88063273D01*
X128259261Y-88063282D01*
X128259388Y-88063256D01*
X128283516Y-88060880D01*
X128294948Y-88056144D01*
X128307087Y-88053717D01*
X128317263Y-88046901D01*
X128328576Y-88042216D01*
X128337326Y-88033465D01*
X128347611Y-88026578D01*
X128354405Y-88016387D01*
X128363064Y-88007728D01*
X128367799Y-87996295D01*
X128374665Y-87985997D01*
X128377042Y-87973981D01*
X128381728Y-87962668D01*
X128381728Y-87950293D01*
X128384130Y-87938152D01*
X128381728Y-87926141D01*
X128381728Y-87913896D01*
X128376992Y-87902462D01*
X128374565Y-87890326D01*
X128367750Y-87880150D01*
X128363064Y-87868836D01*
X128354313Y-87860085D01*
X128347426Y-87849801D01*
X128328666Y-87834438D01*
X128328576Y-87834348D01*
X128328535Y-87834331D01*
X128328468Y-87834276D01*
X128195907Y-87745902D01*
X128123767Y-87673762D01*
X128085219Y-87596666D01*
X128072165Y-87575929D01*
X128035320Y-87543973D01*
X127989050Y-87528549D01*
X127940400Y-87532007D01*
X127896777Y-87553819D01*
X127864821Y-87590664D01*
X127849397Y-87636934D01*
X127852855Y-87685584D01*
X127861613Y-87708470D01*
X127909231Y-87803707D01*
X127915259Y-87813282D01*
X127384130Y-87813282D01*
X127384130Y-87652568D01*
X127381728Y-87628182D01*
X127363064Y-87583122D01*
X127328576Y-87548634D01*
X127283516Y-87529970D01*
X127234744Y-87529970D01*
X127189684Y-87548634D01*
X127155196Y-87583122D01*
X127136532Y-87628182D01*
X127134130Y-87652568D01*
X127009130Y-87652568D01*
X127009130Y-86843044D01*
X127134130Y-86843044D01*
X127134130Y-87081139D01*
X127136532Y-87105525D01*
X127138251Y-87109676D01*
X127138570Y-87114156D01*
X127147327Y-87137042D01*
X127194947Y-87232280D01*
X127201554Y-87242776D01*
X127202817Y-87245823D01*
X127205634Y-87249255D01*
X127208002Y-87253017D01*
X127210496Y-87255180D01*
X127218362Y-87264765D01*
X127265980Y-87312384D01*
X127275568Y-87320253D01*
X127277730Y-87322745D01*
X127281487Y-87325110D01*
X127284922Y-87327929D01*
X127287972Y-87329192D01*
X127298467Y-87335799D01*
X127393705Y-87383418D01*
X127416591Y-87392176D01*
X127421071Y-87392494D01*
X127425221Y-87394213D01*
X127449607Y-87396615D01*
X127687702Y-87396615D01*
X127712088Y-87394213D01*
X127716236Y-87392494D01*
X127720718Y-87392176D01*
X127743604Y-87383418D01*
X127838841Y-87335800D01*
X127849339Y-87329190D01*
X127852386Y-87327929D01*
X127855817Y-87325113D01*
X127859579Y-87322745D01*
X127861742Y-87320250D01*
X127871328Y-87312384D01*
X127918947Y-87264766D01*
X127926816Y-87255177D01*
X127929308Y-87253016D01*
X127931673Y-87249258D01*
X127934492Y-87245824D01*
X127935755Y-87242773D01*
X127942362Y-87232279D01*
X127989981Y-87137041D01*
X127998739Y-87114155D01*
X127999057Y-87109674D01*
X128000776Y-87105525D01*
X128003178Y-87081139D01*
X128003178Y-86847834D01*
X128134130Y-86860929D01*
X128134130Y-87223996D01*
X128136532Y-87248382D01*
X128155196Y-87293442D01*
X128189684Y-87327930D01*
X128234744Y-87346594D01*
X128283516Y-87346594D01*
X128328576Y-87327930D01*
X128363064Y-87293442D01*
X128381728Y-87248382D01*
X128384130Y-87223996D01*
X128384130Y-86747806D01*
X128383241Y-86738785D01*
X128383546Y-86735740D01*
X128382648Y-86732765D01*
X128381728Y-86723420D01*
X128374735Y-86706538D01*
X128369458Y-86689046D01*
X128365472Y-86684174D01*
X128363064Y-86678360D01*
X128350143Y-86665439D01*
X128338573Y-86651298D01*
X128333026Y-86648322D01*
X128328576Y-86643872D01*
X128311693Y-86636879D01*
X128295594Y-86628243D01*
X128286386Y-86626396D01*
X128283516Y-86625208D01*
X128280456Y-86625208D01*
X128271568Y-86623426D01*
X127795378Y-86575807D01*
X127770874Y-86575771D01*
X127764848Y-86577589D01*
X127758553Y-86577589D01*
X127741673Y-86584580D01*
X127724180Y-86589859D01*
X127719306Y-86593846D01*
X127713494Y-86596254D01*
X127700578Y-86609169D01*
X127686432Y-86620744D01*
X127683455Y-86626292D01*
X127679007Y-86630741D01*
X127672015Y-86647619D01*
X127663377Y-86663723D01*
X127662750Y-86669984D01*
X127660342Y-86675800D01*
X127660342Y-86694073D01*
X127658524Y-86712253D01*
X127660342Y-86718278D01*
X127660342Y-86724574D01*
X127667333Y-86741453D01*
X127672612Y-86758947D01*
X127676599Y-86763820D01*
X127679007Y-86769633D01*
X127694552Y-86788575D01*
X127727827Y-86821851D01*
X127753178Y-86872552D01*
X127753178Y-87051630D01*
X127727827Y-87102331D01*
X127708895Y-87121264D01*
X127658194Y-87146615D01*
X127479116Y-87146615D01*
X127428414Y-87121264D01*
X127409481Y-87102332D01*
X127384130Y-87051629D01*
X127384130Y-86872553D01*
X127409481Y-86821850D01*
X127442757Y-86788576D01*
X127458302Y-86769634D01*
X127476967Y-86724574D01*
X127476967Y-86675801D01*
X127458302Y-86630741D01*
X127423815Y-86596254D01*
X127378755Y-86577589D01*
X127329982Y-86577589D01*
X127284922Y-86596254D01*
X127265980Y-86611799D01*
X127218362Y-86659418D01*
X127210496Y-86669002D01*
X127208002Y-86671166D01*
X127205634Y-86674927D01*
X127202817Y-86678360D01*
X127201554Y-86681406D01*
X127194947Y-86691903D01*
X127147327Y-86787141D01*
X127138570Y-86810027D01*
X127138251Y-86814506D01*
X127136532Y-86818658D01*
X127134130Y-86843044D01*
X127009130Y-86843044D01*
X127009130Y-85700187D01*
X127134130Y-85700187D01*
X127134130Y-86319234D01*
X127136532Y-86343620D01*
X127155196Y-86388680D01*
X127189684Y-86423168D01*
X127234744Y-86441832D01*
X127283516Y-86441832D01*
X127328576Y-86423168D01*
X127363064Y-86388680D01*
X127381728Y-86343620D01*
X127384130Y-86319234D01*
X127384130Y-86001962D01*
X127742171Y-86360003D01*
X127761113Y-86375548D01*
X127765262Y-86377266D01*
X127768656Y-86380210D01*
X127791031Y-86390200D01*
X127933887Y-86437819D01*
X127945980Y-86440568D01*
X127949030Y-86441832D01*
X127953451Y-86442267D01*
X127957781Y-86443252D01*
X127961072Y-86443018D01*
X127973416Y-86444234D01*
X128068654Y-86444234D01*
X128093040Y-86441832D01*
X128097188Y-86440113D01*
X128101670Y-86439795D01*
X128124556Y-86431037D01*
X128219793Y-86383419D01*
X128230291Y-86376809D01*
X128233338Y-86375548D01*
X128236769Y-86372732D01*
X128240531Y-86370364D01*
X128242694Y-86367869D01*
X128252280Y-86360003D01*
X128299899Y-86312385D01*
X128307768Y-86302796D01*
X128310260Y-86300635D01*
X128312625Y-86296877D01*
X128315444Y-86293443D01*
X128316707Y-86290392D01*
X128323314Y-86279898D01*
X128370933Y-86184660D01*
X128379691Y-86161774D01*
X128380009Y-86157293D01*
X128381728Y-86153144D01*
X128384130Y-86128758D01*
X128384130Y-85890663D01*
X128381728Y-85866277D01*
X128380009Y-85862127D01*
X128379691Y-85857647D01*
X128370933Y-85834761D01*
X128323314Y-85739523D01*
X128316707Y-85729028D01*
X128315444Y-85725978D01*
X128312625Y-85722543D01*
X128310260Y-85718786D01*
X128307768Y-85716624D01*
X128299899Y-85707036D01*
X128252280Y-85659418D01*
X128233338Y-85643873D01*
X128188279Y-85625208D01*
X128139505Y-85625208D01*
X128094446Y-85643873D01*
X128059959Y-85678360D01*
X128041294Y-85723419D01*
X128041294Y-85772193D01*
X128059959Y-85817252D01*
X128075504Y-85836194D01*
X128108779Y-85869470D01*
X128134130Y-85920171D01*
X128134130Y-86099249D01*
X128108779Y-86149950D01*
X128089847Y-86168883D01*
X128039146Y-86194234D01*
X127993702Y-86194234D01*
X127898081Y-86162361D01*
X127347518Y-85611799D01*
X127328581Y-85596258D01*
X127328576Y-85596253D01*
X127296714Y-85583055D01*
X127283517Y-85577589D01*
X127234743Y-85577589D01*
X127221545Y-85583055D01*
X127189684Y-85596253D01*
X127155196Y-85630741D01*
X127136532Y-85675801D01*
X127134130Y-85700187D01*
X127009130Y-85700187D01*
X127009130Y-85033520D01*
X127134130Y-85033520D01*
X127134130Y-85128758D01*
X127136532Y-85153144D01*
X127138251Y-85157295D01*
X127138570Y-85161775D01*
X127147327Y-85184661D01*
X127194947Y-85279899D01*
X127201554Y-85290395D01*
X127202817Y-85293442D01*
X127205634Y-85296874D01*
X127208002Y-85300636D01*
X127210496Y-85302799D01*
X127218362Y-85312384D01*
X127265980Y-85360003D01*
X127275568Y-85367872D01*
X127277730Y-85370364D01*
X127281487Y-85372729D01*
X127284922Y-85375548D01*
X127287972Y-85376811D01*
X127298467Y-85383418D01*
X127393705Y-85431037D01*
X127395490Y-85431720D01*
X127396215Y-85432257D01*
X127406444Y-85435912D01*
X127416591Y-85439795D01*
X127417490Y-85439858D01*
X127419290Y-85440502D01*
X127609766Y-85488121D01*
X127613995Y-85488746D01*
X127615697Y-85489451D01*
X127624876Y-85490355D01*
X127634006Y-85491705D01*
X127635828Y-85491433D01*
X127640083Y-85491853D01*
X127878178Y-85491853D01*
X127882432Y-85491433D01*
X127884254Y-85491705D01*
X127893382Y-85490355D01*
X127902564Y-85489451D01*
X127904265Y-85488746D01*
X127908495Y-85488121D01*
X128098971Y-85440502D01*
X128100770Y-85439858D01*
X128101670Y-85439795D01*
X128111816Y-85435912D01*
X128122046Y-85432257D01*
X128122770Y-85431720D01*
X128124556Y-85431037D01*
X128219793Y-85383419D01*
X128230291Y-85376809D01*
X128233338Y-85375548D01*
X128236769Y-85372732D01*
X128240531Y-85370364D01*
X128242694Y-85367869D01*
X128252280Y-85360003D01*
X128299899Y-85312385D01*
X128307768Y-85302796D01*
X128310260Y-85300635D01*
X128312625Y-85296877D01*
X128315444Y-85293443D01*
X128316707Y-85290392D01*
X128323314Y-85279898D01*
X128370933Y-85184660D01*
X128379691Y-85161774D01*
X128380009Y-85157293D01*
X128381728Y-85153144D01*
X128384130Y-85128758D01*
X128384130Y-85033520D01*
X128381728Y-85009134D01*
X128380009Y-85004984D01*
X128379691Y-85000504D01*
X128370933Y-84977618D01*
X128323314Y-84882380D01*
X128316707Y-84871885D01*
X128315444Y-84868835D01*
X128312625Y-84865400D01*
X128310260Y-84861643D01*
X128307768Y-84859481D01*
X128299899Y-84849893D01*
X128252280Y-84802275D01*
X128242694Y-84794408D01*
X128240531Y-84791914D01*
X128236769Y-84789545D01*
X128233338Y-84786730D01*
X128230291Y-84785468D01*
X128219793Y-84778859D01*
X128124556Y-84731241D01*
X128122770Y-84730557D01*
X128122046Y-84730021D01*
X128111816Y-84726365D01*
X128101670Y-84722483D01*
X128100770Y-84722419D01*
X128098971Y-84721776D01*
X127908495Y-84674157D01*
X127904265Y-84673531D01*
X127902564Y-84672827D01*
X127893382Y-84671922D01*
X127884254Y-84670573D01*
X127882432Y-84670844D01*
X127878178Y-84670425D01*
X127640083Y-84670425D01*
X127635828Y-84670844D01*
X127634006Y-84670573D01*
X127624876Y-84671922D01*
X127615697Y-84672827D01*
X127613995Y-84673531D01*
X127609766Y-84674157D01*
X127419290Y-84721776D01*
X127417490Y-84722419D01*
X127416591Y-84722483D01*
X127406444Y-84726365D01*
X127396215Y-84730021D01*
X127395490Y-84730557D01*
X127393705Y-84731241D01*
X127298467Y-84778860D01*
X127287972Y-84785466D01*
X127284922Y-84786730D01*
X127281487Y-84789548D01*
X127277730Y-84791914D01*
X127275568Y-84794405D01*
X127265980Y-84802275D01*
X127218362Y-84849894D01*
X127210496Y-84859478D01*
X127208002Y-84861642D01*
X127205634Y-84865403D01*
X127202817Y-84868836D01*
X127201554Y-84871882D01*
X127194947Y-84882379D01*
X127147327Y-84977617D01*
X127138570Y-85000503D01*
X127138251Y-85004982D01*
X127136532Y-85009134D01*
X127134130Y-85033520D01*
X127009130Y-85033520D01*
X127009130Y-83795425D01*
X127134130Y-83795425D01*
X127134130Y-84414472D01*
X127136532Y-84438858D01*
X127155196Y-84483918D01*
X127189684Y-84518406D01*
X127234744Y-84537070D01*
X127283516Y-84537070D01*
X127328576Y-84518406D01*
X127363064Y-84483918D01*
X127381728Y-84438858D01*
X127384130Y-84414472D01*
X127384130Y-84097200D01*
X127742171Y-84455241D01*
X127761113Y-84470786D01*
X127765262Y-84472504D01*
X127768656Y-84475448D01*
X127791031Y-84485438D01*
X127933887Y-84533057D01*
X127945980Y-84535806D01*
X127949030Y-84537070D01*
X127953451Y-84537505D01*
X127957781Y-84538490D01*
X127961072Y-84538256D01*
X127973416Y-84539472D01*
X128068654Y-84539472D01*
X128093040Y-84537070D01*
X128097188Y-84535351D01*
X128101670Y-84535033D01*
X128124556Y-84526275D01*
X128219793Y-84478657D01*
X128230291Y-84472047D01*
X128233338Y-84470786D01*
X128236769Y-84467970D01*
X128240531Y-84465602D01*
X128242694Y-84463107D01*
X128252280Y-84455241D01*
X128299899Y-84407623D01*
X128307768Y-84398034D01*
X128310260Y-84395873D01*
X128312625Y-84392115D01*
X128315444Y-84388681D01*
X128316707Y-84385630D01*
X128323314Y-84375136D01*
X128370933Y-84279898D01*
X128379691Y-84257012D01*
X128380009Y-84252531D01*
X128381728Y-84248382D01*
X128384130Y-84223996D01*
X128384130Y-83985901D01*
X128381728Y-83961515D01*
X128380009Y-83957365D01*
X128379691Y-83952885D01*
X128370933Y-83929999D01*
X128323314Y-83834761D01*
X128316707Y-83824266D01*
X128315444Y-83821216D01*
X128312625Y-83817781D01*
X128310260Y-83814024D01*
X128307768Y-83811862D01*
X128299899Y-83802274D01*
X128252280Y-83754656D01*
X128233338Y-83739111D01*
X128188279Y-83720446D01*
X128139505Y-83720446D01*
X128094446Y-83739111D01*
X128059959Y-83773598D01*
X128041294Y-83818657D01*
X128041294Y-83867431D01*
X128059959Y-83912490D01*
X128075504Y-83931432D01*
X128108779Y-83964708D01*
X128134130Y-84015409D01*
X128134130Y-84194487D01*
X128108779Y-84245188D01*
X128089847Y-84264121D01*
X128039146Y-84289472D01*
X127993702Y-84289472D01*
X127898081Y-84257599D01*
X127347518Y-83707037D01*
X127328581Y-83691496D01*
X127328576Y-83691491D01*
X127296714Y-83678293D01*
X127283517Y-83672827D01*
X127234743Y-83672827D01*
X127221545Y-83678293D01*
X127189684Y-83691491D01*
X127155196Y-83725979D01*
X127136532Y-83771039D01*
X127134130Y-83795425D01*
X127009130Y-83795425D01*
X127009130Y-83390085D01*
X127136532Y-83390085D01*
X127136532Y-83390086D01*
X127136533Y-83390086D01*
X127136532Y-83390088D01*
X127136532Y-83438861D01*
X127143318Y-83455242D01*
X127155196Y-83483919D01*
X127155197Y-83483920D01*
X127170743Y-83502862D01*
X127218362Y-83550481D01*
X127237305Y-83566026D01*
X127263699Y-83576958D01*
X127282363Y-83584690D01*
X127282364Y-83584690D01*
X127331138Y-83584690D01*
X127376197Y-83566025D01*
X127376201Y-83566020D01*
X127395138Y-83550480D01*
X127442757Y-83502862D01*
X127458302Y-83483920D01*
X127458303Y-83483919D01*
X127470181Y-83455242D01*
X127476967Y-83438860D01*
X127476967Y-83390087D01*
X127476967Y-83390085D01*
X127458303Y-83345028D01*
X127458303Y-83345027D01*
X127458302Y-83345026D01*
X127442757Y-83326084D01*
X127395138Y-83278466D01*
X127376201Y-83262925D01*
X127376197Y-83262921D01*
X127331138Y-83244256D01*
X127331137Y-83244256D01*
X127282363Y-83244256D01*
X127263699Y-83251987D01*
X127237305Y-83262920D01*
X127218362Y-83278465D01*
X127170743Y-83326084D01*
X127155197Y-83345026D01*
X127155196Y-83345027D01*
X127155196Y-83345028D01*
X127136532Y-83390085D01*
X127009130Y-83390085D01*
X127009130Y-82732172D01*
X127135112Y-82732172D01*
X127136222Y-82747806D01*
X127135112Y-82763440D01*
X127137935Y-82771911D01*
X127138569Y-82780821D01*
X127145579Y-82794841D01*
X127150535Y-82809709D01*
X127156385Y-82816455D01*
X127160381Y-82824446D01*
X127172221Y-82834714D01*
X127182490Y-82846555D01*
X127190480Y-82850550D01*
X127197227Y-82856401D01*
X127219602Y-82866391D01*
X128219601Y-83199724D01*
X128243495Y-83205157D01*
X128292145Y-83201700D01*
X128335769Y-83179888D01*
X128367725Y-83143042D01*
X128383148Y-83096773D01*
X128379691Y-83048123D01*
X128357879Y-83004499D01*
X128321033Y-82972544D01*
X128298658Y-82962553D01*
X127654414Y-82747806D01*
X128298658Y-82533059D01*
X128321033Y-82523068D01*
X128357879Y-82491113D01*
X128379691Y-82447489D01*
X128383148Y-82398839D01*
X128367725Y-82352570D01*
X128335769Y-82315724D01*
X128292145Y-82293912D01*
X128243495Y-82290455D01*
X128219601Y-82295888D01*
X127219602Y-82629221D01*
X127197227Y-82639211D01*
X127190480Y-82645061D01*
X127182490Y-82649057D01*
X127172221Y-82660897D01*
X127160381Y-82671166D01*
X127156385Y-82679156D01*
X127150535Y-82685903D01*
X127145579Y-82700770D01*
X127138569Y-82714791D01*
X127137935Y-82723700D01*
X127135112Y-82732172D01*
X127009130Y-82732172D01*
X127009130Y-81652568D01*
X127134130Y-81652568D01*
X127134130Y-82128758D01*
X127136532Y-82153144D01*
X127155196Y-82198204D01*
X127189684Y-82232692D01*
X127234744Y-82251356D01*
X127283516Y-82251356D01*
X127328576Y-82232692D01*
X127363064Y-82198204D01*
X127381728Y-82153144D01*
X127384130Y-82128758D01*
X127384130Y-81777568D01*
X127657940Y-81777568D01*
X127657940Y-81985901D01*
X127660342Y-82010287D01*
X127679006Y-82055347D01*
X127713494Y-82089835D01*
X127758554Y-82108499D01*
X127807326Y-82108499D01*
X127852386Y-82089835D01*
X127886874Y-82055347D01*
X127905538Y-82010287D01*
X127907940Y-81985901D01*
X127907940Y-81777568D01*
X128134130Y-81777568D01*
X128134130Y-82128758D01*
X128136532Y-82153144D01*
X128155196Y-82198204D01*
X128189684Y-82232692D01*
X128234744Y-82251356D01*
X128283516Y-82251356D01*
X128328576Y-82232692D01*
X128363064Y-82198204D01*
X128381728Y-82153144D01*
X128384130Y-82128758D01*
X128384130Y-81652568D01*
X128381728Y-81628182D01*
X128363064Y-81583122D01*
X128328576Y-81548634D01*
X128283516Y-81529970D01*
X128259130Y-81527568D01*
X127259130Y-81527568D01*
X127234744Y-81529970D01*
X127189684Y-81548634D01*
X127155196Y-81583122D01*
X127136532Y-81628182D01*
X127134130Y-81652568D01*
X127009130Y-81652568D01*
X127009130Y-81226706D01*
X127134159Y-81226706D01*
X127144709Y-81274323D01*
X127172678Y-81314279D01*
X127213809Y-81340491D01*
X127261840Y-81348967D01*
X127309457Y-81338417D01*
X127330813Y-81326400D01*
X127635401Y-81113188D01*
X127671136Y-81184659D01*
X127677745Y-81195157D01*
X127679007Y-81198204D01*
X127681822Y-81201635D01*
X127684191Y-81205397D01*
X127686685Y-81207560D01*
X127694552Y-81217146D01*
X127742170Y-81264765D01*
X127751758Y-81272634D01*
X127753920Y-81275126D01*
X127757677Y-81277491D01*
X127761112Y-81280310D01*
X127764162Y-81281573D01*
X127774657Y-81288180D01*
X127869895Y-81335799D01*
X127892781Y-81344557D01*
X127897261Y-81344875D01*
X127901411Y-81346594D01*
X127925797Y-81348996D01*
X128068654Y-81348996D01*
X128093040Y-81346594D01*
X128097188Y-81344875D01*
X128101670Y-81344557D01*
X128124556Y-81335799D01*
X128219793Y-81288181D01*
X128230291Y-81281571D01*
X128233338Y-81280310D01*
X128236769Y-81277494D01*
X128240531Y-81275126D01*
X128242694Y-81272631D01*
X128252280Y-81264765D01*
X128299899Y-81217147D01*
X128307768Y-81207558D01*
X128310260Y-81205397D01*
X128312625Y-81201639D01*
X128315444Y-81198205D01*
X128316707Y-81195154D01*
X128323314Y-81184660D01*
X128370933Y-81089422D01*
X128379691Y-81066536D01*
X128380009Y-81062055D01*
X128381728Y-81057906D01*
X128384130Y-81033520D01*
X128384130Y-80652568D01*
X128381728Y-80628182D01*
X128363064Y-80583122D01*
X128328576Y-80548634D01*
X128283516Y-80529970D01*
X128259130Y-80527568D01*
X127259130Y-80527568D01*
X127234744Y-80529970D01*
X127189684Y-80548634D01*
X127155196Y-80583122D01*
X127136532Y-80628182D01*
X127136532Y-80676954D01*
X127155196Y-80722014D01*
X127189684Y-80756502D01*
X127234744Y-80775166D01*
X127259130Y-80777568D01*
X127610321Y-80777568D01*
X127610321Y-80825580D01*
X127187447Y-81121592D01*
X127168847Y-81137544D01*
X127142635Y-81178675D01*
X127134159Y-81226706D01*
X127009130Y-81226706D01*
X127009130Y-80402568D01*
X128509130Y-80402568D01*
X128509130Y-91331139D01*
G37*
D11*
X110739398Y-93596271D02*
X111139398Y-93596271D01*
X111139398Y-93596271D02*
X110739398Y-94196271D01*
X110739398Y-94196271D02*
X111139398Y-94196271D01*
D10*
X99468720Y-109388897D02*
X99583006Y-109426992D01*
X99583006Y-109426992D02*
X99621101Y-109465088D01*
X99621101Y-109465088D02*
X99659197Y-109541278D01*
X99659197Y-109541278D02*
X99659197Y-109655564D01*
X99659197Y-109655564D02*
X99621101Y-109731754D01*
X99621101Y-109731754D02*
X99583006Y-109769850D01*
X99583006Y-109769850D02*
X99506816Y-109807945D01*
X99506816Y-109807945D02*
X99202054Y-109807945D01*
X99202054Y-109807945D02*
X99202054Y-109007945D01*
X99202054Y-109007945D02*
X99468720Y-109007945D01*
X99468720Y-109007945D02*
X99544911Y-109046040D01*
X99544911Y-109046040D02*
X99583006Y-109084135D01*
X99583006Y-109084135D02*
X99621101Y-109160326D01*
X99621101Y-109160326D02*
X99621101Y-109236516D01*
X99621101Y-109236516D02*
X99583006Y-109312707D01*
X99583006Y-109312707D02*
X99544911Y-109350802D01*
X99544911Y-109350802D02*
X99468720Y-109388897D01*
X99468720Y-109388897D02*
X99202054Y-109388897D01*
X100154435Y-109007945D02*
X100306816Y-109007945D01*
X100306816Y-109007945D02*
X100383006Y-109046040D01*
X100383006Y-109046040D02*
X100459197Y-109122230D01*
X100459197Y-109122230D02*
X100497292Y-109274611D01*
X100497292Y-109274611D02*
X100497292Y-109541278D01*
X100497292Y-109541278D02*
X100459197Y-109693659D01*
X100459197Y-109693659D02*
X100383006Y-109769850D01*
X100383006Y-109769850D02*
X100306816Y-109807945D01*
X100306816Y-109807945D02*
X100154435Y-109807945D01*
X100154435Y-109807945D02*
X100078244Y-109769850D01*
X100078244Y-109769850D02*
X100002054Y-109693659D01*
X100002054Y-109693659D02*
X99963958Y-109541278D01*
X99963958Y-109541278D02*
X99963958Y-109274611D01*
X99963958Y-109274611D02*
X100002054Y-109122230D01*
X100002054Y-109122230D02*
X100078244Y-109046040D01*
X100078244Y-109046040D02*
X100154435Y-109007945D01*
X100992530Y-109007945D02*
X101144911Y-109007945D01*
X101144911Y-109007945D02*
X101221101Y-109046040D01*
X101221101Y-109046040D02*
X101297292Y-109122230D01*
X101297292Y-109122230D02*
X101335387Y-109274611D01*
X101335387Y-109274611D02*
X101335387Y-109541278D01*
X101335387Y-109541278D02*
X101297292Y-109693659D01*
X101297292Y-109693659D02*
X101221101Y-109769850D01*
X101221101Y-109769850D02*
X101144911Y-109807945D01*
X101144911Y-109807945D02*
X100992530Y-109807945D01*
X100992530Y-109807945D02*
X100916339Y-109769850D01*
X100916339Y-109769850D02*
X100840149Y-109693659D01*
X100840149Y-109693659D02*
X100802053Y-109541278D01*
X100802053Y-109541278D02*
X100802053Y-109274611D01*
X100802053Y-109274611D02*
X100840149Y-109122230D01*
X100840149Y-109122230D02*
X100916339Y-109046040D01*
X100916339Y-109046040D02*
X100992530Y-109007945D01*
X101563958Y-109007945D02*
X102021101Y-109007945D01*
X101792529Y-109807945D02*
X101792529Y-109007945D01*
X102706815Y-109807945D02*
X102249672Y-109807945D01*
X102478244Y-109807945D02*
X102478244Y-109007945D01*
X102478244Y-109007945D02*
X102402053Y-109122230D01*
X102402053Y-109122230D02*
X102325863Y-109198421D01*
X102325863Y-109198421D02*
X102249672Y-109236516D01*
D11*
X114415000Y-94007271D02*
X114815000Y-94607271D01*
X114815000Y-94007271D02*
X114415000Y-94607271D01*
X73579915Y-75652390D02*
X73503725Y-75614295D01*
X73503725Y-75614295D02*
X73389439Y-75614295D01*
X73389439Y-75614295D02*
X73275153Y-75652390D01*
X73275153Y-75652390D02*
X73198963Y-75728580D01*
X73198963Y-75728580D02*
X73160868Y-75804771D01*
X73160868Y-75804771D02*
X73122772Y-75957152D01*
X73122772Y-75957152D02*
X73122772Y-76071438D01*
X73122772Y-76071438D02*
X73160868Y-76223819D01*
X73160868Y-76223819D02*
X73198963Y-76300009D01*
X73198963Y-76300009D02*
X73275153Y-76376200D01*
X73275153Y-76376200D02*
X73389439Y-76414295D01*
X73389439Y-76414295D02*
X73465630Y-76414295D01*
X73465630Y-76414295D02*
X73579915Y-76376200D01*
X73579915Y-76376200D02*
X73618011Y-76338104D01*
X73618011Y-76338104D02*
X73618011Y-76071438D01*
X73618011Y-76071438D02*
X73465630Y-76071438D01*
X73960868Y-76414295D02*
X73960868Y-75614295D01*
X73960868Y-75614295D02*
X74418011Y-76414295D01*
X74418011Y-76414295D02*
X74418011Y-75614295D01*
X74798963Y-76414295D02*
X74798963Y-75614295D01*
X74798963Y-75614295D02*
X74989439Y-75614295D01*
X74989439Y-75614295D02*
X75103725Y-75652390D01*
X75103725Y-75652390D02*
X75179915Y-75728580D01*
X75179915Y-75728580D02*
X75218010Y-75804771D01*
X75218010Y-75804771D02*
X75256106Y-75957152D01*
X75256106Y-75957152D02*
X75256106Y-76071438D01*
X75256106Y-76071438D02*
X75218010Y-76223819D01*
X75218010Y-76223819D02*
X75179915Y-76300009D01*
X75179915Y-76300009D02*
X75103725Y-76376200D01*
X75103725Y-76376200D02*
X74989439Y-76414295D01*
X74989439Y-76414295D02*
X74798963Y-76414295D01*
X76132296Y-75614295D02*
X76627534Y-75614295D01*
X76627534Y-75614295D02*
X76360868Y-75919057D01*
X76360868Y-75919057D02*
X76475153Y-75919057D01*
X76475153Y-75919057D02*
X76551344Y-75957152D01*
X76551344Y-75957152D02*
X76589439Y-75995247D01*
X76589439Y-75995247D02*
X76627534Y-76071438D01*
X76627534Y-76071438D02*
X76627534Y-76261914D01*
X76627534Y-76261914D02*
X76589439Y-76338104D01*
X76589439Y-76338104D02*
X76551344Y-76376200D01*
X76551344Y-76376200D02*
X76475153Y-76414295D01*
X76475153Y-76414295D02*
X76246582Y-76414295D01*
X76246582Y-76414295D02*
X76170391Y-76376200D01*
X76170391Y-76376200D02*
X76132296Y-76338104D01*
X76856106Y-75614295D02*
X77122773Y-76414295D01*
X77122773Y-76414295D02*
X77389439Y-75614295D01*
X77579915Y-75614295D02*
X78075153Y-75614295D01*
X78075153Y-75614295D02*
X77808487Y-75919057D01*
X77808487Y-75919057D02*
X77922772Y-75919057D01*
X77922772Y-75919057D02*
X77998963Y-75957152D01*
X77998963Y-75957152D02*
X78037058Y-75995247D01*
X78037058Y-75995247D02*
X78075153Y-76071438D01*
X78075153Y-76071438D02*
X78075153Y-76261914D01*
X78075153Y-76261914D02*
X78037058Y-76338104D01*
X78037058Y-76338104D02*
X77998963Y-76376200D01*
X77998963Y-76376200D02*
X77922772Y-76414295D01*
X77922772Y-76414295D02*
X77694201Y-76414295D01*
X77694201Y-76414295D02*
X77618010Y-76376200D01*
X77618010Y-76376200D02*
X77579915Y-76338104D01*
X78989439Y-76376200D02*
X79103725Y-76414295D01*
X79103725Y-76414295D02*
X79294201Y-76414295D01*
X79294201Y-76414295D02*
X79370392Y-76376200D01*
X79370392Y-76376200D02*
X79408487Y-76338104D01*
X79408487Y-76338104D02*
X79446582Y-76261914D01*
X79446582Y-76261914D02*
X79446582Y-76185723D01*
X79446582Y-76185723D02*
X79408487Y-76109533D01*
X79408487Y-76109533D02*
X79370392Y-76071438D01*
X79370392Y-76071438D02*
X79294201Y-76033342D01*
X79294201Y-76033342D02*
X79141820Y-75995247D01*
X79141820Y-75995247D02*
X79065630Y-75957152D01*
X79065630Y-75957152D02*
X79027535Y-75919057D01*
X79027535Y-75919057D02*
X78989439Y-75842866D01*
X78989439Y-75842866D02*
X78989439Y-75766676D01*
X78989439Y-75766676D02*
X79027535Y-75690485D01*
X79027535Y-75690485D02*
X79065630Y-75652390D01*
X79065630Y-75652390D02*
X79141820Y-75614295D01*
X79141820Y-75614295D02*
X79332297Y-75614295D01*
X79332297Y-75614295D02*
X79446582Y-75652390D01*
X80246583Y-76338104D02*
X80208487Y-76376200D01*
X80208487Y-76376200D02*
X80094202Y-76414295D01*
X80094202Y-76414295D02*
X80018011Y-76414295D01*
X80018011Y-76414295D02*
X79903725Y-76376200D01*
X79903725Y-76376200D02*
X79827535Y-76300009D01*
X79827535Y-76300009D02*
X79789440Y-76223819D01*
X79789440Y-76223819D02*
X79751344Y-76071438D01*
X79751344Y-76071438D02*
X79751344Y-75957152D01*
X79751344Y-75957152D02*
X79789440Y-75804771D01*
X79789440Y-75804771D02*
X79827535Y-75728580D01*
X79827535Y-75728580D02*
X79903725Y-75652390D01*
X79903725Y-75652390D02*
X80018011Y-75614295D01*
X80018011Y-75614295D02*
X80094202Y-75614295D01*
X80094202Y-75614295D02*
X80208487Y-75652390D01*
X80208487Y-75652390D02*
X80246583Y-75690485D01*
X80970392Y-76414295D02*
X80589440Y-76414295D01*
X80589440Y-76414295D02*
X80589440Y-75614295D01*
X81808487Y-76376200D02*
X81922773Y-76414295D01*
X81922773Y-76414295D02*
X82113249Y-76414295D01*
X82113249Y-76414295D02*
X82189440Y-76376200D01*
X82189440Y-76376200D02*
X82227535Y-76338104D01*
X82227535Y-76338104D02*
X82265630Y-76261914D01*
X82265630Y-76261914D02*
X82265630Y-76185723D01*
X82265630Y-76185723D02*
X82227535Y-76109533D01*
X82227535Y-76109533D02*
X82189440Y-76071438D01*
X82189440Y-76071438D02*
X82113249Y-76033342D01*
X82113249Y-76033342D02*
X81960868Y-75995247D01*
X81960868Y-75995247D02*
X81884678Y-75957152D01*
X81884678Y-75957152D02*
X81846583Y-75919057D01*
X81846583Y-75919057D02*
X81808487Y-75842866D01*
X81808487Y-75842866D02*
X81808487Y-75766676D01*
X81808487Y-75766676D02*
X81846583Y-75690485D01*
X81846583Y-75690485D02*
X81884678Y-75652390D01*
X81884678Y-75652390D02*
X81960868Y-75614295D01*
X81960868Y-75614295D02*
X82151345Y-75614295D01*
X82151345Y-75614295D02*
X82265630Y-75652390D01*
X82608488Y-76414295D02*
X82608488Y-75614295D01*
X82608488Y-75614295D02*
X82798964Y-75614295D01*
X82798964Y-75614295D02*
X82913250Y-75652390D01*
X82913250Y-75652390D02*
X82989440Y-75728580D01*
X82989440Y-75728580D02*
X83027535Y-75804771D01*
X83027535Y-75804771D02*
X83065631Y-75957152D01*
X83065631Y-75957152D02*
X83065631Y-76071438D01*
X83065631Y-76071438D02*
X83027535Y-76223819D01*
X83027535Y-76223819D02*
X82989440Y-76300009D01*
X82989440Y-76300009D02*
X82913250Y-76376200D01*
X82913250Y-76376200D02*
X82798964Y-76414295D01*
X82798964Y-76414295D02*
X82608488Y-76414295D01*
X83370392Y-76185723D02*
X83751345Y-76185723D01*
X83294202Y-76414295D02*
X83560869Y-75614295D01*
X83560869Y-75614295D02*
X83827535Y-76414295D01*
D10*
X109908720Y-109388897D02*
X110023006Y-109426992D01*
X110023006Y-109426992D02*
X110061101Y-109465088D01*
X110061101Y-109465088D02*
X110099197Y-109541278D01*
X110099197Y-109541278D02*
X110099197Y-109655564D01*
X110099197Y-109655564D02*
X110061101Y-109731754D01*
X110061101Y-109731754D02*
X110023006Y-109769850D01*
X110023006Y-109769850D02*
X109946816Y-109807945D01*
X109946816Y-109807945D02*
X109642054Y-109807945D01*
X109642054Y-109807945D02*
X109642054Y-109007945D01*
X109642054Y-109007945D02*
X109908720Y-109007945D01*
X109908720Y-109007945D02*
X109984911Y-109046040D01*
X109984911Y-109046040D02*
X110023006Y-109084135D01*
X110023006Y-109084135D02*
X110061101Y-109160326D01*
X110061101Y-109160326D02*
X110061101Y-109236516D01*
X110061101Y-109236516D02*
X110023006Y-109312707D01*
X110023006Y-109312707D02*
X109984911Y-109350802D01*
X109984911Y-109350802D02*
X109908720Y-109388897D01*
X109908720Y-109388897D02*
X109642054Y-109388897D01*
X110594435Y-109007945D02*
X110746816Y-109007945D01*
X110746816Y-109007945D02*
X110823006Y-109046040D01*
X110823006Y-109046040D02*
X110899197Y-109122230D01*
X110899197Y-109122230D02*
X110937292Y-109274611D01*
X110937292Y-109274611D02*
X110937292Y-109541278D01*
X110937292Y-109541278D02*
X110899197Y-109693659D01*
X110899197Y-109693659D02*
X110823006Y-109769850D01*
X110823006Y-109769850D02*
X110746816Y-109807945D01*
X110746816Y-109807945D02*
X110594435Y-109807945D01*
X110594435Y-109807945D02*
X110518244Y-109769850D01*
X110518244Y-109769850D02*
X110442054Y-109693659D01*
X110442054Y-109693659D02*
X110403958Y-109541278D01*
X110403958Y-109541278D02*
X110403958Y-109274611D01*
X110403958Y-109274611D02*
X110442054Y-109122230D01*
X110442054Y-109122230D02*
X110518244Y-109046040D01*
X110518244Y-109046040D02*
X110594435Y-109007945D01*
X111432530Y-109007945D02*
X111584911Y-109007945D01*
X111584911Y-109007945D02*
X111661101Y-109046040D01*
X111661101Y-109046040D02*
X111737292Y-109122230D01*
X111737292Y-109122230D02*
X111775387Y-109274611D01*
X111775387Y-109274611D02*
X111775387Y-109541278D01*
X111775387Y-109541278D02*
X111737292Y-109693659D01*
X111737292Y-109693659D02*
X111661101Y-109769850D01*
X111661101Y-109769850D02*
X111584911Y-109807945D01*
X111584911Y-109807945D02*
X111432530Y-109807945D01*
X111432530Y-109807945D02*
X111356339Y-109769850D01*
X111356339Y-109769850D02*
X111280149Y-109693659D01*
X111280149Y-109693659D02*
X111242053Y-109541278D01*
X111242053Y-109541278D02*
X111242053Y-109274611D01*
X111242053Y-109274611D02*
X111280149Y-109122230D01*
X111280149Y-109122230D02*
X111356339Y-109046040D01*
X111356339Y-109046040D02*
X111432530Y-109007945D01*
X112003958Y-109007945D02*
X112461101Y-109007945D01*
X112232529Y-109807945D02*
X112232529Y-109007945D01*
X112880149Y-109007945D02*
X112956339Y-109007945D01*
X112956339Y-109007945D02*
X113032530Y-109046040D01*
X113032530Y-109046040D02*
X113070625Y-109084135D01*
X113070625Y-109084135D02*
X113108720Y-109160326D01*
X113108720Y-109160326D02*
X113146815Y-109312707D01*
X113146815Y-109312707D02*
X113146815Y-109503183D01*
X113146815Y-109503183D02*
X113108720Y-109655564D01*
X113108720Y-109655564D02*
X113070625Y-109731754D01*
X113070625Y-109731754D02*
X113032530Y-109769850D01*
X113032530Y-109769850D02*
X112956339Y-109807945D01*
X112956339Y-109807945D02*
X112880149Y-109807945D01*
X112880149Y-109807945D02*
X112803958Y-109769850D01*
X112803958Y-109769850D02*
X112765863Y-109731754D01*
X112765863Y-109731754D02*
X112727768Y-109655564D01*
X112727768Y-109655564D02*
X112689672Y-109503183D01*
X112689672Y-109503183D02*
X112689672Y-109312707D01*
X112689672Y-109312707D02*
X112727768Y-109160326D01*
X112727768Y-109160326D02*
X112765863Y-109084135D01*
X112765863Y-109084135D02*
X112803958Y-109046040D01*
X112803958Y-109046040D02*
X112880149Y-109007945D01*
D11*
X124835000Y-92382628D02*
X124806428Y-92411200D01*
X124806428Y-92411200D02*
X124720714Y-92439771D01*
X124720714Y-92439771D02*
X124663571Y-92439771D01*
X124663571Y-92439771D02*
X124577857Y-92411200D01*
X124577857Y-92411200D02*
X124520714Y-92354057D01*
X124520714Y-92354057D02*
X124492143Y-92296914D01*
X124492143Y-92296914D02*
X124463571Y-92182628D01*
X124463571Y-92182628D02*
X124463571Y-92096914D01*
X124463571Y-92096914D02*
X124492143Y-91982628D01*
X124492143Y-91982628D02*
X124520714Y-91925485D01*
X124520714Y-91925485D02*
X124577857Y-91868342D01*
X124577857Y-91868342D02*
X124663571Y-91839771D01*
X124663571Y-91839771D02*
X124720714Y-91839771D01*
X124720714Y-91839771D02*
X124806428Y-91868342D01*
X124806428Y-91868342D02*
X124835000Y-91896914D01*
X125349286Y-91839771D02*
X125235000Y-91839771D01*
X125235000Y-91839771D02*
X125177857Y-91868342D01*
X125177857Y-91868342D02*
X125149286Y-91896914D01*
X125149286Y-91896914D02*
X125092143Y-91982628D01*
X125092143Y-91982628D02*
X125063571Y-92096914D01*
X125063571Y-92096914D02*
X125063571Y-92325485D01*
X125063571Y-92325485D02*
X125092143Y-92382628D01*
X125092143Y-92382628D02*
X125120714Y-92411200D01*
X125120714Y-92411200D02*
X125177857Y-92439771D01*
X125177857Y-92439771D02*
X125292143Y-92439771D01*
X125292143Y-92439771D02*
X125349286Y-92411200D01*
X125349286Y-92411200D02*
X125377857Y-92382628D01*
X125377857Y-92382628D02*
X125406428Y-92325485D01*
X125406428Y-92325485D02*
X125406428Y-92182628D01*
X125406428Y-92182628D02*
X125377857Y-92125485D01*
X125377857Y-92125485D02*
X125349286Y-92096914D01*
X125349286Y-92096914D02*
X125292143Y-92068342D01*
X125292143Y-92068342D02*
X125177857Y-92068342D01*
X125177857Y-92068342D02*
X125120714Y-92096914D01*
X125120714Y-92096914D02*
X125092143Y-92125485D01*
X125092143Y-92125485D02*
X125063571Y-92182628D01*
X95659999Y-109209771D02*
X95659999Y-109638342D01*
X95659999Y-109638342D02*
X95631428Y-109724057D01*
X95631428Y-109724057D02*
X95574285Y-109781200D01*
X95574285Y-109781200D02*
X95488571Y-109809771D01*
X95488571Y-109809771D02*
X95431428Y-109809771D01*
X95888571Y-109209771D02*
X96259999Y-109209771D01*
X96259999Y-109209771D02*
X96059999Y-109438342D01*
X96059999Y-109438342D02*
X96145714Y-109438342D01*
X96145714Y-109438342D02*
X96202857Y-109466914D01*
X96202857Y-109466914D02*
X96231428Y-109495485D01*
X96231428Y-109495485D02*
X96259999Y-109552628D01*
X96259999Y-109552628D02*
X96259999Y-109695485D01*
X96259999Y-109695485D02*
X96231428Y-109752628D01*
X96231428Y-109752628D02*
X96202857Y-109781200D01*
X96202857Y-109781200D02*
X96145714Y-109809771D01*
X96145714Y-109809771D02*
X95974285Y-109809771D01*
X95974285Y-109809771D02*
X95917142Y-109781200D01*
X95917142Y-109781200D02*
X95888571Y-109752628D01*
X106049999Y-109209771D02*
X106049999Y-109638342D01*
X106049999Y-109638342D02*
X106021428Y-109724057D01*
X106021428Y-109724057D02*
X105964285Y-109781200D01*
X105964285Y-109781200D02*
X105878571Y-109809771D01*
X105878571Y-109809771D02*
X105821428Y-109809771D01*
X106592857Y-109409771D02*
X106592857Y-109809771D01*
X106449999Y-109181200D02*
X106307142Y-109609771D01*
X106307142Y-109609771D02*
X106678571Y-109609771D01*
X119020000Y-96269771D02*
X118734286Y-96269771D01*
X118734286Y-96269771D02*
X118734286Y-95669771D01*
X119534285Y-96269771D02*
X119191428Y-96269771D01*
X119362857Y-96269771D02*
X119362857Y-95669771D01*
X119362857Y-95669771D02*
X119305714Y-95755485D01*
X119305714Y-95755485D02*
X119248571Y-95812628D01*
X119248571Y-95812628D02*
X119191428Y-95841200D01*
X74510000Y-97389771D02*
X74310000Y-97104057D01*
X74167143Y-97389771D02*
X74167143Y-96789771D01*
X74167143Y-96789771D02*
X74395714Y-96789771D01*
X74395714Y-96789771D02*
X74452857Y-96818342D01*
X74452857Y-96818342D02*
X74481428Y-96846914D01*
X74481428Y-96846914D02*
X74510000Y-96904057D01*
X74510000Y-96904057D02*
X74510000Y-96989771D01*
X74510000Y-96989771D02*
X74481428Y-97046914D01*
X74481428Y-97046914D02*
X74452857Y-97075485D01*
X74452857Y-97075485D02*
X74395714Y-97104057D01*
X74395714Y-97104057D02*
X74167143Y-97104057D01*
X75081428Y-97389771D02*
X74738571Y-97389771D01*
X74910000Y-97389771D02*
X74910000Y-96789771D01*
X74910000Y-96789771D02*
X74852857Y-96875485D01*
X74852857Y-96875485D02*
X74795714Y-96932628D01*
X74795714Y-96932628D02*
X74738571Y-96961200D01*
X74510000Y-98219771D02*
X74310000Y-97934057D01*
X74167143Y-98219771D02*
X74167143Y-97619771D01*
X74167143Y-97619771D02*
X74395714Y-97619771D01*
X74395714Y-97619771D02*
X74452857Y-97648342D01*
X74452857Y-97648342D02*
X74481428Y-97676914D01*
X74481428Y-97676914D02*
X74510000Y-97734057D01*
X74510000Y-97734057D02*
X74510000Y-97819771D01*
X74510000Y-97819771D02*
X74481428Y-97876914D01*
X74481428Y-97876914D02*
X74452857Y-97905485D01*
X74452857Y-97905485D02*
X74395714Y-97934057D01*
X74395714Y-97934057D02*
X74167143Y-97934057D01*
X74738571Y-97676914D02*
X74767143Y-97648342D01*
X74767143Y-97648342D02*
X74824286Y-97619771D01*
X74824286Y-97619771D02*
X74967143Y-97619771D01*
X74967143Y-97619771D02*
X75024286Y-97648342D01*
X75024286Y-97648342D02*
X75052857Y-97676914D01*
X75052857Y-97676914D02*
X75081428Y-97734057D01*
X75081428Y-97734057D02*
X75081428Y-97791200D01*
X75081428Y-97791200D02*
X75052857Y-97876914D01*
X75052857Y-97876914D02*
X74710000Y-98219771D01*
X74710000Y-98219771D02*
X75081428Y-98219771D01*
X88544285Y-111109771D02*
X88344285Y-110824057D01*
X88201428Y-111109771D02*
X88201428Y-110509771D01*
X88201428Y-110509771D02*
X88429999Y-110509771D01*
X88429999Y-110509771D02*
X88487142Y-110538342D01*
X88487142Y-110538342D02*
X88515713Y-110566914D01*
X88515713Y-110566914D02*
X88544285Y-110624057D01*
X88544285Y-110624057D02*
X88544285Y-110709771D01*
X88544285Y-110709771D02*
X88515713Y-110766914D01*
X88515713Y-110766914D02*
X88487142Y-110795485D01*
X88487142Y-110795485D02*
X88429999Y-110824057D01*
X88429999Y-110824057D02*
X88201428Y-110824057D01*
X89115713Y-111109771D02*
X88772856Y-111109771D01*
X88944285Y-111109771D02*
X88944285Y-110509771D01*
X88944285Y-110509771D02*
X88887142Y-110595485D01*
X88887142Y-110595485D02*
X88829999Y-110652628D01*
X88829999Y-110652628D02*
X88772856Y-110681200D01*
X89344285Y-110566914D02*
X89372857Y-110538342D01*
X89372857Y-110538342D02*
X89430000Y-110509771D01*
X89430000Y-110509771D02*
X89572857Y-110509771D01*
X89572857Y-110509771D02*
X89630000Y-110538342D01*
X89630000Y-110538342D02*
X89658571Y-110566914D01*
X89658571Y-110566914D02*
X89687142Y-110624057D01*
X89687142Y-110624057D02*
X89687142Y-110681200D01*
X89687142Y-110681200D02*
X89658571Y-110766914D01*
X89658571Y-110766914D02*
X89315714Y-111109771D01*
X89315714Y-111109771D02*
X89687142Y-111109771D01*
X88544285Y-113014771D02*
X88344285Y-112729057D01*
X88201428Y-113014771D02*
X88201428Y-112414771D01*
X88201428Y-112414771D02*
X88429999Y-112414771D01*
X88429999Y-112414771D02*
X88487142Y-112443342D01*
X88487142Y-112443342D02*
X88515713Y-112471914D01*
X88515713Y-112471914D02*
X88544285Y-112529057D01*
X88544285Y-112529057D02*
X88544285Y-112614771D01*
X88544285Y-112614771D02*
X88515713Y-112671914D01*
X88515713Y-112671914D02*
X88487142Y-112700485D01*
X88487142Y-112700485D02*
X88429999Y-112729057D01*
X88429999Y-112729057D02*
X88201428Y-112729057D01*
X89115713Y-113014771D02*
X88772856Y-113014771D01*
X88944285Y-113014771D02*
X88944285Y-112414771D01*
X88944285Y-112414771D02*
X88887142Y-112500485D01*
X88887142Y-112500485D02*
X88829999Y-112557628D01*
X88829999Y-112557628D02*
X88772856Y-112586200D01*
X89315714Y-112414771D02*
X89687142Y-112414771D01*
X89687142Y-112414771D02*
X89487142Y-112643342D01*
X89487142Y-112643342D02*
X89572857Y-112643342D01*
X89572857Y-112643342D02*
X89630000Y-112671914D01*
X89630000Y-112671914D02*
X89658571Y-112700485D01*
X89658571Y-112700485D02*
X89687142Y-112757628D01*
X89687142Y-112757628D02*
X89687142Y-112900485D01*
X89687142Y-112900485D02*
X89658571Y-112957628D01*
X89658571Y-112957628D02*
X89630000Y-112986200D01*
X89630000Y-112986200D02*
X89572857Y-113014771D01*
X89572857Y-113014771D02*
X89401428Y-113014771D01*
X89401428Y-113014771D02*
X89344285Y-112986200D01*
X89344285Y-112986200D02*
X89315714Y-112957628D01*
X109804285Y-105047628D02*
X109775713Y-105076200D01*
X109775713Y-105076200D02*
X109689999Y-105104771D01*
X109689999Y-105104771D02*
X109632856Y-105104771D01*
X109632856Y-105104771D02*
X109547142Y-105076200D01*
X109547142Y-105076200D02*
X109489999Y-105019057D01*
X109489999Y-105019057D02*
X109461428Y-104961914D01*
X109461428Y-104961914D02*
X109432856Y-104847628D01*
X109432856Y-104847628D02*
X109432856Y-104761914D01*
X109432856Y-104761914D02*
X109461428Y-104647628D01*
X109461428Y-104647628D02*
X109489999Y-104590485D01*
X109489999Y-104590485D02*
X109547142Y-104533342D01*
X109547142Y-104533342D02*
X109632856Y-104504771D01*
X109632856Y-104504771D02*
X109689999Y-104504771D01*
X109689999Y-104504771D02*
X109775713Y-104533342D01*
X109775713Y-104533342D02*
X109804285Y-104561914D01*
X110375713Y-105104771D02*
X110032856Y-105104771D01*
X110204285Y-105104771D02*
X110204285Y-104504771D01*
X110204285Y-104504771D02*
X110147142Y-104590485D01*
X110147142Y-104590485D02*
X110089999Y-104647628D01*
X110089999Y-104647628D02*
X110032856Y-104676200D01*
X110747142Y-104504771D02*
X110804285Y-104504771D01*
X110804285Y-104504771D02*
X110861428Y-104533342D01*
X110861428Y-104533342D02*
X110890000Y-104561914D01*
X110890000Y-104561914D02*
X110918571Y-104619057D01*
X110918571Y-104619057D02*
X110947142Y-104733342D01*
X110947142Y-104733342D02*
X110947142Y-104876200D01*
X110947142Y-104876200D02*
X110918571Y-104990485D01*
X110918571Y-104990485D02*
X110890000Y-105047628D01*
X110890000Y-105047628D02*
X110861428Y-105076200D01*
X110861428Y-105076200D02*
X110804285Y-105104771D01*
X110804285Y-105104771D02*
X110747142Y-105104771D01*
X110747142Y-105104771D02*
X110690000Y-105076200D01*
X110690000Y-105076200D02*
X110661428Y-105047628D01*
X110661428Y-105047628D02*
X110632857Y-104990485D01*
X110632857Y-104990485D02*
X110604285Y-104876200D01*
X110604285Y-104876200D02*
X110604285Y-104733342D01*
X110604285Y-104733342D02*
X110632857Y-104619057D01*
X110632857Y-104619057D02*
X110661428Y-104561914D01*
X110661428Y-104561914D02*
X110690000Y-104533342D01*
X110690000Y-104533342D02*
X110747142Y-104504771D01*
X85970000Y-91172628D02*
X85941428Y-91201200D01*
X85941428Y-91201200D02*
X85855714Y-91229771D01*
X85855714Y-91229771D02*
X85798571Y-91229771D01*
X85798571Y-91229771D02*
X85712857Y-91201200D01*
X85712857Y-91201200D02*
X85655714Y-91144057D01*
X85655714Y-91144057D02*
X85627143Y-91086914D01*
X85627143Y-91086914D02*
X85598571Y-90972628D01*
X85598571Y-90972628D02*
X85598571Y-90886914D01*
X85598571Y-90886914D02*
X85627143Y-90772628D01*
X85627143Y-90772628D02*
X85655714Y-90715485D01*
X85655714Y-90715485D02*
X85712857Y-90658342D01*
X85712857Y-90658342D02*
X85798571Y-90629771D01*
X85798571Y-90629771D02*
X85855714Y-90629771D01*
X85855714Y-90629771D02*
X85941428Y-90658342D01*
X85941428Y-90658342D02*
X85970000Y-90686914D01*
X86170000Y-90629771D02*
X86541428Y-90629771D01*
X86541428Y-90629771D02*
X86341428Y-90858342D01*
X86341428Y-90858342D02*
X86427143Y-90858342D01*
X86427143Y-90858342D02*
X86484286Y-90886914D01*
X86484286Y-90886914D02*
X86512857Y-90915485D01*
X86512857Y-90915485D02*
X86541428Y-90972628D01*
X86541428Y-90972628D02*
X86541428Y-91115485D01*
X86541428Y-91115485D02*
X86512857Y-91172628D01*
X86512857Y-91172628D02*
X86484286Y-91201200D01*
X86484286Y-91201200D02*
X86427143Y-91229771D01*
X86427143Y-91229771D02*
X86255714Y-91229771D01*
X86255714Y-91229771D02*
X86198571Y-91201200D01*
X86198571Y-91201200D02*
X86170000Y-91172628D01*
X116870000Y-93642628D02*
X116841428Y-93671200D01*
X116841428Y-93671200D02*
X116755714Y-93699771D01*
X116755714Y-93699771D02*
X116698571Y-93699771D01*
X116698571Y-93699771D02*
X116612857Y-93671200D01*
X116612857Y-93671200D02*
X116555714Y-93614057D01*
X116555714Y-93614057D02*
X116527143Y-93556914D01*
X116527143Y-93556914D02*
X116498571Y-93442628D01*
X116498571Y-93442628D02*
X116498571Y-93356914D01*
X116498571Y-93356914D02*
X116527143Y-93242628D01*
X116527143Y-93242628D02*
X116555714Y-93185485D01*
X116555714Y-93185485D02*
X116612857Y-93128342D01*
X116612857Y-93128342D02*
X116698571Y-93099771D01*
X116698571Y-93099771D02*
X116755714Y-93099771D01*
X116755714Y-93099771D02*
X116841428Y-93128342D01*
X116841428Y-93128342D02*
X116870000Y-93156914D01*
X117384286Y-93299771D02*
X117384286Y-93699771D01*
X117241428Y-93071200D02*
X117098571Y-93499771D01*
X117098571Y-93499771D02*
X117470000Y-93499771D01*
X99020000Y-92429771D02*
X98820000Y-92144057D01*
X98677143Y-92429771D02*
X98677143Y-91829771D01*
X98677143Y-91829771D02*
X98905714Y-91829771D01*
X98905714Y-91829771D02*
X98962857Y-91858342D01*
X98962857Y-91858342D02*
X98991428Y-91886914D01*
X98991428Y-91886914D02*
X99020000Y-91944057D01*
X99020000Y-91944057D02*
X99020000Y-92029771D01*
X99020000Y-92029771D02*
X98991428Y-92086914D01*
X98991428Y-92086914D02*
X98962857Y-92115485D01*
X98962857Y-92115485D02*
X98905714Y-92144057D01*
X98905714Y-92144057D02*
X98677143Y-92144057D01*
X99534286Y-91829771D02*
X99420000Y-91829771D01*
X99420000Y-91829771D02*
X99362857Y-91858342D01*
X99362857Y-91858342D02*
X99334286Y-91886914D01*
X99334286Y-91886914D02*
X99277143Y-91972628D01*
X99277143Y-91972628D02*
X99248571Y-92086914D01*
X99248571Y-92086914D02*
X99248571Y-92315485D01*
X99248571Y-92315485D02*
X99277143Y-92372628D01*
X99277143Y-92372628D02*
X99305714Y-92401200D01*
X99305714Y-92401200D02*
X99362857Y-92429771D01*
X99362857Y-92429771D02*
X99477143Y-92429771D01*
X99477143Y-92429771D02*
X99534286Y-92401200D01*
X99534286Y-92401200D02*
X99562857Y-92372628D01*
X99562857Y-92372628D02*
X99591428Y-92315485D01*
X99591428Y-92315485D02*
X99591428Y-92172628D01*
X99591428Y-92172628D02*
X99562857Y-92115485D01*
X99562857Y-92115485D02*
X99534286Y-92086914D01*
X99534286Y-92086914D02*
X99477143Y-92058342D01*
X99477143Y-92058342D02*
X99362857Y-92058342D01*
X99362857Y-92058342D02*
X99305714Y-92086914D01*
X99305714Y-92086914D02*
X99277143Y-92115485D01*
X99277143Y-92115485D02*
X99248571Y-92172628D01*
X107930000Y-99542628D02*
X107901428Y-99571200D01*
X107901428Y-99571200D02*
X107815714Y-99599771D01*
X107815714Y-99599771D02*
X107758571Y-99599771D01*
X107758571Y-99599771D02*
X107672857Y-99571200D01*
X107672857Y-99571200D02*
X107615714Y-99514057D01*
X107615714Y-99514057D02*
X107587143Y-99456914D01*
X107587143Y-99456914D02*
X107558571Y-99342628D01*
X107558571Y-99342628D02*
X107558571Y-99256914D01*
X107558571Y-99256914D02*
X107587143Y-99142628D01*
X107587143Y-99142628D02*
X107615714Y-99085485D01*
X107615714Y-99085485D02*
X107672857Y-99028342D01*
X107672857Y-99028342D02*
X107758571Y-98999771D01*
X107758571Y-98999771D02*
X107815714Y-98999771D01*
X107815714Y-98999771D02*
X107901428Y-99028342D01*
X107901428Y-99028342D02*
X107930000Y-99056914D01*
X108272857Y-99256914D02*
X108215714Y-99228342D01*
X108215714Y-99228342D02*
X108187143Y-99199771D01*
X108187143Y-99199771D02*
X108158571Y-99142628D01*
X108158571Y-99142628D02*
X108158571Y-99114057D01*
X108158571Y-99114057D02*
X108187143Y-99056914D01*
X108187143Y-99056914D02*
X108215714Y-99028342D01*
X108215714Y-99028342D02*
X108272857Y-98999771D01*
X108272857Y-98999771D02*
X108387143Y-98999771D01*
X108387143Y-98999771D02*
X108444286Y-99028342D01*
X108444286Y-99028342D02*
X108472857Y-99056914D01*
X108472857Y-99056914D02*
X108501428Y-99114057D01*
X108501428Y-99114057D02*
X108501428Y-99142628D01*
X108501428Y-99142628D02*
X108472857Y-99199771D01*
X108472857Y-99199771D02*
X108444286Y-99228342D01*
X108444286Y-99228342D02*
X108387143Y-99256914D01*
X108387143Y-99256914D02*
X108272857Y-99256914D01*
X108272857Y-99256914D02*
X108215714Y-99285485D01*
X108215714Y-99285485D02*
X108187143Y-99314057D01*
X108187143Y-99314057D02*
X108158571Y-99371200D01*
X108158571Y-99371200D02*
X108158571Y-99485485D01*
X108158571Y-99485485D02*
X108187143Y-99542628D01*
X108187143Y-99542628D02*
X108215714Y-99571200D01*
X108215714Y-99571200D02*
X108272857Y-99599771D01*
X108272857Y-99599771D02*
X108387143Y-99599771D01*
X108387143Y-99599771D02*
X108444286Y-99571200D01*
X108444286Y-99571200D02*
X108472857Y-99542628D01*
X108472857Y-99542628D02*
X108501428Y-99485485D01*
X108501428Y-99485485D02*
X108501428Y-99371200D01*
X108501428Y-99371200D02*
X108472857Y-99314057D01*
X108472857Y-99314057D02*
X108444286Y-99285485D01*
X108444286Y-99285485D02*
X108387143Y-99256914D01*
X88470000Y-101919771D02*
X88270000Y-101634057D01*
X88127143Y-101919771D02*
X88127143Y-101319771D01*
X88127143Y-101319771D02*
X88355714Y-101319771D01*
X88355714Y-101319771D02*
X88412857Y-101348342D01*
X88412857Y-101348342D02*
X88441428Y-101376914D01*
X88441428Y-101376914D02*
X88470000Y-101434057D01*
X88470000Y-101434057D02*
X88470000Y-101519771D01*
X88470000Y-101519771D02*
X88441428Y-101576914D01*
X88441428Y-101576914D02*
X88412857Y-101605485D01*
X88412857Y-101605485D02*
X88355714Y-101634057D01*
X88355714Y-101634057D02*
X88127143Y-101634057D01*
X88812857Y-101576914D02*
X88755714Y-101548342D01*
X88755714Y-101548342D02*
X88727143Y-101519771D01*
X88727143Y-101519771D02*
X88698571Y-101462628D01*
X88698571Y-101462628D02*
X88698571Y-101434057D01*
X88698571Y-101434057D02*
X88727143Y-101376914D01*
X88727143Y-101376914D02*
X88755714Y-101348342D01*
X88755714Y-101348342D02*
X88812857Y-101319771D01*
X88812857Y-101319771D02*
X88927143Y-101319771D01*
X88927143Y-101319771D02*
X88984286Y-101348342D01*
X88984286Y-101348342D02*
X89012857Y-101376914D01*
X89012857Y-101376914D02*
X89041428Y-101434057D01*
X89041428Y-101434057D02*
X89041428Y-101462628D01*
X89041428Y-101462628D02*
X89012857Y-101519771D01*
X89012857Y-101519771D02*
X88984286Y-101548342D01*
X88984286Y-101548342D02*
X88927143Y-101576914D01*
X88927143Y-101576914D02*
X88812857Y-101576914D01*
X88812857Y-101576914D02*
X88755714Y-101605485D01*
X88755714Y-101605485D02*
X88727143Y-101634057D01*
X88727143Y-101634057D02*
X88698571Y-101691200D01*
X88698571Y-101691200D02*
X88698571Y-101805485D01*
X88698571Y-101805485D02*
X88727143Y-101862628D01*
X88727143Y-101862628D02*
X88755714Y-101891200D01*
X88755714Y-101891200D02*
X88812857Y-101919771D01*
X88812857Y-101919771D02*
X88927143Y-101919771D01*
X88927143Y-101919771D02*
X88984286Y-101891200D01*
X88984286Y-101891200D02*
X89012857Y-101862628D01*
X89012857Y-101862628D02*
X89041428Y-101805485D01*
X89041428Y-101805485D02*
X89041428Y-101691200D01*
X89041428Y-101691200D02*
X89012857Y-101634057D01*
X89012857Y-101634057D02*
X88984286Y-101605485D01*
X88984286Y-101605485D02*
X88927143Y-101576914D01*
X66612856Y-102031771D02*
X66955714Y-102031771D01*
X66784285Y-102631771D02*
X66784285Y-102031771D01*
X67155714Y-102631771D02*
X67155714Y-102031771D01*
X67155714Y-102031771D02*
X67384285Y-102031771D01*
X67384285Y-102031771D02*
X67441428Y-102060342D01*
X67441428Y-102060342D02*
X67469999Y-102088914D01*
X67469999Y-102088914D02*
X67498571Y-102146057D01*
X67498571Y-102146057D02*
X67498571Y-102231771D01*
X67498571Y-102231771D02*
X67469999Y-102288914D01*
X67469999Y-102288914D02*
X67441428Y-102317485D01*
X67441428Y-102317485D02*
X67384285Y-102346057D01*
X67384285Y-102346057D02*
X67155714Y-102346057D01*
X68041428Y-102031771D02*
X67755714Y-102031771D01*
X67755714Y-102031771D02*
X67727142Y-102317485D01*
X67727142Y-102317485D02*
X67755714Y-102288914D01*
X67755714Y-102288914D02*
X67812857Y-102260342D01*
X67812857Y-102260342D02*
X67955714Y-102260342D01*
X67955714Y-102260342D02*
X68012857Y-102288914D01*
X68012857Y-102288914D02*
X68041428Y-102317485D01*
X68041428Y-102317485D02*
X68069999Y-102374628D01*
X68069999Y-102374628D02*
X68069999Y-102517485D01*
X68069999Y-102517485D02*
X68041428Y-102574628D01*
X68041428Y-102574628D02*
X68012857Y-102603200D01*
X68012857Y-102603200D02*
X67955714Y-102631771D01*
X67955714Y-102631771D02*
X67812857Y-102631771D01*
X67812857Y-102631771D02*
X67755714Y-102603200D01*
X67755714Y-102603200D02*
X67727142Y-102574628D01*
X98524285Y-97682628D02*
X98495713Y-97711200D01*
X98495713Y-97711200D02*
X98409999Y-97739771D01*
X98409999Y-97739771D02*
X98352856Y-97739771D01*
X98352856Y-97739771D02*
X98267142Y-97711200D01*
X98267142Y-97711200D02*
X98209999Y-97654057D01*
X98209999Y-97654057D02*
X98181428Y-97596914D01*
X98181428Y-97596914D02*
X98152856Y-97482628D01*
X98152856Y-97482628D02*
X98152856Y-97396914D01*
X98152856Y-97396914D02*
X98181428Y-97282628D01*
X98181428Y-97282628D02*
X98209999Y-97225485D01*
X98209999Y-97225485D02*
X98267142Y-97168342D01*
X98267142Y-97168342D02*
X98352856Y-97139771D01*
X98352856Y-97139771D02*
X98409999Y-97139771D01*
X98409999Y-97139771D02*
X98495713Y-97168342D01*
X98495713Y-97168342D02*
X98524285Y-97196914D01*
X99095713Y-97739771D02*
X98752856Y-97739771D01*
X98924285Y-97739771D02*
X98924285Y-97139771D01*
X98924285Y-97139771D02*
X98867142Y-97225485D01*
X98867142Y-97225485D02*
X98809999Y-97282628D01*
X98809999Y-97282628D02*
X98752856Y-97311200D01*
X99295714Y-97139771D02*
X99695714Y-97139771D01*
X99695714Y-97139771D02*
X99438571Y-97739771D01*
X100327500Y-89502628D02*
X100298928Y-89531200D01*
X100298928Y-89531200D02*
X100213214Y-89559771D01*
X100213214Y-89559771D02*
X100156071Y-89559771D01*
X100156071Y-89559771D02*
X100070357Y-89531200D01*
X100070357Y-89531200D02*
X100013214Y-89474057D01*
X100013214Y-89474057D02*
X99984643Y-89416914D01*
X99984643Y-89416914D02*
X99956071Y-89302628D01*
X99956071Y-89302628D02*
X99956071Y-89216914D01*
X99956071Y-89216914D02*
X99984643Y-89102628D01*
X99984643Y-89102628D02*
X100013214Y-89045485D01*
X100013214Y-89045485D02*
X100070357Y-88988342D01*
X100070357Y-88988342D02*
X100156071Y-88959771D01*
X100156071Y-88959771D02*
X100213214Y-88959771D01*
X100213214Y-88959771D02*
X100298928Y-88988342D01*
X100298928Y-88988342D02*
X100327500Y-89016914D01*
X100898928Y-89559771D02*
X100556071Y-89559771D01*
X100727500Y-89559771D02*
X100727500Y-88959771D01*
X100727500Y-88959771D02*
X100670357Y-89045485D01*
X100670357Y-89045485D02*
X100613214Y-89102628D01*
X100613214Y-89102628D02*
X100556071Y-89131200D01*
X101184643Y-89559771D02*
X101298929Y-89559771D01*
X101298929Y-89559771D02*
X101356072Y-89531200D01*
X101356072Y-89531200D02*
X101384643Y-89502628D01*
X101384643Y-89502628D02*
X101441786Y-89416914D01*
X101441786Y-89416914D02*
X101470357Y-89302628D01*
X101470357Y-89302628D02*
X101470357Y-89074057D01*
X101470357Y-89074057D02*
X101441786Y-89016914D01*
X101441786Y-89016914D02*
X101413215Y-88988342D01*
X101413215Y-88988342D02*
X101356072Y-88959771D01*
X101356072Y-88959771D02*
X101241786Y-88959771D01*
X101241786Y-88959771D02*
X101184643Y-88988342D01*
X101184643Y-88988342D02*
X101156072Y-89016914D01*
X101156072Y-89016914D02*
X101127500Y-89074057D01*
X101127500Y-89074057D02*
X101127500Y-89216914D01*
X101127500Y-89216914D02*
X101156072Y-89274057D01*
X101156072Y-89274057D02*
X101184643Y-89302628D01*
X101184643Y-89302628D02*
X101241786Y-89331200D01*
X101241786Y-89331200D02*
X101356072Y-89331200D01*
X101356072Y-89331200D02*
X101413215Y-89302628D01*
X101413215Y-89302628D02*
X101441786Y-89274057D01*
X101441786Y-89274057D02*
X101470357Y-89216914D01*
X77982857Y-80649771D02*
X77982857Y-81135485D01*
X77982857Y-81135485D02*
X78011428Y-81192628D01*
X78011428Y-81192628D02*
X78040000Y-81221200D01*
X78040000Y-81221200D02*
X78097142Y-81249771D01*
X78097142Y-81249771D02*
X78211428Y-81249771D01*
X78211428Y-81249771D02*
X78268571Y-81221200D01*
X78268571Y-81221200D02*
X78297142Y-81192628D01*
X78297142Y-81192628D02*
X78325714Y-81135485D01*
X78325714Y-81135485D02*
X78325714Y-80649771D01*
X78582856Y-80706914D02*
X78611428Y-80678342D01*
X78611428Y-80678342D02*
X78668571Y-80649771D01*
X78668571Y-80649771D02*
X78811428Y-80649771D01*
X78811428Y-80649771D02*
X78868571Y-80678342D01*
X78868571Y-80678342D02*
X78897142Y-80706914D01*
X78897142Y-80706914D02*
X78925713Y-80764057D01*
X78925713Y-80764057D02*
X78925713Y-80821200D01*
X78925713Y-80821200D02*
X78897142Y-80906914D01*
X78897142Y-80906914D02*
X78554285Y-81249771D01*
X78554285Y-81249771D02*
X78925713Y-81249771D01*
X66612856Y-105461771D02*
X66955714Y-105461771D01*
X66784285Y-106061771D02*
X66784285Y-105461771D01*
X67155714Y-106061771D02*
X67155714Y-105461771D01*
X67155714Y-105461771D02*
X67384285Y-105461771D01*
X67384285Y-105461771D02*
X67441428Y-105490342D01*
X67441428Y-105490342D02*
X67469999Y-105518914D01*
X67469999Y-105518914D02*
X67498571Y-105576057D01*
X67498571Y-105576057D02*
X67498571Y-105661771D01*
X67498571Y-105661771D02*
X67469999Y-105718914D01*
X67469999Y-105718914D02*
X67441428Y-105747485D01*
X67441428Y-105747485D02*
X67384285Y-105776057D01*
X67384285Y-105776057D02*
X67155714Y-105776057D01*
X68012857Y-105661771D02*
X68012857Y-106061771D01*
X67869999Y-105433200D02*
X67727142Y-105861771D01*
X67727142Y-105861771D02*
X68098571Y-105861771D01*
X119747143Y-102819771D02*
X119747143Y-102219771D01*
X119747143Y-102219771D02*
X119890000Y-102219771D01*
X119890000Y-102219771D02*
X119975714Y-102248342D01*
X119975714Y-102248342D02*
X120032857Y-102305485D01*
X120032857Y-102305485D02*
X120061428Y-102362628D01*
X120061428Y-102362628D02*
X120090000Y-102476914D01*
X120090000Y-102476914D02*
X120090000Y-102562628D01*
X120090000Y-102562628D02*
X120061428Y-102676914D01*
X120061428Y-102676914D02*
X120032857Y-102734057D01*
X120032857Y-102734057D02*
X119975714Y-102791200D01*
X119975714Y-102791200D02*
X119890000Y-102819771D01*
X119890000Y-102819771D02*
X119747143Y-102819771D01*
X120661428Y-102819771D02*
X120318571Y-102819771D01*
X120490000Y-102819771D02*
X120490000Y-102219771D01*
X120490000Y-102219771D02*
X120432857Y-102305485D01*
X120432857Y-102305485D02*
X120375714Y-102362628D01*
X120375714Y-102362628D02*
X120318571Y-102391200D01*
X85970000Y-92919771D02*
X85770000Y-92634057D01*
X85627143Y-92919771D02*
X85627143Y-92319771D01*
X85627143Y-92319771D02*
X85855714Y-92319771D01*
X85855714Y-92319771D02*
X85912857Y-92348342D01*
X85912857Y-92348342D02*
X85941428Y-92376914D01*
X85941428Y-92376914D02*
X85970000Y-92434057D01*
X85970000Y-92434057D02*
X85970000Y-92519771D01*
X85970000Y-92519771D02*
X85941428Y-92576914D01*
X85941428Y-92576914D02*
X85912857Y-92605485D01*
X85912857Y-92605485D02*
X85855714Y-92634057D01*
X85855714Y-92634057D02*
X85627143Y-92634057D01*
X86484286Y-92519771D02*
X86484286Y-92919771D01*
X86341428Y-92291200D02*
X86198571Y-92719771D01*
X86198571Y-92719771D02*
X86570000Y-92719771D01*
X71446232Y-78139771D02*
X71446232Y-78625485D01*
X71446232Y-78625485D02*
X71474803Y-78682628D01*
X71474803Y-78682628D02*
X71503375Y-78711200D01*
X71503375Y-78711200D02*
X71560517Y-78739771D01*
X71560517Y-78739771D02*
X71674803Y-78739771D01*
X71674803Y-78739771D02*
X71731946Y-78711200D01*
X71731946Y-78711200D02*
X71760517Y-78682628D01*
X71760517Y-78682628D02*
X71789089Y-78625485D01*
X71789089Y-78625485D02*
X71789089Y-78139771D01*
X72017660Y-78139771D02*
X72417660Y-78139771D01*
X72417660Y-78139771D02*
X72160517Y-78739771D01*
X67957143Y-81269771D02*
X67957143Y-80669771D01*
X67957143Y-80669771D02*
X68100000Y-80669771D01*
X68100000Y-80669771D02*
X68185714Y-80698342D01*
X68185714Y-80698342D02*
X68242857Y-80755485D01*
X68242857Y-80755485D02*
X68271428Y-80812628D01*
X68271428Y-80812628D02*
X68300000Y-80926914D01*
X68300000Y-80926914D02*
X68300000Y-81012628D01*
X68300000Y-81012628D02*
X68271428Y-81126914D01*
X68271428Y-81126914D02*
X68242857Y-81184057D01*
X68242857Y-81184057D02*
X68185714Y-81241200D01*
X68185714Y-81241200D02*
X68100000Y-81269771D01*
X68100000Y-81269771D02*
X67957143Y-81269771D01*
X68528571Y-80726914D02*
X68557143Y-80698342D01*
X68557143Y-80698342D02*
X68614286Y-80669771D01*
X68614286Y-80669771D02*
X68757143Y-80669771D01*
X68757143Y-80669771D02*
X68814286Y-80698342D01*
X68814286Y-80698342D02*
X68842857Y-80726914D01*
X68842857Y-80726914D02*
X68871428Y-80784057D01*
X68871428Y-80784057D02*
X68871428Y-80841200D01*
X68871428Y-80841200D02*
X68842857Y-80926914D01*
X68842857Y-80926914D02*
X68500000Y-81269771D01*
X68500000Y-81269771D02*
X68871428Y-81269771D01*
X98959999Y-76791200D02*
X99045714Y-76819771D01*
X99045714Y-76819771D02*
X99188571Y-76819771D01*
X99188571Y-76819771D02*
X99245714Y-76791200D01*
X99245714Y-76791200D02*
X99274285Y-76762628D01*
X99274285Y-76762628D02*
X99302856Y-76705485D01*
X99302856Y-76705485D02*
X99302856Y-76648342D01*
X99302856Y-76648342D02*
X99274285Y-76591200D01*
X99274285Y-76591200D02*
X99245714Y-76562628D01*
X99245714Y-76562628D02*
X99188571Y-76534057D01*
X99188571Y-76534057D02*
X99074285Y-76505485D01*
X99074285Y-76505485D02*
X99017142Y-76476914D01*
X99017142Y-76476914D02*
X98988571Y-76448342D01*
X98988571Y-76448342D02*
X98959999Y-76391200D01*
X98959999Y-76391200D02*
X98959999Y-76334057D01*
X98959999Y-76334057D02*
X98988571Y-76276914D01*
X98988571Y-76276914D02*
X99017142Y-76248342D01*
X99017142Y-76248342D02*
X99074285Y-76219771D01*
X99074285Y-76219771D02*
X99217142Y-76219771D01*
X99217142Y-76219771D02*
X99302856Y-76248342D01*
X99502857Y-76219771D02*
X99645714Y-76819771D01*
X99645714Y-76819771D02*
X99760000Y-76391200D01*
X99760000Y-76391200D02*
X99874285Y-76819771D01*
X99874285Y-76819771D02*
X100017143Y-76219771D01*
X100559999Y-76819771D02*
X100217142Y-76819771D01*
X100388571Y-76819771D02*
X100388571Y-76219771D01*
X100388571Y-76219771D02*
X100331428Y-76305485D01*
X100331428Y-76305485D02*
X100274285Y-76362628D01*
X100274285Y-76362628D02*
X100217142Y-76391200D01*
X85534285Y-96592628D02*
X85505713Y-96621200D01*
X85505713Y-96621200D02*
X85419999Y-96649771D01*
X85419999Y-96649771D02*
X85362856Y-96649771D01*
X85362856Y-96649771D02*
X85277142Y-96621200D01*
X85277142Y-96621200D02*
X85219999Y-96564057D01*
X85219999Y-96564057D02*
X85191428Y-96506914D01*
X85191428Y-96506914D02*
X85162856Y-96392628D01*
X85162856Y-96392628D02*
X85162856Y-96306914D01*
X85162856Y-96306914D02*
X85191428Y-96192628D01*
X85191428Y-96192628D02*
X85219999Y-96135485D01*
X85219999Y-96135485D02*
X85277142Y-96078342D01*
X85277142Y-96078342D02*
X85362856Y-96049771D01*
X85362856Y-96049771D02*
X85419999Y-96049771D01*
X85419999Y-96049771D02*
X85505713Y-96078342D01*
X85505713Y-96078342D02*
X85534285Y-96106914D01*
X85762856Y-96106914D02*
X85791428Y-96078342D01*
X85791428Y-96078342D02*
X85848571Y-96049771D01*
X85848571Y-96049771D02*
X85991428Y-96049771D01*
X85991428Y-96049771D02*
X86048571Y-96078342D01*
X86048571Y-96078342D02*
X86077142Y-96106914D01*
X86077142Y-96106914D02*
X86105713Y-96164057D01*
X86105713Y-96164057D02*
X86105713Y-96221200D01*
X86105713Y-96221200D02*
X86077142Y-96306914D01*
X86077142Y-96306914D02*
X85734285Y-96649771D01*
X85734285Y-96649771D02*
X86105713Y-96649771D01*
X86477142Y-96049771D02*
X86534285Y-96049771D01*
X86534285Y-96049771D02*
X86591428Y-96078342D01*
X86591428Y-96078342D02*
X86620000Y-96106914D01*
X86620000Y-96106914D02*
X86648571Y-96164057D01*
X86648571Y-96164057D02*
X86677142Y-96278342D01*
X86677142Y-96278342D02*
X86677142Y-96421200D01*
X86677142Y-96421200D02*
X86648571Y-96535485D01*
X86648571Y-96535485D02*
X86620000Y-96592628D01*
X86620000Y-96592628D02*
X86591428Y-96621200D01*
X86591428Y-96621200D02*
X86534285Y-96649771D01*
X86534285Y-96649771D02*
X86477142Y-96649771D01*
X86477142Y-96649771D02*
X86420000Y-96621200D01*
X86420000Y-96621200D02*
X86391428Y-96592628D01*
X86391428Y-96592628D02*
X86362857Y-96535485D01*
X86362857Y-96535485D02*
X86334285Y-96421200D01*
X86334285Y-96421200D02*
X86334285Y-96278342D01*
X86334285Y-96278342D02*
X86362857Y-96164057D01*
X86362857Y-96164057D02*
X86391428Y-96106914D01*
X86391428Y-96106914D02*
X86420000Y-96078342D01*
X86420000Y-96078342D02*
X86477142Y-96049771D01*
X87634285Y-88124771D02*
X87434285Y-87839057D01*
X87291428Y-88124771D02*
X87291428Y-87524771D01*
X87291428Y-87524771D02*
X87519999Y-87524771D01*
X87519999Y-87524771D02*
X87577142Y-87553342D01*
X87577142Y-87553342D02*
X87605713Y-87581914D01*
X87605713Y-87581914D02*
X87634285Y-87639057D01*
X87634285Y-87639057D02*
X87634285Y-87724771D01*
X87634285Y-87724771D02*
X87605713Y-87781914D01*
X87605713Y-87781914D02*
X87577142Y-87810485D01*
X87577142Y-87810485D02*
X87519999Y-87839057D01*
X87519999Y-87839057D02*
X87291428Y-87839057D01*
X88205713Y-88124771D02*
X87862856Y-88124771D01*
X88034285Y-88124771D02*
X88034285Y-87524771D01*
X88034285Y-87524771D02*
X87977142Y-87610485D01*
X87977142Y-87610485D02*
X87919999Y-87667628D01*
X87919999Y-87667628D02*
X87862856Y-87696200D01*
X88577142Y-87524771D02*
X88634285Y-87524771D01*
X88634285Y-87524771D02*
X88691428Y-87553342D01*
X88691428Y-87553342D02*
X88720000Y-87581914D01*
X88720000Y-87581914D02*
X88748571Y-87639057D01*
X88748571Y-87639057D02*
X88777142Y-87753342D01*
X88777142Y-87753342D02*
X88777142Y-87896200D01*
X88777142Y-87896200D02*
X88748571Y-88010485D01*
X88748571Y-88010485D02*
X88720000Y-88067628D01*
X88720000Y-88067628D02*
X88691428Y-88096200D01*
X88691428Y-88096200D02*
X88634285Y-88124771D01*
X88634285Y-88124771D02*
X88577142Y-88124771D01*
X88577142Y-88124771D02*
X88520000Y-88096200D01*
X88520000Y-88096200D02*
X88491428Y-88067628D01*
X88491428Y-88067628D02*
X88462857Y-88010485D01*
X88462857Y-88010485D02*
X88434285Y-87896200D01*
X88434285Y-87896200D02*
X88434285Y-87753342D01*
X88434285Y-87753342D02*
X88462857Y-87639057D01*
X88462857Y-87639057D02*
X88491428Y-87581914D01*
X88491428Y-87581914D02*
X88520000Y-87553342D01*
X88520000Y-87553342D02*
X88577142Y-87524771D01*
X105242857Y-91819771D02*
X105242857Y-92305485D01*
X105242857Y-92305485D02*
X105271428Y-92362628D01*
X105271428Y-92362628D02*
X105300000Y-92391200D01*
X105300000Y-92391200D02*
X105357142Y-92419771D01*
X105357142Y-92419771D02*
X105471428Y-92419771D01*
X105471428Y-92419771D02*
X105528571Y-92391200D01*
X105528571Y-92391200D02*
X105557142Y-92362628D01*
X105557142Y-92362628D02*
X105585714Y-92305485D01*
X105585714Y-92305485D02*
X105585714Y-91819771D01*
X105814285Y-91819771D02*
X106185713Y-91819771D01*
X106185713Y-91819771D02*
X105985713Y-92048342D01*
X105985713Y-92048342D02*
X106071428Y-92048342D01*
X106071428Y-92048342D02*
X106128571Y-92076914D01*
X106128571Y-92076914D02*
X106157142Y-92105485D01*
X106157142Y-92105485D02*
X106185713Y-92162628D01*
X106185713Y-92162628D02*
X106185713Y-92305485D01*
X106185713Y-92305485D02*
X106157142Y-92362628D01*
X106157142Y-92362628D02*
X106128571Y-92391200D01*
X106128571Y-92391200D02*
X106071428Y-92419771D01*
X106071428Y-92419771D02*
X105899999Y-92419771D01*
X105899999Y-92419771D02*
X105842856Y-92391200D01*
X105842856Y-92391200D02*
X105814285Y-92362628D01*
X97974285Y-105047628D02*
X97945713Y-105076200D01*
X97945713Y-105076200D02*
X97859999Y-105104771D01*
X97859999Y-105104771D02*
X97802856Y-105104771D01*
X97802856Y-105104771D02*
X97717142Y-105076200D01*
X97717142Y-105076200D02*
X97659999Y-105019057D01*
X97659999Y-105019057D02*
X97631428Y-104961914D01*
X97631428Y-104961914D02*
X97602856Y-104847628D01*
X97602856Y-104847628D02*
X97602856Y-104761914D01*
X97602856Y-104761914D02*
X97631428Y-104647628D01*
X97631428Y-104647628D02*
X97659999Y-104590485D01*
X97659999Y-104590485D02*
X97717142Y-104533342D01*
X97717142Y-104533342D02*
X97802856Y-104504771D01*
X97802856Y-104504771D02*
X97859999Y-104504771D01*
X97859999Y-104504771D02*
X97945713Y-104533342D01*
X97945713Y-104533342D02*
X97974285Y-104561914D01*
X98545713Y-105104771D02*
X98202856Y-105104771D01*
X98374285Y-105104771D02*
X98374285Y-104504771D01*
X98374285Y-104504771D02*
X98317142Y-104590485D01*
X98317142Y-104590485D02*
X98259999Y-104647628D01*
X98259999Y-104647628D02*
X98202856Y-104676200D01*
X99060000Y-104704771D02*
X99060000Y-105104771D01*
X98917142Y-104476200D02*
X98774285Y-104904771D01*
X98774285Y-104904771D02*
X99145714Y-104904771D01*
X85744285Y-76762628D02*
X85715713Y-76791200D01*
X85715713Y-76791200D02*
X85629999Y-76819771D01*
X85629999Y-76819771D02*
X85572856Y-76819771D01*
X85572856Y-76819771D02*
X85487142Y-76791200D01*
X85487142Y-76791200D02*
X85429999Y-76734057D01*
X85429999Y-76734057D02*
X85401428Y-76676914D01*
X85401428Y-76676914D02*
X85372856Y-76562628D01*
X85372856Y-76562628D02*
X85372856Y-76476914D01*
X85372856Y-76476914D02*
X85401428Y-76362628D01*
X85401428Y-76362628D02*
X85429999Y-76305485D01*
X85429999Y-76305485D02*
X85487142Y-76248342D01*
X85487142Y-76248342D02*
X85572856Y-76219771D01*
X85572856Y-76219771D02*
X85629999Y-76219771D01*
X85629999Y-76219771D02*
X85715713Y-76248342D01*
X85715713Y-76248342D02*
X85744285Y-76276914D01*
X86315713Y-76819771D02*
X85972856Y-76819771D01*
X86144285Y-76819771D02*
X86144285Y-76219771D01*
X86144285Y-76219771D02*
X86087142Y-76305485D01*
X86087142Y-76305485D02*
X86029999Y-76362628D01*
X86029999Y-76362628D02*
X85972856Y-76391200D01*
X86858571Y-76219771D02*
X86572857Y-76219771D01*
X86572857Y-76219771D02*
X86544285Y-76505485D01*
X86544285Y-76505485D02*
X86572857Y-76476914D01*
X86572857Y-76476914D02*
X86630000Y-76448342D01*
X86630000Y-76448342D02*
X86772857Y-76448342D01*
X86772857Y-76448342D02*
X86830000Y-76476914D01*
X86830000Y-76476914D02*
X86858571Y-76505485D01*
X86858571Y-76505485D02*
X86887142Y-76562628D01*
X86887142Y-76562628D02*
X86887142Y-76705485D01*
X86887142Y-76705485D02*
X86858571Y-76762628D01*
X86858571Y-76762628D02*
X86830000Y-76791200D01*
X86830000Y-76791200D02*
X86772857Y-76819771D01*
X86772857Y-76819771D02*
X86630000Y-76819771D01*
X86630000Y-76819771D02*
X86572857Y-76791200D01*
X86572857Y-76791200D02*
X86544285Y-76762628D01*
X88470000Y-102899771D02*
X88270000Y-102614057D01*
X88127143Y-102899771D02*
X88127143Y-102299771D01*
X88127143Y-102299771D02*
X88355714Y-102299771D01*
X88355714Y-102299771D02*
X88412857Y-102328342D01*
X88412857Y-102328342D02*
X88441428Y-102356914D01*
X88441428Y-102356914D02*
X88470000Y-102414057D01*
X88470000Y-102414057D02*
X88470000Y-102499771D01*
X88470000Y-102499771D02*
X88441428Y-102556914D01*
X88441428Y-102556914D02*
X88412857Y-102585485D01*
X88412857Y-102585485D02*
X88355714Y-102614057D01*
X88355714Y-102614057D02*
X88127143Y-102614057D01*
X88670000Y-102299771D02*
X89070000Y-102299771D01*
X89070000Y-102299771D02*
X88812857Y-102899771D01*
X74510000Y-98982628D02*
X74481428Y-99011200D01*
X74481428Y-99011200D02*
X74395714Y-99039771D01*
X74395714Y-99039771D02*
X74338571Y-99039771D01*
X74338571Y-99039771D02*
X74252857Y-99011200D01*
X74252857Y-99011200D02*
X74195714Y-98954057D01*
X74195714Y-98954057D02*
X74167143Y-98896914D01*
X74167143Y-98896914D02*
X74138571Y-98782628D01*
X74138571Y-98782628D02*
X74138571Y-98696914D01*
X74138571Y-98696914D02*
X74167143Y-98582628D01*
X74167143Y-98582628D02*
X74195714Y-98525485D01*
X74195714Y-98525485D02*
X74252857Y-98468342D01*
X74252857Y-98468342D02*
X74338571Y-98439771D01*
X74338571Y-98439771D02*
X74395714Y-98439771D01*
X74395714Y-98439771D02*
X74481428Y-98468342D01*
X74481428Y-98468342D02*
X74510000Y-98496914D01*
X75081428Y-99039771D02*
X74738571Y-99039771D01*
X74910000Y-99039771D02*
X74910000Y-98439771D01*
X74910000Y-98439771D02*
X74852857Y-98525485D01*
X74852857Y-98525485D02*
X74795714Y-98582628D01*
X74795714Y-98582628D02*
X74738571Y-98611200D01*
X75310000Y-98496914D02*
X75338572Y-98468342D01*
X75338572Y-98468342D02*
X75395715Y-98439771D01*
X75395715Y-98439771D02*
X75538572Y-98439771D01*
X75538572Y-98439771D02*
X75595715Y-98468342D01*
X75595715Y-98468342D02*
X75624286Y-98496914D01*
X75624286Y-98496914D02*
X75652857Y-98554057D01*
X75652857Y-98554057D02*
X75652857Y-98611200D01*
X75652857Y-98611200D02*
X75624286Y-98696914D01*
X75624286Y-98696914D02*
X75281429Y-99039771D01*
X75281429Y-99039771D02*
X75652857Y-99039771D01*
X83169999Y-102001200D02*
X83255714Y-102029771D01*
X83255714Y-102029771D02*
X83398571Y-102029771D01*
X83398571Y-102029771D02*
X83455714Y-102001200D01*
X83455714Y-102001200D02*
X83484285Y-101972628D01*
X83484285Y-101972628D02*
X83512856Y-101915485D01*
X83512856Y-101915485D02*
X83512856Y-101858342D01*
X83512856Y-101858342D02*
X83484285Y-101801200D01*
X83484285Y-101801200D02*
X83455714Y-101772628D01*
X83455714Y-101772628D02*
X83398571Y-101744057D01*
X83398571Y-101744057D02*
X83284285Y-101715485D01*
X83284285Y-101715485D02*
X83227142Y-101686914D01*
X83227142Y-101686914D02*
X83198571Y-101658342D01*
X83198571Y-101658342D02*
X83169999Y-101601200D01*
X83169999Y-101601200D02*
X83169999Y-101544057D01*
X83169999Y-101544057D02*
X83198571Y-101486914D01*
X83198571Y-101486914D02*
X83227142Y-101458342D01*
X83227142Y-101458342D02*
X83284285Y-101429771D01*
X83284285Y-101429771D02*
X83427142Y-101429771D01*
X83427142Y-101429771D02*
X83512856Y-101458342D01*
X83712857Y-101429771D02*
X83855714Y-102029771D01*
X83855714Y-102029771D02*
X83970000Y-101601200D01*
X83970000Y-101601200D02*
X84084285Y-102029771D01*
X84084285Y-102029771D02*
X84227143Y-101429771D01*
X84427142Y-101486914D02*
X84455714Y-101458342D01*
X84455714Y-101458342D02*
X84512857Y-101429771D01*
X84512857Y-101429771D02*
X84655714Y-101429771D01*
X84655714Y-101429771D02*
X84712857Y-101458342D01*
X84712857Y-101458342D02*
X84741428Y-101486914D01*
X84741428Y-101486914D02*
X84769999Y-101544057D01*
X84769999Y-101544057D02*
X84769999Y-101601200D01*
X84769999Y-101601200D02*
X84741428Y-101686914D01*
X84741428Y-101686914D02*
X84398571Y-102029771D01*
X84398571Y-102029771D02*
X84769999Y-102029771D01*
X104352856Y-89979771D02*
X104695714Y-89979771D01*
X104524285Y-90579771D02*
X104524285Y-89979771D01*
X104895714Y-90579771D02*
X104895714Y-89979771D01*
X104895714Y-89979771D02*
X105124285Y-89979771D01*
X105124285Y-89979771D02*
X105181428Y-90008342D01*
X105181428Y-90008342D02*
X105209999Y-90036914D01*
X105209999Y-90036914D02*
X105238571Y-90094057D01*
X105238571Y-90094057D02*
X105238571Y-90179771D01*
X105238571Y-90179771D02*
X105209999Y-90236914D01*
X105209999Y-90236914D02*
X105181428Y-90265485D01*
X105181428Y-90265485D02*
X105124285Y-90294057D01*
X105124285Y-90294057D02*
X104895714Y-90294057D01*
X105438571Y-89979771D02*
X105809999Y-89979771D01*
X105809999Y-89979771D02*
X105609999Y-90208342D01*
X105609999Y-90208342D02*
X105695714Y-90208342D01*
X105695714Y-90208342D02*
X105752857Y-90236914D01*
X105752857Y-90236914D02*
X105781428Y-90265485D01*
X105781428Y-90265485D02*
X105809999Y-90322628D01*
X105809999Y-90322628D02*
X105809999Y-90465485D01*
X105809999Y-90465485D02*
X105781428Y-90522628D01*
X105781428Y-90522628D02*
X105752857Y-90551200D01*
X105752857Y-90551200D02*
X105695714Y-90579771D01*
X105695714Y-90579771D02*
X105524285Y-90579771D01*
X105524285Y-90579771D02*
X105467142Y-90551200D01*
X105467142Y-90551200D02*
X105438571Y-90522628D01*
X97974285Y-100442628D02*
X97945713Y-100471200D01*
X97945713Y-100471200D02*
X97859999Y-100499771D01*
X97859999Y-100499771D02*
X97802856Y-100499771D01*
X97802856Y-100499771D02*
X97717142Y-100471200D01*
X97717142Y-100471200D02*
X97659999Y-100414057D01*
X97659999Y-100414057D02*
X97631428Y-100356914D01*
X97631428Y-100356914D02*
X97602856Y-100242628D01*
X97602856Y-100242628D02*
X97602856Y-100156914D01*
X97602856Y-100156914D02*
X97631428Y-100042628D01*
X97631428Y-100042628D02*
X97659999Y-99985485D01*
X97659999Y-99985485D02*
X97717142Y-99928342D01*
X97717142Y-99928342D02*
X97802856Y-99899771D01*
X97802856Y-99899771D02*
X97859999Y-99899771D01*
X97859999Y-99899771D02*
X97945713Y-99928342D01*
X97945713Y-99928342D02*
X97974285Y-99956914D01*
X98545713Y-100499771D02*
X98202856Y-100499771D01*
X98374285Y-100499771D02*
X98374285Y-99899771D01*
X98374285Y-99899771D02*
X98317142Y-99985485D01*
X98317142Y-99985485D02*
X98259999Y-100042628D01*
X98259999Y-100042628D02*
X98202856Y-100071200D01*
X99117142Y-100499771D02*
X98774285Y-100499771D01*
X98945714Y-100499771D02*
X98945714Y-99899771D01*
X98945714Y-99899771D02*
X98888571Y-99985485D01*
X98888571Y-99985485D02*
X98831428Y-100042628D01*
X98831428Y-100042628D02*
X98774285Y-100071200D01*
X88127143Y-103919771D02*
X88127143Y-103319771D01*
X88127143Y-103319771D02*
X88270000Y-103319771D01*
X88270000Y-103319771D02*
X88355714Y-103348342D01*
X88355714Y-103348342D02*
X88412857Y-103405485D01*
X88412857Y-103405485D02*
X88441428Y-103462628D01*
X88441428Y-103462628D02*
X88470000Y-103576914D01*
X88470000Y-103576914D02*
X88470000Y-103662628D01*
X88470000Y-103662628D02*
X88441428Y-103776914D01*
X88441428Y-103776914D02*
X88412857Y-103834057D01*
X88412857Y-103834057D02*
X88355714Y-103891200D01*
X88355714Y-103891200D02*
X88270000Y-103919771D01*
X88270000Y-103919771D02*
X88127143Y-103919771D01*
X88984286Y-103319771D02*
X88870000Y-103319771D01*
X88870000Y-103319771D02*
X88812857Y-103348342D01*
X88812857Y-103348342D02*
X88784286Y-103376914D01*
X88784286Y-103376914D02*
X88727143Y-103462628D01*
X88727143Y-103462628D02*
X88698571Y-103576914D01*
X88698571Y-103576914D02*
X88698571Y-103805485D01*
X88698571Y-103805485D02*
X88727143Y-103862628D01*
X88727143Y-103862628D02*
X88755714Y-103891200D01*
X88755714Y-103891200D02*
X88812857Y-103919771D01*
X88812857Y-103919771D02*
X88927143Y-103919771D01*
X88927143Y-103919771D02*
X88984286Y-103891200D01*
X88984286Y-103891200D02*
X89012857Y-103862628D01*
X89012857Y-103862628D02*
X89041428Y-103805485D01*
X89041428Y-103805485D02*
X89041428Y-103662628D01*
X89041428Y-103662628D02*
X89012857Y-103605485D01*
X89012857Y-103605485D02*
X88984286Y-103576914D01*
X88984286Y-103576914D02*
X88927143Y-103548342D01*
X88927143Y-103548342D02*
X88812857Y-103548342D01*
X88812857Y-103548342D02*
X88755714Y-103576914D01*
X88755714Y-103576914D02*
X88727143Y-103605485D01*
X88727143Y-103605485D02*
X88698571Y-103662628D01*
X123492857Y-79839771D02*
X123492857Y-80325485D01*
X123492857Y-80325485D02*
X123521428Y-80382628D01*
X123521428Y-80382628D02*
X123550000Y-80411200D01*
X123550000Y-80411200D02*
X123607142Y-80439771D01*
X123607142Y-80439771D02*
X123721428Y-80439771D01*
X123721428Y-80439771D02*
X123778571Y-80411200D01*
X123778571Y-80411200D02*
X123807142Y-80382628D01*
X123807142Y-80382628D02*
X123835714Y-80325485D01*
X123835714Y-80325485D02*
X123835714Y-79839771D01*
X124435713Y-80439771D02*
X124092856Y-80439771D01*
X124264285Y-80439771D02*
X124264285Y-79839771D01*
X124264285Y-79839771D02*
X124207142Y-79925485D01*
X124207142Y-79925485D02*
X124149999Y-79982628D01*
X124149999Y-79982628D02*
X124092856Y-80011200D01*
X85970000Y-90362628D02*
X85941428Y-90391200D01*
X85941428Y-90391200D02*
X85855714Y-90419771D01*
X85855714Y-90419771D02*
X85798571Y-90419771D01*
X85798571Y-90419771D02*
X85712857Y-90391200D01*
X85712857Y-90391200D02*
X85655714Y-90334057D01*
X85655714Y-90334057D02*
X85627143Y-90276914D01*
X85627143Y-90276914D02*
X85598571Y-90162628D01*
X85598571Y-90162628D02*
X85598571Y-90076914D01*
X85598571Y-90076914D02*
X85627143Y-89962628D01*
X85627143Y-89962628D02*
X85655714Y-89905485D01*
X85655714Y-89905485D02*
X85712857Y-89848342D01*
X85712857Y-89848342D02*
X85798571Y-89819771D01*
X85798571Y-89819771D02*
X85855714Y-89819771D01*
X85855714Y-89819771D02*
X85941428Y-89848342D01*
X85941428Y-89848342D02*
X85970000Y-89876914D01*
X86198571Y-89876914D02*
X86227143Y-89848342D01*
X86227143Y-89848342D02*
X86284286Y-89819771D01*
X86284286Y-89819771D02*
X86427143Y-89819771D01*
X86427143Y-89819771D02*
X86484286Y-89848342D01*
X86484286Y-89848342D02*
X86512857Y-89876914D01*
X86512857Y-89876914D02*
X86541428Y-89934057D01*
X86541428Y-89934057D02*
X86541428Y-89991200D01*
X86541428Y-89991200D02*
X86512857Y-90076914D01*
X86512857Y-90076914D02*
X86170000Y-90419771D01*
X86170000Y-90419771D02*
X86541428Y-90419771D01*
X85627143Y-92065371D02*
X85627143Y-91465371D01*
X85627143Y-91465371D02*
X85770000Y-91465371D01*
X85770000Y-91465371D02*
X85855714Y-91493942D01*
X85855714Y-91493942D02*
X85912857Y-91551085D01*
X85912857Y-91551085D02*
X85941428Y-91608228D01*
X85941428Y-91608228D02*
X85970000Y-91722514D01*
X85970000Y-91722514D02*
X85970000Y-91808228D01*
X85970000Y-91808228D02*
X85941428Y-91922514D01*
X85941428Y-91922514D02*
X85912857Y-91979657D01*
X85912857Y-91979657D02*
X85855714Y-92036800D01*
X85855714Y-92036800D02*
X85770000Y-92065371D01*
X85770000Y-92065371D02*
X85627143Y-92065371D01*
X86484286Y-91665371D02*
X86484286Y-92065371D01*
X86341428Y-91436800D02*
X86198571Y-91865371D01*
X86198571Y-91865371D02*
X86570000Y-91865371D01*
X74079999Y-102001200D02*
X74165714Y-102029771D01*
X74165714Y-102029771D02*
X74308571Y-102029771D01*
X74308571Y-102029771D02*
X74365714Y-102001200D01*
X74365714Y-102001200D02*
X74394285Y-101972628D01*
X74394285Y-101972628D02*
X74422856Y-101915485D01*
X74422856Y-101915485D02*
X74422856Y-101858342D01*
X74422856Y-101858342D02*
X74394285Y-101801200D01*
X74394285Y-101801200D02*
X74365714Y-101772628D01*
X74365714Y-101772628D02*
X74308571Y-101744057D01*
X74308571Y-101744057D02*
X74194285Y-101715485D01*
X74194285Y-101715485D02*
X74137142Y-101686914D01*
X74137142Y-101686914D02*
X74108571Y-101658342D01*
X74108571Y-101658342D02*
X74079999Y-101601200D01*
X74079999Y-101601200D02*
X74079999Y-101544057D01*
X74079999Y-101544057D02*
X74108571Y-101486914D01*
X74108571Y-101486914D02*
X74137142Y-101458342D01*
X74137142Y-101458342D02*
X74194285Y-101429771D01*
X74194285Y-101429771D02*
X74337142Y-101429771D01*
X74337142Y-101429771D02*
X74422856Y-101458342D01*
X74622857Y-101429771D02*
X74765714Y-102029771D01*
X74765714Y-102029771D02*
X74880000Y-101601200D01*
X74880000Y-101601200D02*
X74994285Y-102029771D01*
X74994285Y-102029771D02*
X75137143Y-101429771D01*
X75308571Y-101429771D02*
X75679999Y-101429771D01*
X75679999Y-101429771D02*
X75479999Y-101658342D01*
X75479999Y-101658342D02*
X75565714Y-101658342D01*
X75565714Y-101658342D02*
X75622857Y-101686914D01*
X75622857Y-101686914D02*
X75651428Y-101715485D01*
X75651428Y-101715485D02*
X75679999Y-101772628D01*
X75679999Y-101772628D02*
X75679999Y-101915485D01*
X75679999Y-101915485D02*
X75651428Y-101972628D01*
X75651428Y-101972628D02*
X75622857Y-102001200D01*
X75622857Y-102001200D02*
X75565714Y-102029771D01*
X75565714Y-102029771D02*
X75394285Y-102029771D01*
X75394285Y-102029771D02*
X75337142Y-102001200D01*
X75337142Y-102001200D02*
X75308571Y-101972628D01*
X85534285Y-97492628D02*
X85505713Y-97521200D01*
X85505713Y-97521200D02*
X85419999Y-97549771D01*
X85419999Y-97549771D02*
X85362856Y-97549771D01*
X85362856Y-97549771D02*
X85277142Y-97521200D01*
X85277142Y-97521200D02*
X85219999Y-97464057D01*
X85219999Y-97464057D02*
X85191428Y-97406914D01*
X85191428Y-97406914D02*
X85162856Y-97292628D01*
X85162856Y-97292628D02*
X85162856Y-97206914D01*
X85162856Y-97206914D02*
X85191428Y-97092628D01*
X85191428Y-97092628D02*
X85219999Y-97035485D01*
X85219999Y-97035485D02*
X85277142Y-96978342D01*
X85277142Y-96978342D02*
X85362856Y-96949771D01*
X85362856Y-96949771D02*
X85419999Y-96949771D01*
X85419999Y-96949771D02*
X85505713Y-96978342D01*
X85505713Y-96978342D02*
X85534285Y-97006914D01*
X86105713Y-97549771D02*
X85762856Y-97549771D01*
X85934285Y-97549771D02*
X85934285Y-96949771D01*
X85934285Y-96949771D02*
X85877142Y-97035485D01*
X85877142Y-97035485D02*
X85819999Y-97092628D01*
X85819999Y-97092628D02*
X85762856Y-97121200D01*
X86448571Y-97206914D02*
X86391428Y-97178342D01*
X86391428Y-97178342D02*
X86362857Y-97149771D01*
X86362857Y-97149771D02*
X86334285Y-97092628D01*
X86334285Y-97092628D02*
X86334285Y-97064057D01*
X86334285Y-97064057D02*
X86362857Y-97006914D01*
X86362857Y-97006914D02*
X86391428Y-96978342D01*
X86391428Y-96978342D02*
X86448571Y-96949771D01*
X86448571Y-96949771D02*
X86562857Y-96949771D01*
X86562857Y-96949771D02*
X86620000Y-96978342D01*
X86620000Y-96978342D02*
X86648571Y-97006914D01*
X86648571Y-97006914D02*
X86677142Y-97064057D01*
X86677142Y-97064057D02*
X86677142Y-97092628D01*
X86677142Y-97092628D02*
X86648571Y-97149771D01*
X86648571Y-97149771D02*
X86620000Y-97178342D01*
X86620000Y-97178342D02*
X86562857Y-97206914D01*
X86562857Y-97206914D02*
X86448571Y-97206914D01*
X86448571Y-97206914D02*
X86391428Y-97235485D01*
X86391428Y-97235485D02*
X86362857Y-97264057D01*
X86362857Y-97264057D02*
X86334285Y-97321200D01*
X86334285Y-97321200D02*
X86334285Y-97435485D01*
X86334285Y-97435485D02*
X86362857Y-97492628D01*
X86362857Y-97492628D02*
X86391428Y-97521200D01*
X86391428Y-97521200D02*
X86448571Y-97549771D01*
X86448571Y-97549771D02*
X86562857Y-97549771D01*
X86562857Y-97549771D02*
X86620000Y-97521200D01*
X86620000Y-97521200D02*
X86648571Y-97492628D01*
X86648571Y-97492628D02*
X86677142Y-97435485D01*
X86677142Y-97435485D02*
X86677142Y-97321200D01*
X86677142Y-97321200D02*
X86648571Y-97264057D01*
X86648571Y-97264057D02*
X86620000Y-97235485D01*
X86620000Y-97235485D02*
X86562857Y-97206914D01*
X103852857Y-100359771D02*
X103852857Y-100845485D01*
X103852857Y-100845485D02*
X103881428Y-100902628D01*
X103881428Y-100902628D02*
X103910000Y-100931200D01*
X103910000Y-100931200D02*
X103967142Y-100959771D01*
X103967142Y-100959771D02*
X104081428Y-100959771D01*
X104081428Y-100959771D02*
X104138571Y-100931200D01*
X104138571Y-100931200D02*
X104167142Y-100902628D01*
X104167142Y-100902628D02*
X104195714Y-100845485D01*
X104195714Y-100845485D02*
X104195714Y-100359771D01*
X104738571Y-100559771D02*
X104738571Y-100959771D01*
X104595713Y-100331200D02*
X104452856Y-100759771D01*
X104452856Y-100759771D02*
X104824285Y-100759771D01*
X87634285Y-86227628D02*
X87605713Y-86256200D01*
X87605713Y-86256200D02*
X87519999Y-86284771D01*
X87519999Y-86284771D02*
X87462856Y-86284771D01*
X87462856Y-86284771D02*
X87377142Y-86256200D01*
X87377142Y-86256200D02*
X87319999Y-86199057D01*
X87319999Y-86199057D02*
X87291428Y-86141914D01*
X87291428Y-86141914D02*
X87262856Y-86027628D01*
X87262856Y-86027628D02*
X87262856Y-85941914D01*
X87262856Y-85941914D02*
X87291428Y-85827628D01*
X87291428Y-85827628D02*
X87319999Y-85770485D01*
X87319999Y-85770485D02*
X87377142Y-85713342D01*
X87377142Y-85713342D02*
X87462856Y-85684771D01*
X87462856Y-85684771D02*
X87519999Y-85684771D01*
X87519999Y-85684771D02*
X87605713Y-85713342D01*
X87605713Y-85713342D02*
X87634285Y-85741914D01*
X88205713Y-86284771D02*
X87862856Y-86284771D01*
X88034285Y-86284771D02*
X88034285Y-85684771D01*
X88034285Y-85684771D02*
X87977142Y-85770485D01*
X87977142Y-85770485D02*
X87919999Y-85827628D01*
X87919999Y-85827628D02*
X87862856Y-85856200D01*
X88720000Y-85684771D02*
X88605714Y-85684771D01*
X88605714Y-85684771D02*
X88548571Y-85713342D01*
X88548571Y-85713342D02*
X88520000Y-85741914D01*
X88520000Y-85741914D02*
X88462857Y-85827628D01*
X88462857Y-85827628D02*
X88434285Y-85941914D01*
X88434285Y-85941914D02*
X88434285Y-86170485D01*
X88434285Y-86170485D02*
X88462857Y-86227628D01*
X88462857Y-86227628D02*
X88491428Y-86256200D01*
X88491428Y-86256200D02*
X88548571Y-86284771D01*
X88548571Y-86284771D02*
X88662857Y-86284771D01*
X88662857Y-86284771D02*
X88720000Y-86256200D01*
X88720000Y-86256200D02*
X88748571Y-86227628D01*
X88748571Y-86227628D02*
X88777142Y-86170485D01*
X88777142Y-86170485D02*
X88777142Y-86027628D01*
X88777142Y-86027628D02*
X88748571Y-85970485D01*
X88748571Y-85970485D02*
X88720000Y-85941914D01*
X88720000Y-85941914D02*
X88662857Y-85913342D01*
X88662857Y-85913342D02*
X88548571Y-85913342D01*
X88548571Y-85913342D02*
X88491428Y-85941914D01*
X88491428Y-85941914D02*
X88462857Y-85970485D01*
X88462857Y-85970485D02*
X88434285Y-86027628D01*
X103340000Y-87442628D02*
X103311428Y-87471200D01*
X103311428Y-87471200D02*
X103225714Y-87499771D01*
X103225714Y-87499771D02*
X103168571Y-87499771D01*
X103168571Y-87499771D02*
X103082857Y-87471200D01*
X103082857Y-87471200D02*
X103025714Y-87414057D01*
X103025714Y-87414057D02*
X102997143Y-87356914D01*
X102997143Y-87356914D02*
X102968571Y-87242628D01*
X102968571Y-87242628D02*
X102968571Y-87156914D01*
X102968571Y-87156914D02*
X102997143Y-87042628D01*
X102997143Y-87042628D02*
X103025714Y-86985485D01*
X103025714Y-86985485D02*
X103082857Y-86928342D01*
X103082857Y-86928342D02*
X103168571Y-86899771D01*
X103168571Y-86899771D02*
X103225714Y-86899771D01*
X103225714Y-86899771D02*
X103311428Y-86928342D01*
X103311428Y-86928342D02*
X103340000Y-86956914D01*
X103911428Y-87499771D02*
X103568571Y-87499771D01*
X103740000Y-87499771D02*
X103740000Y-86899771D01*
X103740000Y-86899771D02*
X103682857Y-86985485D01*
X103682857Y-86985485D02*
X103625714Y-87042628D01*
X103625714Y-87042628D02*
X103568571Y-87071200D01*
X87634285Y-87209771D02*
X87434285Y-86924057D01*
X87291428Y-87209771D02*
X87291428Y-86609771D01*
X87291428Y-86609771D02*
X87519999Y-86609771D01*
X87519999Y-86609771D02*
X87577142Y-86638342D01*
X87577142Y-86638342D02*
X87605713Y-86666914D01*
X87605713Y-86666914D02*
X87634285Y-86724057D01*
X87634285Y-86724057D02*
X87634285Y-86809771D01*
X87634285Y-86809771D02*
X87605713Y-86866914D01*
X87605713Y-86866914D02*
X87577142Y-86895485D01*
X87577142Y-86895485D02*
X87519999Y-86924057D01*
X87519999Y-86924057D02*
X87291428Y-86924057D01*
X88205713Y-87209771D02*
X87862856Y-87209771D01*
X88034285Y-87209771D02*
X88034285Y-86609771D01*
X88034285Y-86609771D02*
X87977142Y-86695485D01*
X87977142Y-86695485D02*
X87919999Y-86752628D01*
X87919999Y-86752628D02*
X87862856Y-86781200D01*
X88777142Y-87209771D02*
X88434285Y-87209771D01*
X88605714Y-87209771D02*
X88605714Y-86609771D01*
X88605714Y-86609771D02*
X88548571Y-86695485D01*
X88548571Y-86695485D02*
X88491428Y-86752628D01*
X88491428Y-86752628D02*
X88434285Y-86781200D01*
X117640000Y-96212628D02*
X117611428Y-96241200D01*
X117611428Y-96241200D02*
X117525714Y-96269771D01*
X117525714Y-96269771D02*
X117468571Y-96269771D01*
X117468571Y-96269771D02*
X117382857Y-96241200D01*
X117382857Y-96241200D02*
X117325714Y-96184057D01*
X117325714Y-96184057D02*
X117297143Y-96126914D01*
X117297143Y-96126914D02*
X117268571Y-96012628D01*
X117268571Y-96012628D02*
X117268571Y-95926914D01*
X117268571Y-95926914D02*
X117297143Y-95812628D01*
X117297143Y-95812628D02*
X117325714Y-95755485D01*
X117325714Y-95755485D02*
X117382857Y-95698342D01*
X117382857Y-95698342D02*
X117468571Y-95669771D01*
X117468571Y-95669771D02*
X117525714Y-95669771D01*
X117525714Y-95669771D02*
X117611428Y-95698342D01*
X117611428Y-95698342D02*
X117640000Y-95726914D01*
X118182857Y-95669771D02*
X117897143Y-95669771D01*
X117897143Y-95669771D02*
X117868571Y-95955485D01*
X117868571Y-95955485D02*
X117897143Y-95926914D01*
X117897143Y-95926914D02*
X117954286Y-95898342D01*
X117954286Y-95898342D02*
X118097143Y-95898342D01*
X118097143Y-95898342D02*
X118154286Y-95926914D01*
X118154286Y-95926914D02*
X118182857Y-95955485D01*
X118182857Y-95955485D02*
X118211428Y-96012628D01*
X118211428Y-96012628D02*
X118211428Y-96155485D01*
X118211428Y-96155485D02*
X118182857Y-96212628D01*
X118182857Y-96212628D02*
X118154286Y-96241200D01*
X118154286Y-96241200D02*
X118097143Y-96269771D01*
X118097143Y-96269771D02*
X117954286Y-96269771D01*
X117954286Y-96269771D02*
X117897143Y-96241200D01*
X117897143Y-96241200D02*
X117868571Y-96212628D01*
X109824285Y-100442628D02*
X109795713Y-100471200D01*
X109795713Y-100471200D02*
X109709999Y-100499771D01*
X109709999Y-100499771D02*
X109652856Y-100499771D01*
X109652856Y-100499771D02*
X109567142Y-100471200D01*
X109567142Y-100471200D02*
X109509999Y-100414057D01*
X109509999Y-100414057D02*
X109481428Y-100356914D01*
X109481428Y-100356914D02*
X109452856Y-100242628D01*
X109452856Y-100242628D02*
X109452856Y-100156914D01*
X109452856Y-100156914D02*
X109481428Y-100042628D01*
X109481428Y-100042628D02*
X109509999Y-99985485D01*
X109509999Y-99985485D02*
X109567142Y-99928342D01*
X109567142Y-99928342D02*
X109652856Y-99899771D01*
X109652856Y-99899771D02*
X109709999Y-99899771D01*
X109709999Y-99899771D02*
X109795713Y-99928342D01*
X109795713Y-99928342D02*
X109824285Y-99956914D01*
X110395713Y-100499771D02*
X110052856Y-100499771D01*
X110224285Y-100499771D02*
X110224285Y-99899771D01*
X110224285Y-99899771D02*
X110167142Y-99985485D01*
X110167142Y-99985485D02*
X110109999Y-100042628D01*
X110109999Y-100042628D02*
X110052856Y-100071200D01*
X110595714Y-99899771D02*
X110967142Y-99899771D01*
X110967142Y-99899771D02*
X110767142Y-100128342D01*
X110767142Y-100128342D02*
X110852857Y-100128342D01*
X110852857Y-100128342D02*
X110910000Y-100156914D01*
X110910000Y-100156914D02*
X110938571Y-100185485D01*
X110938571Y-100185485D02*
X110967142Y-100242628D01*
X110967142Y-100242628D02*
X110967142Y-100385485D01*
X110967142Y-100385485D02*
X110938571Y-100442628D01*
X110938571Y-100442628D02*
X110910000Y-100471200D01*
X110910000Y-100471200D02*
X110852857Y-100499771D01*
X110852857Y-100499771D02*
X110681428Y-100499771D01*
X110681428Y-100499771D02*
X110624285Y-100471200D01*
X110624285Y-100471200D02*
X110595714Y-100442628D01*
X121325000Y-92439771D02*
X121125000Y-92154057D01*
X120982143Y-92439771D02*
X120982143Y-91839771D01*
X120982143Y-91839771D02*
X121210714Y-91839771D01*
X121210714Y-91839771D02*
X121267857Y-91868342D01*
X121267857Y-91868342D02*
X121296428Y-91896914D01*
X121296428Y-91896914D02*
X121325000Y-91954057D01*
X121325000Y-91954057D02*
X121325000Y-92039771D01*
X121325000Y-92039771D02*
X121296428Y-92096914D01*
X121296428Y-92096914D02*
X121267857Y-92125485D01*
X121267857Y-92125485D02*
X121210714Y-92154057D01*
X121210714Y-92154057D02*
X120982143Y-92154057D01*
X121525000Y-91839771D02*
X121896428Y-91839771D01*
X121896428Y-91839771D02*
X121696428Y-92068342D01*
X121696428Y-92068342D02*
X121782143Y-92068342D01*
X121782143Y-92068342D02*
X121839286Y-92096914D01*
X121839286Y-92096914D02*
X121867857Y-92125485D01*
X121867857Y-92125485D02*
X121896428Y-92182628D01*
X121896428Y-92182628D02*
X121896428Y-92325485D01*
X121896428Y-92325485D02*
X121867857Y-92382628D01*
X121867857Y-92382628D02*
X121839286Y-92411200D01*
X121839286Y-92411200D02*
X121782143Y-92439771D01*
X121782143Y-92439771D02*
X121610714Y-92439771D01*
X121610714Y-92439771D02*
X121553571Y-92411200D01*
X121553571Y-92411200D02*
X121525000Y-92382628D01*
X87794285Y-76534057D02*
X87794285Y-76819771D01*
X87594285Y-76219771D02*
X87794285Y-76534057D01*
X87794285Y-76534057D02*
X87994285Y-76219771D01*
X88508571Y-76819771D02*
X88165714Y-76819771D01*
X88337143Y-76819771D02*
X88337143Y-76219771D01*
X88337143Y-76219771D02*
X88280000Y-76305485D01*
X88280000Y-76305485D02*
X88222857Y-76362628D01*
X88222857Y-76362628D02*
X88165714Y-76391200D01*
X84440000Y-81192628D02*
X84411428Y-81221200D01*
X84411428Y-81221200D02*
X84325714Y-81249771D01*
X84325714Y-81249771D02*
X84268571Y-81249771D01*
X84268571Y-81249771D02*
X84182857Y-81221200D01*
X84182857Y-81221200D02*
X84125714Y-81164057D01*
X84125714Y-81164057D02*
X84097143Y-81106914D01*
X84097143Y-81106914D02*
X84068571Y-80992628D01*
X84068571Y-80992628D02*
X84068571Y-80906914D01*
X84068571Y-80906914D02*
X84097143Y-80792628D01*
X84097143Y-80792628D02*
X84125714Y-80735485D01*
X84125714Y-80735485D02*
X84182857Y-80678342D01*
X84182857Y-80678342D02*
X84268571Y-80649771D01*
X84268571Y-80649771D02*
X84325714Y-80649771D01*
X84325714Y-80649771D02*
X84411428Y-80678342D01*
X84411428Y-80678342D02*
X84440000Y-80706914D01*
X84640000Y-80649771D02*
X85040000Y-80649771D01*
X85040000Y-80649771D02*
X84782857Y-81249771D01*
X85710000Y-81192628D02*
X85681428Y-81221200D01*
X85681428Y-81221200D02*
X85595714Y-81249771D01*
X85595714Y-81249771D02*
X85538571Y-81249771D01*
X85538571Y-81249771D02*
X85452857Y-81221200D01*
X85452857Y-81221200D02*
X85395714Y-81164057D01*
X85395714Y-81164057D02*
X85367143Y-81106914D01*
X85367143Y-81106914D02*
X85338571Y-80992628D01*
X85338571Y-80992628D02*
X85338571Y-80906914D01*
X85338571Y-80906914D02*
X85367143Y-80792628D01*
X85367143Y-80792628D02*
X85395714Y-80735485D01*
X85395714Y-80735485D02*
X85452857Y-80678342D01*
X85452857Y-80678342D02*
X85538571Y-80649771D01*
X85538571Y-80649771D02*
X85595714Y-80649771D01*
X85595714Y-80649771D02*
X85681428Y-80678342D01*
X85681428Y-80678342D02*
X85710000Y-80706914D01*
X85995714Y-81249771D02*
X86110000Y-81249771D01*
X86110000Y-81249771D02*
X86167143Y-81221200D01*
X86167143Y-81221200D02*
X86195714Y-81192628D01*
X86195714Y-81192628D02*
X86252857Y-81106914D01*
X86252857Y-81106914D02*
X86281428Y-80992628D01*
X86281428Y-80992628D02*
X86281428Y-80764057D01*
X86281428Y-80764057D02*
X86252857Y-80706914D01*
X86252857Y-80706914D02*
X86224286Y-80678342D01*
X86224286Y-80678342D02*
X86167143Y-80649771D01*
X86167143Y-80649771D02*
X86052857Y-80649771D01*
X86052857Y-80649771D02*
X85995714Y-80678342D01*
X85995714Y-80678342D02*
X85967143Y-80706914D01*
X85967143Y-80706914D02*
X85938571Y-80764057D01*
X85938571Y-80764057D02*
X85938571Y-80906914D01*
X85938571Y-80906914D02*
X85967143Y-80964057D01*
X85967143Y-80964057D02*
X85995714Y-80992628D01*
X85995714Y-80992628D02*
X86052857Y-81021200D01*
X86052857Y-81021200D02*
X86167143Y-81021200D01*
X86167143Y-81021200D02*
X86224286Y-80992628D01*
X86224286Y-80992628D02*
X86252857Y-80964057D01*
X86252857Y-80964057D02*
X86281428Y-80906914D01*
X100560000Y-92429771D02*
X100360000Y-92144057D01*
X100217143Y-92429771D02*
X100217143Y-91829771D01*
X100217143Y-91829771D02*
X100445714Y-91829771D01*
X100445714Y-91829771D02*
X100502857Y-91858342D01*
X100502857Y-91858342D02*
X100531428Y-91886914D01*
X100531428Y-91886914D02*
X100560000Y-91944057D01*
X100560000Y-91944057D02*
X100560000Y-92029771D01*
X100560000Y-92029771D02*
X100531428Y-92086914D01*
X100531428Y-92086914D02*
X100502857Y-92115485D01*
X100502857Y-92115485D02*
X100445714Y-92144057D01*
X100445714Y-92144057D02*
X100217143Y-92144057D01*
X101102857Y-91829771D02*
X100817143Y-91829771D01*
X100817143Y-91829771D02*
X100788571Y-92115485D01*
X100788571Y-92115485D02*
X100817143Y-92086914D01*
X100817143Y-92086914D02*
X100874286Y-92058342D01*
X100874286Y-92058342D02*
X101017143Y-92058342D01*
X101017143Y-92058342D02*
X101074286Y-92086914D01*
X101074286Y-92086914D02*
X101102857Y-92115485D01*
X101102857Y-92115485D02*
X101131428Y-92172628D01*
X101131428Y-92172628D02*
X101131428Y-92315485D01*
X101131428Y-92315485D02*
X101102857Y-92372628D01*
X101102857Y-92372628D02*
X101074286Y-92401200D01*
X101074286Y-92401200D02*
X101017143Y-92429771D01*
X101017143Y-92429771D02*
X100874286Y-92429771D01*
X100874286Y-92429771D02*
X100817143Y-92401200D01*
X100817143Y-92401200D02*
X100788571Y-92372628D01*
X100327500Y-87939771D02*
X100127500Y-87654057D01*
X99984643Y-87939771D02*
X99984643Y-87339771D01*
X99984643Y-87339771D02*
X100213214Y-87339771D01*
X100213214Y-87339771D02*
X100270357Y-87368342D01*
X100270357Y-87368342D02*
X100298928Y-87396914D01*
X100298928Y-87396914D02*
X100327500Y-87454057D01*
X100327500Y-87454057D02*
X100327500Y-87539771D01*
X100327500Y-87539771D02*
X100298928Y-87596914D01*
X100298928Y-87596914D02*
X100270357Y-87625485D01*
X100270357Y-87625485D02*
X100213214Y-87654057D01*
X100213214Y-87654057D02*
X99984643Y-87654057D01*
X100613214Y-87939771D02*
X100727500Y-87939771D01*
X100727500Y-87939771D02*
X100784643Y-87911200D01*
X100784643Y-87911200D02*
X100813214Y-87882628D01*
X100813214Y-87882628D02*
X100870357Y-87796914D01*
X100870357Y-87796914D02*
X100898928Y-87682628D01*
X100898928Y-87682628D02*
X100898928Y-87454057D01*
X100898928Y-87454057D02*
X100870357Y-87396914D01*
X100870357Y-87396914D02*
X100841786Y-87368342D01*
X100841786Y-87368342D02*
X100784643Y-87339771D01*
X100784643Y-87339771D02*
X100670357Y-87339771D01*
X100670357Y-87339771D02*
X100613214Y-87368342D01*
X100613214Y-87368342D02*
X100584643Y-87396914D01*
X100584643Y-87396914D02*
X100556071Y-87454057D01*
X100556071Y-87454057D02*
X100556071Y-87596914D01*
X100556071Y-87596914D02*
X100584643Y-87654057D01*
X100584643Y-87654057D02*
X100613214Y-87682628D01*
X100613214Y-87682628D02*
X100670357Y-87711200D01*
X100670357Y-87711200D02*
X100784643Y-87711200D01*
X100784643Y-87711200D02*
X100841786Y-87682628D01*
X100841786Y-87682628D02*
X100870357Y-87654057D01*
X100870357Y-87654057D02*
X100898928Y-87596914D01*
X125448571Y-106255485D02*
X125534285Y-106284057D01*
X125534285Y-106284057D02*
X125562856Y-106312628D01*
X125562856Y-106312628D02*
X125591428Y-106369771D01*
X125591428Y-106369771D02*
X125591428Y-106455485D01*
X125591428Y-106455485D02*
X125562856Y-106512628D01*
X125562856Y-106512628D02*
X125534285Y-106541200D01*
X125534285Y-106541200D02*
X125477142Y-106569771D01*
X125477142Y-106569771D02*
X125248571Y-106569771D01*
X125248571Y-106569771D02*
X125248571Y-105969771D01*
X125248571Y-105969771D02*
X125448571Y-105969771D01*
X125448571Y-105969771D02*
X125505714Y-105998342D01*
X125505714Y-105998342D02*
X125534285Y-106026914D01*
X125534285Y-106026914D02*
X125562856Y-106084057D01*
X125562856Y-106084057D02*
X125562856Y-106141200D01*
X125562856Y-106141200D02*
X125534285Y-106198342D01*
X125534285Y-106198342D02*
X125505714Y-106226914D01*
X125505714Y-106226914D02*
X125448571Y-106255485D01*
X125448571Y-106255485D02*
X125248571Y-106255485D01*
X125762856Y-105969771D02*
X126105714Y-105969771D01*
X125934285Y-106569771D02*
X125934285Y-105969771D01*
X126619999Y-106569771D02*
X126277142Y-106569771D01*
X126448571Y-106569771D02*
X126448571Y-105969771D01*
X126448571Y-105969771D02*
X126391428Y-106055485D01*
X126391428Y-106055485D02*
X126334285Y-106112628D01*
X126334285Y-106112628D02*
X126277142Y-106141200D01*
X88127143Y-104879771D02*
X88127143Y-104279771D01*
X88127143Y-104279771D02*
X88270000Y-104279771D01*
X88270000Y-104279771D02*
X88355714Y-104308342D01*
X88355714Y-104308342D02*
X88412857Y-104365485D01*
X88412857Y-104365485D02*
X88441428Y-104422628D01*
X88441428Y-104422628D02*
X88470000Y-104536914D01*
X88470000Y-104536914D02*
X88470000Y-104622628D01*
X88470000Y-104622628D02*
X88441428Y-104736914D01*
X88441428Y-104736914D02*
X88412857Y-104794057D01*
X88412857Y-104794057D02*
X88355714Y-104851200D01*
X88355714Y-104851200D02*
X88270000Y-104879771D01*
X88270000Y-104879771D02*
X88127143Y-104879771D01*
X89012857Y-104279771D02*
X88727143Y-104279771D01*
X88727143Y-104279771D02*
X88698571Y-104565485D01*
X88698571Y-104565485D02*
X88727143Y-104536914D01*
X88727143Y-104536914D02*
X88784286Y-104508342D01*
X88784286Y-104508342D02*
X88927143Y-104508342D01*
X88927143Y-104508342D02*
X88984286Y-104536914D01*
X88984286Y-104536914D02*
X89012857Y-104565485D01*
X89012857Y-104565485D02*
X89041428Y-104622628D01*
X89041428Y-104622628D02*
X89041428Y-104765485D01*
X89041428Y-104765485D02*
X89012857Y-104822628D01*
X89012857Y-104822628D02*
X88984286Y-104851200D01*
X88984286Y-104851200D02*
X88927143Y-104879771D01*
X88927143Y-104879771D02*
X88784286Y-104879771D01*
X88784286Y-104879771D02*
X88727143Y-104851200D01*
X88727143Y-104851200D02*
X88698571Y-104822628D01*
X69357143Y-81269771D02*
X69357143Y-80669771D01*
X69357143Y-80669771D02*
X69500000Y-80669771D01*
X69500000Y-80669771D02*
X69585714Y-80698342D01*
X69585714Y-80698342D02*
X69642857Y-80755485D01*
X69642857Y-80755485D02*
X69671428Y-80812628D01*
X69671428Y-80812628D02*
X69700000Y-80926914D01*
X69700000Y-80926914D02*
X69700000Y-81012628D01*
X69700000Y-81012628D02*
X69671428Y-81126914D01*
X69671428Y-81126914D02*
X69642857Y-81184057D01*
X69642857Y-81184057D02*
X69585714Y-81241200D01*
X69585714Y-81241200D02*
X69500000Y-81269771D01*
X69500000Y-81269771D02*
X69357143Y-81269771D01*
X69900000Y-80669771D02*
X70271428Y-80669771D01*
X70271428Y-80669771D02*
X70071428Y-80898342D01*
X70071428Y-80898342D02*
X70157143Y-80898342D01*
X70157143Y-80898342D02*
X70214286Y-80926914D01*
X70214286Y-80926914D02*
X70242857Y-80955485D01*
X70242857Y-80955485D02*
X70271428Y-81012628D01*
X70271428Y-81012628D02*
X70271428Y-81155485D01*
X70271428Y-81155485D02*
X70242857Y-81212628D01*
X70242857Y-81212628D02*
X70214286Y-81241200D01*
X70214286Y-81241200D02*
X70157143Y-81269771D01*
X70157143Y-81269771D02*
X69985714Y-81269771D01*
X69985714Y-81269771D02*
X69928571Y-81241200D01*
X69928571Y-81241200D02*
X69900000Y-81212628D01*
X87562857Y-89429771D02*
X87562857Y-89915485D01*
X87562857Y-89915485D02*
X87591428Y-89972628D01*
X87591428Y-89972628D02*
X87620000Y-90001200D01*
X87620000Y-90001200D02*
X87677142Y-90029771D01*
X87677142Y-90029771D02*
X87791428Y-90029771D01*
X87791428Y-90029771D02*
X87848571Y-90001200D01*
X87848571Y-90001200D02*
X87877142Y-89972628D01*
X87877142Y-89972628D02*
X87905714Y-89915485D01*
X87905714Y-89915485D02*
X87905714Y-89429771D01*
X88448571Y-89429771D02*
X88334285Y-89429771D01*
X88334285Y-89429771D02*
X88277142Y-89458342D01*
X88277142Y-89458342D02*
X88248571Y-89486914D01*
X88248571Y-89486914D02*
X88191428Y-89572628D01*
X88191428Y-89572628D02*
X88162856Y-89686914D01*
X88162856Y-89686914D02*
X88162856Y-89915485D01*
X88162856Y-89915485D02*
X88191428Y-89972628D01*
X88191428Y-89972628D02*
X88219999Y-90001200D01*
X88219999Y-90001200D02*
X88277142Y-90029771D01*
X88277142Y-90029771D02*
X88391428Y-90029771D01*
X88391428Y-90029771D02*
X88448571Y-90001200D01*
X88448571Y-90001200D02*
X88477142Y-89972628D01*
X88477142Y-89972628D02*
X88505713Y-89915485D01*
X88505713Y-89915485D02*
X88505713Y-89772628D01*
X88505713Y-89772628D02*
X88477142Y-89715485D01*
X88477142Y-89715485D02*
X88448571Y-89686914D01*
X88448571Y-89686914D02*
X88391428Y-89658342D01*
X88391428Y-89658342D02*
X88277142Y-89658342D01*
X88277142Y-89658342D02*
X88219999Y-89686914D01*
X88219999Y-89686914D02*
X88191428Y-89715485D01*
X88191428Y-89715485D02*
X88162856Y-89772628D01*
X99984643Y-86349771D02*
X99984643Y-85749771D01*
X99984643Y-85749771D02*
X100127500Y-85749771D01*
X100127500Y-85749771D02*
X100213214Y-85778342D01*
X100213214Y-85778342D02*
X100270357Y-85835485D01*
X100270357Y-85835485D02*
X100298928Y-85892628D01*
X100298928Y-85892628D02*
X100327500Y-86006914D01*
X100327500Y-86006914D02*
X100327500Y-86092628D01*
X100327500Y-86092628D02*
X100298928Y-86206914D01*
X100298928Y-86206914D02*
X100270357Y-86264057D01*
X100270357Y-86264057D02*
X100213214Y-86321200D01*
X100213214Y-86321200D02*
X100127500Y-86349771D01*
X100127500Y-86349771D02*
X99984643Y-86349771D01*
X100527500Y-85749771D02*
X100927500Y-85749771D01*
X100927500Y-85749771D02*
X100670357Y-86349771D01*
X83902857Y-94019771D02*
X83902857Y-94505485D01*
X83902857Y-94505485D02*
X83931428Y-94562628D01*
X83931428Y-94562628D02*
X83960000Y-94591200D01*
X83960000Y-94591200D02*
X84017142Y-94619771D01*
X84017142Y-94619771D02*
X84131428Y-94619771D01*
X84131428Y-94619771D02*
X84188571Y-94591200D01*
X84188571Y-94591200D02*
X84217142Y-94562628D01*
X84217142Y-94562628D02*
X84245714Y-94505485D01*
X84245714Y-94505485D02*
X84245714Y-94019771D01*
X84817142Y-94019771D02*
X84531428Y-94019771D01*
X84531428Y-94019771D02*
X84502856Y-94305485D01*
X84502856Y-94305485D02*
X84531428Y-94276914D01*
X84531428Y-94276914D02*
X84588571Y-94248342D01*
X84588571Y-94248342D02*
X84731428Y-94248342D01*
X84731428Y-94248342D02*
X84788571Y-94276914D01*
X84788571Y-94276914D02*
X84817142Y-94305485D01*
X84817142Y-94305485D02*
X84845713Y-94362628D01*
X84845713Y-94362628D02*
X84845713Y-94505485D01*
X84845713Y-94505485D02*
X84817142Y-94562628D01*
X84817142Y-94562628D02*
X84788571Y-94591200D01*
X84788571Y-94591200D02*
X84731428Y-94619771D01*
X84731428Y-94619771D02*
X84588571Y-94619771D01*
X84588571Y-94619771D02*
X84531428Y-94591200D01*
X84531428Y-94591200D02*
X84502856Y-94562628D01*
X91899999Y-103769771D02*
X91899999Y-104198342D01*
X91899999Y-104198342D02*
X91871428Y-104284057D01*
X91871428Y-104284057D02*
X91814285Y-104341200D01*
X91814285Y-104341200D02*
X91728571Y-104369771D01*
X91728571Y-104369771D02*
X91671428Y-104369771D01*
X92157142Y-103826914D02*
X92185714Y-103798342D01*
X92185714Y-103798342D02*
X92242857Y-103769771D01*
X92242857Y-103769771D02*
X92385714Y-103769771D01*
X92385714Y-103769771D02*
X92442857Y-103798342D01*
X92442857Y-103798342D02*
X92471428Y-103826914D01*
X92471428Y-103826914D02*
X92499999Y-103884057D01*
X92499999Y-103884057D02*
X92499999Y-103941200D01*
X92499999Y-103941200D02*
X92471428Y-104026914D01*
X92471428Y-104026914D02*
X92128571Y-104369771D01*
X92128571Y-104369771D02*
X92499999Y-104369771D01*
X121269999Y-98859771D02*
X121269999Y-99288342D01*
X121269999Y-99288342D02*
X121241428Y-99374057D01*
X121241428Y-99374057D02*
X121184285Y-99431200D01*
X121184285Y-99431200D02*
X121098571Y-99459771D01*
X121098571Y-99459771D02*
X121041428Y-99459771D01*
X121869999Y-99459771D02*
X121527142Y-99459771D01*
X121698571Y-99459771D02*
X121698571Y-98859771D01*
X121698571Y-98859771D02*
X121641428Y-98945485D01*
X121641428Y-98945485D02*
X121584285Y-99002628D01*
X121584285Y-99002628D02*
X121527142Y-99031200D01*
X74167143Y-100259771D02*
X74167143Y-99659771D01*
X74167143Y-99659771D02*
X74395714Y-99659771D01*
X74395714Y-99659771D02*
X74452857Y-99688342D01*
X74452857Y-99688342D02*
X74481428Y-99716914D01*
X74481428Y-99716914D02*
X74510000Y-99774057D01*
X74510000Y-99774057D02*
X74510000Y-99859771D01*
X74510000Y-99859771D02*
X74481428Y-99916914D01*
X74481428Y-99916914D02*
X74452857Y-99945485D01*
X74452857Y-99945485D02*
X74395714Y-99974057D01*
X74395714Y-99974057D02*
X74167143Y-99974057D01*
X75081428Y-100259771D02*
X74738571Y-100259771D01*
X74910000Y-100259771D02*
X74910000Y-99659771D01*
X74910000Y-99659771D02*
X74852857Y-99745485D01*
X74852857Y-99745485D02*
X74795714Y-99802628D01*
X74795714Y-99802628D02*
X74738571Y-99831200D01*
D13*
%TO.C,C6*%
X124794420Y-93940000D02*
X125075580Y-93940000D01*
X124794420Y-92920000D02*
X125075580Y-92920000D01*
%TO.C,J3*%
X102330000Y-113245000D02*
X102330000Y-110485000D01*
X97140000Y-113245000D02*
X102330000Y-113245000D01*
X97140000Y-113245000D02*
X97140000Y-110485000D01*
X97140000Y-110485000D02*
X102330000Y-110485000D01*
X95870000Y-113245000D02*
X94490000Y-113245000D01*
X94490000Y-113245000D02*
X94490000Y-111865000D01*
%TO.C,J4*%
X112750000Y-113245000D02*
X112750000Y-110485000D01*
X107560000Y-113245000D02*
X112750000Y-113245000D01*
X107560000Y-113245000D02*
X107560000Y-110485000D01*
X107560000Y-110485000D02*
X112750000Y-110485000D01*
X106290000Y-113245000D02*
X104910000Y-113245000D01*
X104910000Y-113245000D02*
X104910000Y-111865000D01*
%TO.C,L1*%
X118277221Y-99700000D02*
X118602779Y-99700000D01*
X118277221Y-98680000D02*
X118602779Y-98680000D01*
%TO.C,R1*%
X75552742Y-94742500D02*
X76027258Y-94742500D01*
X75552742Y-93697500D02*
X76027258Y-93697500D01*
%TO.C,R2*%
X75552742Y-96432500D02*
X76027258Y-96432500D01*
X75552742Y-95387500D02*
X76027258Y-95387500D01*
%TO.C,R12*%
X91352742Y-111362500D02*
X91827258Y-111362500D01*
X91352742Y-110317500D02*
X91827258Y-110317500D01*
%TO.C,R13*%
X91352742Y-113267500D02*
X91827258Y-113267500D01*
X91352742Y-112222500D02*
X91827258Y-112222500D01*
%TO.C,C10*%
X109680000Y-107060580D02*
X109680000Y-106779420D01*
X110700000Y-107060580D02*
X110700000Y-106779420D01*
%TO.C,C3*%
X79920000Y-91219420D02*
X79920000Y-91500580D01*
X80940000Y-91219420D02*
X80940000Y-91500580D01*
%TO.C,C4*%
X117890000Y-93570580D02*
X117890000Y-93289420D01*
X118910000Y-93570580D02*
X118910000Y-93289420D01*
%TO.C,R6*%
X100082258Y-92867500D02*
X99607742Y-92867500D01*
X100082258Y-93912500D02*
X99607742Y-93912500D01*
%TO.C,C8*%
X105559420Y-98820000D02*
X105840580Y-98820000D01*
X105559420Y-99840000D02*
X105840580Y-99840000D01*
%TO.C,R8*%
X90642742Y-100187500D02*
X91117258Y-100187500D01*
X90642742Y-101232500D02*
X91117258Y-101232500D01*
%TO.C,TP5*%
X68070000Y-103810000D02*
G75*
G02*
X66670000Y-103810000I-700000J0D01*
G01*
X66670000Y-103810000D02*
G75*
G02*
X68070000Y-103810000I700000J0D01*
G01*
%TO.C,C17*%
X98900580Y-98350000D02*
X98619420Y-98350000D01*
X98900580Y-99370000D02*
X98619420Y-99370000D01*
%TO.C,C19*%
X98335580Y-88780000D02*
X98054420Y-88780000D01*
X98335580Y-89800000D02*
X98054420Y-89800000D01*
%TO.C,U2*%
X76590000Y-81890000D02*
X80350000Y-81890000D01*
X76590000Y-88710000D02*
X80350000Y-88710000D01*
X80350000Y-81890000D02*
X80350000Y-83150000D01*
X80350000Y-88710000D02*
X80350000Y-87450000D01*
X75310000Y-81990000D02*
X75070000Y-81660000D01*
X75550000Y-81660000D01*
X75310000Y-81990000D01*
G36*
X75310000Y-81990000D02*
G01*
X75070000Y-81660000D01*
X75550000Y-81660000D01*
X75310000Y-81990000D01*
G37*
%TO.C,TP4*%
X68070000Y-107240000D02*
G75*
G02*
X66670000Y-107240000I-700000J0D01*
G01*
X66670000Y-107240000D02*
G75*
G02*
X68070000Y-107240000I700000J0D01*
G01*
%TO.C,D1*%
X119377500Y-100900000D02*
X113867500Y-100900000D01*
X119377500Y-104200000D02*
X113867500Y-104200000D01*
X119377500Y-104200000D02*
X119377500Y-100900000D01*
%TO.C,R4*%
X83907500Y-91122742D02*
X83907500Y-91597258D01*
X84952500Y-91122742D02*
X84952500Y-91597258D01*
%TO.C,U7*%
X73343375Y-77140000D02*
X74673375Y-77140000D01*
X73343375Y-78470000D02*
X73343375Y-77140000D01*
X75943375Y-77140000D02*
X83623375Y-77140000D01*
X75943375Y-79800000D02*
X75943375Y-77140000D01*
X75943375Y-79800000D02*
X83623375Y-79800000D01*
X83623375Y-79800000D02*
X83623375Y-77140000D01*
%TO.C,D2*%
X72662500Y-85550000D02*
X67152500Y-85550000D01*
X72662500Y-88850000D02*
X67152500Y-88850000D01*
X72662500Y-88850000D02*
X72662500Y-85550000D01*
%TO.C,SW1*%
X96260000Y-80050000D02*
X96260000Y-81550000D01*
X97510000Y-84050000D02*
X102010000Y-84050000D01*
X102010000Y-77550000D02*
X97510000Y-77550000D01*
X103260000Y-81550000D02*
X103260000Y-80050000D01*
%TO.C,C20*%
X85290000Y-99595580D02*
X85290000Y-99314420D01*
X86310000Y-99595580D02*
X86310000Y-99314420D01*
%TO.C,R10*%
X93277500Y-86687742D02*
X93277500Y-87162258D01*
X94322500Y-86687742D02*
X94322500Y-87162258D01*
%TO.C,U3*%
X103640000Y-92830000D02*
X107760000Y-92830000D01*
X103640000Y-92925000D02*
X103640000Y-92830000D01*
X103640000Y-97950000D02*
X103640000Y-97855000D01*
X107760000Y-92830000D02*
X107760000Y-92925000D01*
X107760000Y-97855000D02*
X107760000Y-97950000D01*
X107760000Y-97950000D02*
X103640000Y-97950000D01*
X108540000Y-98190000D02*
X108060000Y-98190000D01*
X108300000Y-97860000D01*
X108540000Y-98190000D01*
G36*
X108540000Y-98190000D02*
G01*
X108060000Y-98190000D01*
X108300000Y-97860000D01*
X108540000Y-98190000D01*
G37*
%TO.C,C14*%
X97850000Y-106779420D02*
X97850000Y-107060580D01*
X98870000Y-106779420D02*
X98870000Y-107060580D01*
%TO.C,C15*%
X85620000Y-78670580D02*
X85620000Y-78389420D01*
X86640000Y-78670580D02*
X86640000Y-78389420D01*
%TO.C,R7*%
X90642742Y-101922500D02*
X91117258Y-101922500D01*
X90642742Y-102967500D02*
X91117258Y-102967500D01*
%TO.C,C12*%
X76030000Y-98794420D02*
X76030000Y-99075580D01*
X77050000Y-98794420D02*
X77050000Y-99075580D01*
%TO.C,SW2*%
X80570000Y-104720000D02*
X80570000Y-111540000D01*
X81880000Y-104720000D02*
X80570000Y-104720000D01*
X81880000Y-111540000D02*
X80570000Y-111540000D01*
X83315000Y-107526667D02*
X82045000Y-107526667D01*
X84420000Y-104720000D02*
X83480000Y-104720000D01*
X84420000Y-111540000D02*
X83480000Y-111540000D01*
X85855000Y-107526667D02*
X84585000Y-107526667D01*
X87330000Y-104720000D02*
X86020000Y-104720000D01*
X87330000Y-104720000D02*
X87330000Y-111540000D01*
X87330000Y-111540000D02*
X86020000Y-111540000D01*
X87570000Y-104480000D02*
X86187000Y-104480000D01*
X87570000Y-104480000D02*
X87570000Y-105863000D01*
X83315000Y-106320000D02*
X82045000Y-106320000D01*
X82045000Y-107526667D01*
X83315000Y-107526667D01*
X83315000Y-106320000D01*
G36*
X83315000Y-106320000D02*
G01*
X82045000Y-106320000D01*
X82045000Y-107526667D01*
X83315000Y-107526667D01*
X83315000Y-106320000D01*
G37*
X83315000Y-106320000D02*
X82045000Y-106320000D01*
X82045000Y-109940000D01*
X83315000Y-109940000D01*
X83315000Y-106320000D01*
X85855000Y-106320000D02*
X84585000Y-106320000D01*
X84585000Y-107526667D01*
X85855000Y-107526667D01*
X85855000Y-106320000D01*
G36*
X85855000Y-106320000D02*
G01*
X84585000Y-106320000D01*
X84585000Y-107526667D01*
X85855000Y-107526667D01*
X85855000Y-106320000D01*
G37*
X85855000Y-106320000D02*
X84585000Y-106320000D01*
X84585000Y-109940000D01*
X85855000Y-109940000D01*
X85855000Y-106320000D01*
%TO.C,TP3*%
X103760000Y-90310000D02*
G75*
G02*
X102360000Y-90310000I-700000J0D01*
G01*
X102360000Y-90310000D02*
G75*
G02*
X103760000Y-90310000I700000J0D01*
G01*
%TO.C,C11*%
X97850000Y-102139420D02*
X97850000Y-102420580D01*
X98870000Y-102139420D02*
X98870000Y-102420580D01*
%TO.C,D6*%
X90060000Y-106685000D02*
X92345000Y-106685000D01*
X92345000Y-105215000D02*
X90060000Y-105215000D01*
X92345000Y-106685000D02*
X92345000Y-105215000D01*
%TO.C,U1*%
X106590000Y-77990000D02*
X107040000Y-77990000D01*
X106590000Y-90410000D02*
X106590000Y-77990000D01*
X106590000Y-90410000D02*
X107040000Y-90410000D01*
X114960000Y-77990000D02*
X116640000Y-77990000D01*
X114960000Y-90410000D02*
X116640000Y-90410000D01*
X122360000Y-77990000D02*
X122800000Y-77990000D01*
X122360000Y-90410000D02*
X122810000Y-90410000D01*
X122810000Y-90410000D02*
X122810000Y-77990000D01*
X107040000Y-90900000D02*
X106710000Y-91140000D01*
X106710000Y-90660000D01*
X107040000Y-90900000D01*
G36*
X107040000Y-90900000D02*
G01*
X106710000Y-91140000D01*
X106710000Y-90660000D01*
X107040000Y-90900000D01*
G37*
%TO.C,C2*%
X74320000Y-89860000D02*
X74320000Y-92880000D01*
X74320000Y-92880000D02*
X78540000Y-92880000D01*
X78540000Y-89860000D02*
X74320000Y-89860000D01*
%TO.C,D4*%
X81695000Y-89895000D02*
X81695000Y-92180000D01*
X83165000Y-89895000D02*
X81695000Y-89895000D01*
X83165000Y-92180000D02*
X83165000Y-89895000D01*
%TO.C,SW3*%
X70225000Y-104720000D02*
X70225000Y-111540000D01*
X71535000Y-104720000D02*
X70225000Y-104720000D01*
X71535000Y-111540000D02*
X70225000Y-111540000D01*
X72970000Y-107526667D02*
X71700000Y-107526667D01*
X74075000Y-104720000D02*
X73135000Y-104720000D01*
X74075000Y-111540000D02*
X73135000Y-111540000D01*
X75510000Y-107526667D02*
X74240000Y-107526667D01*
X76615000Y-104720000D02*
X75675000Y-104720000D01*
X76615000Y-111540000D02*
X75675000Y-111540000D01*
X78050000Y-107526667D02*
X76780000Y-107526667D01*
X79525000Y-104720000D02*
X78215000Y-104720000D01*
X79525000Y-104720000D02*
X79525000Y-111540000D01*
X79525000Y-111540000D02*
X78215000Y-111540000D01*
X79765000Y-104480000D02*
X78382000Y-104480000D01*
X79765000Y-104480000D02*
X79765000Y-105863000D01*
X72970000Y-106320000D02*
X71700000Y-106320000D01*
X71700000Y-107526667D01*
X72970000Y-107526667D01*
X72970000Y-106320000D01*
G36*
X72970000Y-106320000D02*
G01*
X71700000Y-106320000D01*
X71700000Y-107526667D01*
X72970000Y-107526667D01*
X72970000Y-106320000D01*
G37*
X72970000Y-106320000D02*
X71700000Y-106320000D01*
X71700000Y-109940000D01*
X72970000Y-109940000D01*
X72970000Y-106320000D01*
X75510000Y-106320000D02*
X74240000Y-106320000D01*
X74240000Y-107526667D01*
X75510000Y-107526667D01*
X75510000Y-106320000D01*
G36*
X75510000Y-106320000D02*
G01*
X74240000Y-106320000D01*
X74240000Y-107526667D01*
X75510000Y-107526667D01*
X75510000Y-106320000D01*
G37*
X75510000Y-106320000D02*
X74240000Y-106320000D01*
X74240000Y-109940000D01*
X75510000Y-109940000D01*
X75510000Y-106320000D01*
X78050000Y-106320000D02*
X76780000Y-106320000D01*
X76780000Y-107526667D01*
X78050000Y-107526667D01*
X78050000Y-106320000D01*
G36*
X78050000Y-106320000D02*
G01*
X76780000Y-106320000D01*
X76780000Y-107526667D01*
X78050000Y-107526667D01*
X78050000Y-106320000D01*
G37*
X78050000Y-106320000D02*
X76780000Y-106320000D01*
X76780000Y-109940000D01*
X78050000Y-109940000D01*
X78050000Y-106320000D01*
%TO.C,C18*%
X87270000Y-99595580D02*
X87270000Y-99314420D01*
X88290000Y-99595580D02*
X88290000Y-99314420D01*
D11*
%TO.C,U4*%
X101265000Y-101250000D02*
X102815000Y-101250000D01*
X101265000Y-101500000D02*
X101265000Y-101250000D01*
X101265000Y-107700000D02*
X101265000Y-107950000D01*
X101265000Y-107950000D02*
X102815000Y-107950000D01*
X107350000Y-101250000D02*
X105800000Y-101250000D01*
X107350000Y-101505000D02*
X107350000Y-101255000D01*
X107350000Y-107700000D02*
X107350000Y-107950000D01*
X107350000Y-107950000D02*
X105800000Y-107950000D01*
D13*
X100560000Y-101500000D02*
X100320000Y-101170000D01*
X100800000Y-101170000D01*
X100560000Y-101500000D01*
G36*
X100560000Y-101500000D02*
G01*
X100320000Y-101170000D01*
X100800000Y-101170000D01*
X100560000Y-101500000D01*
G37*
%TO.C,C16*%
X89290000Y-86784420D02*
X89290000Y-87065580D01*
X90310000Y-86784420D02*
X90310000Y-87065580D01*
%TO.C,C1*%
X104450000Y-87089420D02*
X104450000Y-87370580D01*
X105470000Y-87089420D02*
X105470000Y-87370580D01*
%TO.C,R11*%
X91277500Y-87162258D02*
X91277500Y-86687742D01*
X92322500Y-87162258D02*
X92322500Y-86687742D01*
%TO.C,C5*%
X118299420Y-96870000D02*
X118580580Y-96870000D01*
X118299420Y-97890000D02*
X118580580Y-97890000D01*
%TO.C,C13*%
X109700000Y-102420580D02*
X109700000Y-102139420D01*
X110720000Y-102420580D02*
X110720000Y-102139420D01*
%TO.C,R3*%
X121662258Y-92907500D02*
X121187742Y-92907500D01*
X121662258Y-93952500D02*
X121187742Y-93952500D01*
%TO.C,Y1*%
X87480000Y-77350000D02*
X88080000Y-77350000D01*
X88080000Y-77290000D02*
X93600000Y-77290000D01*
X88080000Y-77350000D02*
X88080000Y-77290000D01*
X88080000Y-79670000D02*
X87480000Y-79670000D01*
X88080000Y-82430000D02*
X88080000Y-79670000D01*
X88080000Y-84810000D02*
X88080000Y-84750000D01*
X93600000Y-77290000D02*
X93600000Y-77350000D01*
X93600000Y-79670000D02*
X93600000Y-82430000D01*
X93600000Y-84750000D02*
X93600000Y-84810000D01*
X93600000Y-84810000D02*
X88080000Y-84810000D01*
%TO.C,C7*%
X83670000Y-82380000D02*
X83670000Y-86600000D01*
X83670000Y-86600000D02*
X86690000Y-86600000D01*
X86690000Y-86600000D02*
X86690000Y-82380000D01*
%TO.C,C9*%
X85039420Y-87660000D02*
X85320580Y-87660000D01*
X85039420Y-88680000D02*
X85320580Y-88680000D01*
%TO.C,R5*%
X100082258Y-94507500D02*
X99607742Y-94507500D01*
X100082258Y-95552500D02*
X99607742Y-95552500D01*
%TO.C,R9*%
X97957742Y-87147500D02*
X98432258Y-87147500D01*
X97957742Y-88192500D02*
X98432258Y-88192500D01*
%TO.C,BT1*%
X122496773Y-109485616D02*
G75*
G02*
X115436773Y-109485616I-3530000J0D01*
G01*
X115436773Y-109485616D02*
G75*
G02*
X122496773Y-109485616I3530000J0D01*
G01*
%TO.C,D5*%
X90060000Y-108605000D02*
X92345000Y-108605000D01*
X92345000Y-107135000D02*
X90060000Y-107135000D01*
X92345000Y-108605000D02*
X92345000Y-107135000D01*
%TO.C,D3*%
X72662500Y-81790000D02*
X67152500Y-81790000D01*
X72662500Y-85090000D02*
X67152500Y-85090000D01*
X72662500Y-85090000D02*
X72662500Y-81790000D01*
%TO.C,U6*%
X88950000Y-90560000D02*
X89400000Y-90560000D01*
X88950000Y-91010000D02*
X88950000Y-90560000D01*
X88950000Y-97780000D02*
X88950000Y-97330000D01*
X89400000Y-97780000D02*
X88950000Y-97780000D01*
X95720000Y-90560000D02*
X96170000Y-90560000D01*
X96170000Y-90560000D02*
X96170000Y-91010000D01*
X96170000Y-97330000D02*
X96170000Y-97780000D01*
X96170000Y-97780000D02*
X95720000Y-97780000D01*
X96190000Y-90260000D02*
X95720000Y-89920000D01*
X96190000Y-89580000D01*
X96190000Y-90260000D01*
G36*
X96190000Y-90260000D02*
G01*
X95720000Y-89920000D01*
X96190000Y-89580000D01*
X96190000Y-90260000D01*
G37*
%TO.C,D7*%
X96730000Y-85345000D02*
X96730000Y-86815000D01*
X96730000Y-86815000D02*
X99015000Y-86815000D01*
X99015000Y-85345000D02*
X96730000Y-85345000D01*
%TO.C,U5*%
X78015000Y-95000000D02*
X78135000Y-95000000D01*
X78015000Y-99120000D02*
X78015000Y-95000000D01*
X78135000Y-99120000D02*
X78015000Y-99120000D01*
X83015000Y-95000000D02*
X83135000Y-95000000D01*
X83135000Y-95000000D02*
X83135000Y-99120000D01*
X83135000Y-99120000D02*
X83015000Y-99120000D01*
X83355000Y-94640000D02*
X83025000Y-94400000D01*
X83355000Y-94160000D01*
X83355000Y-94640000D01*
G36*
X83355000Y-94640000D02*
G01*
X83025000Y-94400000D01*
X83355000Y-94160000D01*
X83355000Y-94640000D01*
G37*
%TO.C,J2*%
X93200000Y-105560000D02*
X93200000Y-100370000D01*
X95960000Y-100370000D02*
X93200000Y-100370000D01*
X95960000Y-105560000D02*
X93200000Y-105560000D01*
X95960000Y-105560000D02*
X95960000Y-100370000D01*
X95960000Y-106830000D02*
X95960000Y-108210000D01*
X95960000Y-108210000D02*
X94580000Y-108210000D01*
%TO.C,J1*%
X122355000Y-97740000D02*
X122355000Y-100640000D01*
X124260000Y-95835000D02*
X127160000Y-95835000D01*
X124260000Y-102545000D02*
X127160000Y-102545000D01*
X129065000Y-97740000D02*
X129065000Y-100640000D01*
%TO.C,P1*%
X70600000Y-90300000D02*
X68820000Y-90300000D01*
X70600000Y-99700000D02*
X68820000Y-99700000D01*
X73520000Y-92200000D02*
X73520000Y-91400000D01*
%TD*%
M02*
